<?xml version="1.0" standalone="no"?>
<!DOCTYPE svg PUBLIC "-//W3C//DTD SVG 1.1//EN" "http://www.w3.org/Graphics/SVG/1.1/DTD/svg11.dtd" >
<svg xmlns="http://www.w3.org/2000/svg">
<metadata></metadata>
<defs>
<font id="magallanes_essential_boldbold" horiz-adv-x="1185" >
<font-face units-per-em="2048" ascent="1536" descent="-512" />
<missing-glyph horiz-adv-x="489" />
<glyph horiz-adv-x="2048" />
<glyph horiz-adv-x="2048" />
<glyph unicode="&#xd;" horiz-adv-x="2048" />
<glyph unicode=" "  horiz-adv-x="489" />
<glyph unicode="&#x09;" horiz-adv-x="489" />
<glyph unicode="&#xa0;" horiz-adv-x="489" />
<glyph unicode="!" horiz-adv-x="606" d="M123 143q0 73 52 124.5t128 51.5t129 -52t53 -124t-53 -123t-129 -51t-128 51t-52 123zM141 1434h324l-47 -985h-230z" />
<glyph unicode="&#x22;" horiz-adv-x="802" d="M98 1583h254l-35 -444h-182zM446 1583h256l-34 -444h-183z" />
<glyph unicode="#" horiz-adv-x="1419" d="M102 254v213h217l60 203h-164v213h225l60 200h227l-57 -200h282l60 200h227l-57 -200h141v-213h-205l-59 -203h151v-213h-213l-73 -254h-228l74 254h-285l-73 -254h-228l74 254h-156zM547 467h284l60 203h-285z" />
<glyph unicode="$" horiz-adv-x="1406" d="M57 174l127 227q8 -7 22.5 -19t65.5 -42.5t107.5 -53.5t146.5 -42t185 -19q152 0 235.5 44.5t83.5 123.5q0 52 -27.5 82t-96 53.5t-208.5 49.5q-78 14 -137 26.5t-124.5 32.5t-112.5 43t-91.5 56.5t-72.5 74t-45 94.5t-17 119q0 89 38.5 166.5t112.5 138.5t192.5 96 t267.5 35q107 0 209.5 -14.5t172.5 -36t124 -42.5t80 -35l26 -15l-102 -248q-7 5 -21 14t-62.5 31.5t-103 40t-142 31.5t-179.5 14q-155 0 -231.5 -44t-76.5 -116q0 -42 25 -74t76.5 -54t107.5 -36.5t140 -29.5q154 -27 255.5 -59t178.5 -83t112 -125t35 -178 q0 -194 -160.5 -313.5t-461.5 -118.5q-133 1 -249.5 22t-187 51t-122.5 60t-74 51zM586 -608l37 463h182l37 -463h-256zM586 1997h256l-37 -463h-182z" />
<glyph unicode="%" horiz-adv-x="1488" d="M74 1151q0 140 86 224.5t237 84.5q153 0 237.5 -84t84.5 -225t-85.5 -227t-236.5 -86q-150 0 -236.5 86.5t-86.5 226.5zM115 -31l1024 1491h233l-1024 -1491h-233zM246 1151q0 -72 40 -115t111 -43t111.5 43t40.5 115q0 69 -40.5 107t-111.5 38t-111 -38t-40 -107z M772 283q0 140 86 224.5t238 84.5t236.5 -84t84.5 -225t-85 -227.5t-236 -86.5q-150 0 -237 87t-87 227zM944 283q0 -72 40.5 -115t111.5 -43t111 43t40 115q0 69 -40 108t-111 39t-111.5 -39t-40.5 -108z" />
<glyph unicode="&#x26;" horiz-adv-x="1470" d="M115 416q0 61 17.5 116.5t43 94.5t60.5 74t62 54.5t56 35.5q-110 138 -110 299q0 164 125 267t346 103q91 0 173 -15.5t134.5 -38t91.5 -44.5t56 -38l18 -15l-109 -219q-4 5 -12.5 12.5t-38 27t-63.5 34.5t-90 27.5t-117 12.5q-103 0 -155 -45t-52 -112q0 -57 32 -109.5 t97 -120.5l397 -409q49 85 49 188h260q0 -209 -122 -375l141 -143l-176 -180l-158 159q-164 -90 -369 -90q-282 0 -434.5 116.5t-152.5 332.5zM387 424q0 -97 81.5 -154t233.5 -57q105 0 175 39l-371 381q-119 -75 -119 -209z" />
<glyph unicode="'" horiz-adv-x="452" d="M98 1583h254l-35 -444h-182z" />
<glyph unicode="(" horiz-adv-x="663" d="M84 494q0 144 18 283t46 245.5t62.5 202t69 162t62.5 115t46 72.5l18 23l217 -124q-12 -13 -31 -38.5t-68.5 -116.5t-87.5 -195.5t-69 -274.5t-31 -354q0 -134 16 -260t41 -220.5t56 -178t61.5 -140.5t55.5 -98.5t41 -60.5l16 -19l-217 -125q-7 8 -18.5 24t-45 71 t-64 116.5t-67.5 160.5t-63.5 203.5t-45 243.5t-18.5 283z" />
<glyph unicode=")" horiz-adv-x="665" d="M43 -483q6 7 16 20t40 59t57 99t59.5 139.5t56.5 179.5t40 219.5t16 260.5t-15.5 260.5t-41 221.5t-56 178.5t-60.5 140.5t-55.5 98.5t-41.5 60.5l-15 19l217 124q7 -8 18.5 -24t45 -71t64 -116.5t67.5 -160.5t63.5 -203.5t45 -244t18.5 -283.5t-18 -282.5t-46 -245 t-62.5 -201.5t-69 -161.5t-62.5 -115.5t-46 -72l-18 -24z" />
<glyph unicode="*" horiz-adv-x="1071" d="M88 1004l287 135l-287 133l109 186l258 -180l-29 315h217l-27 -315l258 180l109 -186l-289 -133l289 -135l-109 -187l-258 182l27 -315h-217l31 317l-260 -184z" />
<glyph unicode="+" horiz-adv-x="1232" d="M74 623v245h420v418h245v-418h418v-245h-418v-420h-245v420h-420z" />
<glyph unicode="," horiz-adv-x="610" d="M104 152q0 77 56 130.5t135 53.5q102 0 154.5 -67t52.5 -175q0 -78 -12 -145t-31.5 -112.5t-43 -82t-47.5 -57.5t-43.5 -35t-31.5 -19l-12 -5l-84 92q4 3 11.5 9t26.5 27.5t33.5 46t26.5 64.5t12 84v8h-12q-79 0 -135 54t-56 129z" />
<glyph unicode="-" horiz-adv-x="864" d="M129 455v243h608v-243h-608z" />
<glyph unicode="." horiz-adv-x="591" d="M104 152q0 77 56 130.5t135 53.5q81 0 136.5 -53.5t55.5 -130.5q0 -76 -55.5 -129.5t-136.5 -53.5q-79 0 -135 54t-56 129z" />
<glyph unicode="/" horiz-adv-x="940" d="M57 -508l566 1942h260l-566 -1942h-260z" />
<glyph unicode="0" horiz-adv-x="1499" d="M92 723q0 332 183 534.5t475 202.5q291 0 473 -202.5t182 -534.5q0 -162 -41.5 -298.5t-121.5 -238.5t-206 -159.5t-286 -57.5t-286.5 57.5t-207 159.5t-122.5 238.5t-42 298.5zM389 723q0 -226 89.5 -360t271.5 -134q93 0 163 37t112 104.5t62.5 155.5t20.5 197 q0 226 -96.5 351.5t-261.5 125.5q-167 0 -264 -125t-97 -352z" />
<glyph unicode="1" horiz-adv-x="1040" d="M4 1087q594 347 596 347h272v-1434h-299v1100l-423 -250z" />
<glyph unicode="2" horiz-adv-x="1286" d="M63 1311q8 6 23 16t67.5 36t110 45.5t149 35.5t187.5 16q268 0 413.5 -130.5t145.5 -342.5q0 -118 -35 -209t-99.5 -162.5t-178.5 -158.5l-268 -203h612v-254h-1086v233l453 332q148 110 191 152q91 86 109 187q5 31 5 67q0 98 -76 163.5t-206 65.5q-70 0 -136.5 -14 t-112 -34t-81 -39.5t-52.5 -33.5l-16 -14z" />
<glyph unicode="3" horiz-adv-x="1345" d="M41 162l127 235q7 -7 21 -18t60.5 -40t97 -51.5t129.5 -40.5t159 -18q147 0 234 48t87 133q0 200 -417 200v242q72 0 132 8t116 27t88 57t32 92q0 71 -70 117.5t-198 46.5q-67 0 -132.5 -14t-111.5 -34t-82 -39.5t-53 -33.5l-18 -14l-117 250q8 6 23 15.5t66.5 34.5 t107 44.5t142 35t175.5 15.5q264 0 414.5 -109t150.5 -282q0 -82 -20.5 -143t-59 -98.5t-84 -59t-104.5 -33.5q62 -6 115 -26.5t100.5 -60t74.5 -108.5t27 -161q0 -186 -164.5 -298t-453.5 -112q-101 0 -199.5 20t-167 48.5t-122 56.5t-79.5 48z" />
<glyph unicode="4" horiz-adv-x="1296" d="M53 279v217l453 923h315l-426 -887h389v371h291v-371h168v-253h-168v-279h-291v279h-731z" />
<glyph unicode="5" horiz-adv-x="1341" d="M51 121l123 233q7 -5 21.5 -14t61 -31t97 -39t128 -31t155.5 -14q336 0 336 211q0 119 -92.5 173.5t-251.5 54.5q-109 0 -226 -18t-179 -36l-62 -18l61 842h951v-254h-697l-26 -293q108 24 235 24q89 0 167.5 -12.5t155.5 -46t131.5 -85.5t88 -136.5t33.5 -194.5 q0 -224 -159 -346.5t-446 -122.5q-103 0 -203 16t-169.5 38.5t-124.5 45t-82 38.5z" />
<glyph unicode="6" horiz-adv-x="1372" d="M94 729q0 162 46 295.5t133.5 231t222.5 151t305 53.5q79 0 154 -12.5t125.5 -30t89 -34.5t56.5 -29l19 -13l-125 -237q-4 4 -12.5 10.5t-37.5 23t-61.5 29t-84 23t-105.5 10.5q-186 0 -297.5 -105t-130.5 -294q162 102 346 102q265 0 410 -122.5t145 -350.5 q0 -201 -152 -331t-392 -130q-138 0 -249 40t-186 109t-125 166t-72 207.5t-22 237.5zM397 575q25 -166 113.5 -256t237.5 -90q109 0 177 61.5t68 155.5q0 107 -68.5 167.5t-187.5 60.5q-176 0 -340 -99z" />
<glyph unicode="7" horiz-adv-x="1177" d="M37 1180v254h1100v-230l-529 -1204h-329l524 1180h-766z" />
<glyph unicode="8" horiz-adv-x="1406" d="M92 379q0 240 303 358q-254 102 -254 346q0 166 152 271.5t414 105.5q258 0 408.5 -105.5t150.5 -271.5q0 -226 -222 -325q273 -130 273 -369q0 -87 -33.5 -160.5t-103.5 -133t-190.5 -93t-282.5 -33.5q-132 0 -237.5 22t-175 59.5t-116 90t-66.5 111.5t-20 127zM389 410 q0 -83 80 -142t238 -59q157 0 234 61t77 150q0 49 -18 88t-47 64.5t-71.5 45t-83.5 30t-91 18.5q-46 -10 -81 -20t-83 -31t-78.5 -46.5t-53 -67t-22.5 -91.5zM438 1053q0 -37 11.5 -66.5t33.5 -49.5t43.5 -34t53 -23t50 -13t46.5 -8t31 -5q76 -13 86 -16q81 24 125.5 72.5 t44.5 138.5q0 77 -70 126.5t-186 49.5q-121 0 -195 -48t-74 -124z" />
<glyph unicode="9" horiz-adv-x="1374" d="M82 999q0 201 152 331t393 130q138 0 249 -40t185.5 -109t124.5 -166t72 -207.5t22 -237.5q0 -162 -46 -295.5t-133.5 -231t-222.5 -151t-305 -53.5q-79 0 -154 12.5t-125.5 30t-89 34.5t-56.5 30l-19 12l125 238q4 -4 12.5 -10.5t37.5 -23t61.5 -29.5t84 -23.5 t105.5 -10.5q185 0 296 104.5t130 293.5q-161 -101 -344 -101q-266 0 -410.5 122.5t-144.5 350.5zM381 983q0 -107 68.5 -167t187.5 -60q172 0 338 96q-25 167 -112.5 257.5t-235.5 90.5q-109 0 -177.5 -62t-68.5 -155z" />
<glyph unicode=":" horiz-adv-x="608" d="M123 143q0 72 53 124t129 52t128 -51.5t52 -124.5q0 -72 -52 -123t-128 -51t-129 51t-53 123zM123 815q0 72 52 123t128 51t129 -51t53 -123t-53 -123t-129 -51t-128 51t-52 123z" />
<glyph unicode=";" horiz-adv-x="632" d="M123 141q0 74 54 126t132 52q102 0 154.5 -62.5t52.5 -164.5q0 -79 -12.5 -146.5t-32 -113t-43.5 -81.5t-47.5 -56.5t-43 -34t-31.5 -18.5l-13 -4l-82 90q4 3 11.5 9t26 27.5t33 46t26 65.5t11.5 85v8q-2 -2 -10 -2q-78 0 -132 51t-54 123zM127 817q0 73 52 124.5 t128 51.5t129 -52t53 -124t-53 -123t-129 -51t-128 51t-52 123z" />
<glyph unicode="&#x3c;" horiz-adv-x="837" d="M80 401v254l645 373v-260l-418 -240l418 -239v-254z" />
<glyph unicode="=" horiz-adv-x="1107" d="M129 217v244h848v-244h-848zM129 688v244h848v-244h-848z" />
<glyph unicode="&#x3e;" horiz-adv-x="837" d="M113 35v254l415 239l-415 240v260l645 -373v-254z" />
<glyph unicode="?" horiz-adv-x="1198" d="M57 1294q8 7 24 18t69 39.5t111 50.5t147.5 40t181.5 18q247 0 384.5 -122t137.5 -320q0 -70 -23 -134.5t-59.5 -111.5t-81 -87.5t-89 -67t-81 -45t-59.5 -26.5l-23 -9v-117h-258v264q8 2 21.5 5.5t52.5 17.5t75 30.5t79.5 45t74.5 61t52.5 78t21.5 96.5 q0 81 -61.5 133.5t-163.5 52.5q-69 0 -136.5 -14t-115 -34t-85.5 -40.5t-57 -34.5l-18 -14zM379 143q0 73 52 124.5t128 51.5t129 -52t53 -124t-53 -123t-129 -51t-128 51t-52 123z" />
<glyph unicode="@" horiz-adv-x="2183" d="M90 516q0 209 72.5 385t204.5 300.5t324 194.5t423 70q301 0 529.5 -114t351.5 -318t123 -467q0 -148 -45.5 -261.5t-125.5 -181.5t-182 -102t-223 -34q-90 0 -140.5 29.5t-70.5 91.5v2q-20 -23 -45.5 -44.5t-66 -45t-98.5 -38t-124 -14.5q-217 0 -335.5 144t-118.5 372 q0 224 153.5 363t411.5 139q89 0 171 -17.5t135.5 -42.5t94.5 -50t59 -43l19 -17v-559q0 -32 11.5 -43.5t39.5 -11.5q112 2 168 86.5t56 277.5q0 206 -94.5 359.5t-263.5 234t-390 80.5q-344 0 -552 -195.5t-208 -529.5q0 -505 410 -745l-127 -205q-140 65 -246.5 168.5 t-171 229.5t-97 265t-32.5 287zM813 481q0 -141 68 -212.5t200 -71.5q144 0 242 112v396q-88 57 -227 57q-127 0 -205 -76t-78 -205z" />
<glyph unicode="A" horiz-adv-x="1497" d="M18 0l572 1434h317l572 -1434h-308l-122 319h-603l-120 -319h-308zM535 557h426l-213 557z" />
<glyph unicode="B" horiz-adv-x="1449" d="M168 0v1434h666q236 0 349 -98t113 -265q0 -269 -233 -338q163 -29 234 -113.5t71 -238.5q0 -179 -139 -280t-369 -101h-692zM457 254h393q229 0 229 174q0 95 -66 140.5t-184 45.5h-372v-360zM457 829h356q81 0 136 48.5t55 140.5q0 73 -51 117.5t-146 44.5h-350v-351z " />
<glyph unicode="C" horiz-adv-x="1552" d="M88 729q0 336 207.5 533.5t589.5 197.5q108 0 205.5 -14t159 -34t107 -39.5t65.5 -33.5l20 -14l-113 -246q-5 5 -16 13.5t-51 30t-86.5 38t-125 30t-165.5 13.5q-224 0 -362 -129.5t-138 -345.5q0 -108 30.5 -198.5t91 -159.5t160 -107.5t228.5 -38.5q90 0 179.5 17.5 t153 42.5t114 50t75.5 43l25 17l78 -245q-9 -7 -26 -19.5t-77 -43.5t-128 -55t-177.5 -43.5t-226.5 -19.5q-168 0 -303 39.5t-226.5 109t-152.5 166.5t-88 207.5t-27 237.5z" />
<glyph unicode="D" horiz-adv-x="1599" d="M168 0v1434h567q376 0 575 -185.5t199 -539.5q0 -348 -205 -528.5t-569 -180.5h-567zM457 254h245h9q250 0 378 108q130 110 130 347q0 243 -131 357t-394 114h-237v-926z" />
<glyph unicode="E" horiz-adv-x="1406" d="M168 0v1434h1147v-254h-858v-351h682v-233h-682v-342h858v-254h-1147z" />
<glyph unicode="F" horiz-adv-x="1351" d="M168 0v1434h1147v-254h-858v-371h682v-234h-682v-575h-289z" />
<glyph unicode="G" horiz-adv-x="1595" d="M88 729q0 336 207.5 533.5t589.5 197.5q108 0 205.5 -14t159 -34t107 -39.5t65.5 -33.5l20 -14l-113 -248q-5 5 -16 13.5t-51 30.5t-86.5 39t-125 30.5t-165.5 13.5q-224 0 -362 -129.5t-138 -345.5q0 -108 30.5 -198.5t91 -159.5t160 -107.5t228.5 -38.5q159 0 319 62 v254h-438v223h713v-614q-8 -7 -24.5 -19.5t-73.5 -43.5t-121.5 -55t-168.5 -43.5t-216 -19.5q-168 0 -303 39.5t-226.5 109t-152.5 166.5t-88 207.5t-27 237.5z" />
<glyph unicode="H" horiz-adv-x="1613" d="M168 0v1434h289v-609h700v609h289v-1434h-289v571h-700v-571h-289z" />
<glyph unicode="I" horiz-adv-x="624" d="M168 0v1434h289v-1434h-289z" />
<glyph unicode="J" horiz-adv-x="634" d="M59 47q5 4 14 12.5t31.5 37.5t40 62t31.5 86t14 109v1080h289v-1076q0 -71 -14 -133.5t-36 -105.5t-48.5 -79t-53 -57.5t-48.5 -36.5t-36 -20l-14 -6z" />
<glyph unicode="K" horiz-adv-x="1525" d="M168 0v1434h289v-660h211q134 0 210.5 61.5t112 204t35.5 394.5h289q0 -335 -70.5 -541.5t-236.5 -296.5l190 -305q30 -46 63 -62t76 -16q27 0 58 7.5t48 15.5l17 8l68 -178q-4 -3 -12 -8.5t-34.5 -19t-55 -23.5t-73 -18.5t-89.5 -8.5q-121 0 -200 56.5t-146 168.5 l-185 307q-23 -2 -71 -2h-205v-518h-289z" />
<glyph unicode="L" horiz-adv-x="1271" d="M168 0v1434h289v-1180h805v-254h-1094z" />
<glyph unicode="M" horiz-adv-x="1802" d="M168 0v1434h260l477 -998l469 998h260v-1434h-286v801l-359 -801h-176l-356 801v-801h-289z" />
<glyph unicode="N" horiz-adv-x="1593" d="M168 0v1434h233l736 -947v947h288v-1434h-229l-739 920v-920h-289z" />
<glyph unicode="O" horiz-adv-x="1742" d="M86 719q0 164 54 300.5t153.5 234t248 152t330.5 54.5t330 -54.5t248 -152t154.5 -234t54.5 -300.5q0 -123 -30 -233.5t-93 -205.5t-154.5 -164t-222 -108t-287.5 -39q-158 0 -289 39t-222 108t-153.5 164t-92 205t-29.5 234zM377 719q0 -103 29 -190.5t87.5 -156.5 t155 -108t223.5 -39q125 0 221.5 39t155 108t88 156.5t29.5 190.5q0 219 -133 352t-361 133q-229 0 -362 -133t-133 -352z" />
<glyph unicode="P" horiz-adv-x="1476" d="M168 0v1434h655q284 0 441 -132.5t157 -396.5q0 -254 -157 -382t-441 -128h-366v-395h-289zM457 649h366q154 0 229.5 63t75.5 193q0 142 -74.5 208.5t-230.5 66.5h-366v-531z" />
<glyph unicode="Q" horiz-adv-x="1746" d="M88 719q0 164 54 300.5t153.5 234t248 152t330.5 54.5t330 -54.5t248 -152t154.5 -234t54.5 -300.5q0 -113 -25 -215.5t-78 -192.5t-130 -159t-186 -115t-241 -60q9 -158 95 -220t264 -62v-260q-150 0 -261 28.5t-193.5 91.5t-126.5 169t-48 256q-161 19 -285.5 85.5 t-201.5 166t-116.5 223t-39.5 264.5zM379 719q0 -103 29 -190.5t87.5 -156.5t155 -108t223.5 -39q125 0 221.5 39t155 108t88 156.5t29.5 190.5q0 219 -133 352t-361 133q-229 0 -362 -133t-133 -352z" />
<glyph unicode="R" horiz-adv-x="1511" d="M168 0v1434h580q283 0 426 -119.5t143 -351.5q0 -309 -256 -418l129 -254q24 -44 53 -61t72 -17q26 0 57 7.5t48 15.5l18 8l78 -178q-4 -3 -11.5 -8.5t-33.5 -19t-55 -23.5t-74 -18.5t-91 -8.5q-136 0 -209 51.5t-133 173.5l-135 274q-36 -4 -63 -4h-254v-483h-289z M457 729h260q162 0 236.5 57.5t74.5 176.5q0 217 -260 217h-311v-451z" />
<glyph unicode="S" horiz-adv-x="1423" d="M63 174l127 227q8 -7 22.5 -19t65.5 -42.5t108 -53.5t147.5 -42t185.5 -19q151 0 234 44.5t83 123.5q0 52 -27 82t-95.5 53.5t-208.5 49.5q-78 14 -137 26.5t-124.5 32.5t-112.5 43t-92 56.5t-72.5 74t-44 94.5t-16.5 123q0 86 38 163q38 78 112 138.5t192.5 95.5 t266.5 35q108 0 210.5 -14.5t172 -36t124 -42.5t80.5 -35l25 -15l-102 -248q-7 5 -21 14t-62.5 31.5t-103 40t-142 31.5t-179.5 14q-155 0 -231 -44t-76 -116q0 -42 25 -74t76.5 -54t107.5 -36.5t139 -29.5q122 -22 210 -46t162 -59t118 -81.5t68.5 -110.5t24.5 -148 q-1 -193 -161 -313q-159 -119 -456 -119h-5q-134 1 -250.5 22t-187.5 51t-123 60t-74 51z" />
<glyph unicode="T" horiz-adv-x="1456" d="M14 1184v250h1428v-250h-574v-1184h-288v1184h-566z" />
<glyph unicode="U" horiz-adv-x="1560" d="M154 606v828h286v-838q0 -202 79.5 -289.5t258.5 -87.5q181 0 261.5 86.5t80.5 290.5v838h289v-828q0 -174 -36.5 -295t-116 -196.5t-195.5 -109.5t-283 -36q-163 1 -278 35t-193.5 109.5t-115.5 197t-37 295.5z" />
<glyph unicode="V" horiz-adv-x="1568" d="M14 1434h346l422 -1102l430 1102h342l-600 -1434h-340z" />
<glyph unicode="W" horiz-adv-x="2328" d="M29 1434h342l323 -1074l324 1074h293l321 -1074l326 1074h342l-498 -1434h-340l-297 956l-299 -956h-340z" />
<glyph unicode="X" horiz-adv-x="1523" d="M10 0l553 715l-553 719h359l401 -531l393 531h353l-555 -727l555 -707h-359l-401 522l-394 -522h-352z" />
<glyph unicode="Y" horiz-adv-x="1536" d="M18 1434h342l408 -625l412 625h338l-607 -910v-524h-288v526z" />
<glyph unicode="Z" horiz-adv-x="1345" d="M90 0v233l787 947h-787v254h1165v-228l-784 -950h784v-256h-1165z" />
<glyph unicode="[" horiz-adv-x="782" d="M154 -608v2179h569v-238h-317v-1704h317v-237h-569z" />
<glyph unicode="\" horiz-adv-x="940" d="M57 1434h260l566 -1942h-260z" />
<glyph unicode="]" horiz-adv-x="782" d="M61 -371h316v1704h-316v238h570v-2179h-570v237z" />
<glyph unicode="^" horiz-adv-x="1103" d="M94 1051l326 542h280l306 -544h-211l-236 370l-254 -368h-211z" />
<glyph unicode="_" horiz-adv-x="1064" d="M129 -10h809v-185h-809v185z" />
<glyph unicode="`" horiz-adv-x="608" d="M37 1538h321l185 -418h-248z" />
<glyph unicode="a" d="M59 242q0 126 127.5 199t401.5 73q83 0 141 -12v96q0 90 -55 127t-189 37q-76 0 -154.5 -14t-119.5 -28l-41 -15l-47 219q21 7 58.5 17.5t149.5 28t220 17.5q224 0 336 -86t112 -248v-389q0 -34 11.5 -47.5t40.5 -13.5q17 0 42 5.5t41 11.5l17 5l37 -168 q-11 -8 -31 -19.5t-81 -30.5t-122 -19q-89 0 -139.5 29t-69.5 92q-152 -140 -352 -140q-151 0 -242.5 70t-91.5 203zM332 264q0 -45 40 -68.5t105 -23.5q147 0 252 76v114q-69 11 -131 11q-266 0 -266 -109z" />
<glyph unicode="b" horiz-adv-x="1247" d="M127 139v1325l270 72v-672q123 123 314 123q222 0 341 -143.5t119 -372.5q0 -224 -153.5 -363t-411.5 -139q-51 0 -100 6t-88.5 15.5t-76 22.5t-65 27t-53 28t-42 27t-29.5 22.5t-18 15.5zM391 246q90 -56 227 -56q129 0 206 75t77 210q0 291 -268 291q-147 0 -242 -100 v-420z" />
<glyph unicode="c" horiz-adv-x="1093" d="M76 481q0 105 34 195t100 160.5t172.5 110.5t242.5 40q72 0 137.5 -9.5t108 -23t74.5 -27t47 -23.5l14 -9l-95 -213q-3 3 -10 7.5t-31 16.5t-52 21.5t-74.5 17t-96.5 7.5q-143 0 -219 -76t-76 -193q0 -121 77.5 -199.5t215.5 -78.5q58 1 112 12.5t89.5 28.5t62.5 33.5 t39 28.5l13 11l90 -210q-6 -6 -18 -15.5t-54 -33.5t-89 -42.5t-122 -33.5t-154 -15q-254 0 -396 139t-142 373z" />
<glyph unicode="d" horiz-adv-x="1325" d="M78 485q0 225 142 363.5t376 138.5q147 0 260 -65v542l270 72v-1272q0 -34 11.5 -47.5t40.5 -13.5q18 0 43 5.5t41 11.5l16 5l37 -168q-11 -8 -31 -19.5t-81 -30.5t-122 -19q-90 0 -139.5 29.5t-71.5 93.5q-125 -142 -333 -142q-146 0 -251.5 68.5t-156.5 183.5t-51 264z M348 487q0 -292 273 -292q140 0 241 106v389q-88 72 -227 72q-130 0 -208.5 -72.5t-78.5 -202.5z" />
<glyph unicode="e" horiz-adv-x="1159" d="M76 481q0 105 33 195t97.5 160.5t168.5 110.5t237 40q102 0 185.5 -29t137 -74t90 -103t52 -113.5t15.5 -108.5q0 -39 -5 -75t-11 -52l-5 -16h-727q18 -104 92.5 -165t204.5 -61q58 0 112.5 9.5t91.5 23t65 26.5t42 23l13 9l79 -172q-7 -6 -19.5 -15.5t-55 -33.5 t-88 -42.5t-116 -33.5t-142.5 -15q-135 0 -241.5 41t-172 112t-99.5 162.5t-34 196.5zM342 563h502v10q-3 96 -62 152.5t-172 56.5q-114 0 -182 -58.5t-86 -160.5z" />
<glyph unicode="f" horiz-adv-x="854" d="M43 729l41 229h131v166q0 217 104 315.5t299 98.5q72 0 138 -15t96 -31l31 -15l-78 -213q-58 30 -158 30q-82 0 -122 -43t-40 -133v-160h336v-229h-336v-729h-270v729h-172z" />
<glyph unicode="g" horiz-adv-x="1173" d="M61 -264q0 158 197 231q-98 50 -98 148q0 93 127 151q-104 49 -158.5 133t-54.5 193q0 80 30.5 149.5t91.5 125.5t165 88t241 32q94 0 182 -20q68 13 99.5 100.5t31.5 255.5h252q0 -163 -53.5 -273.5t-155.5 -160.5q154 -110 154 -297q0 -175 -133 -281t-373 -106h-55 q-13 0 -32.5 -2.5t-48 -9.5t-48 -23t-19.5 -39q0 -35 48 -47t147 -12q541 0 541 -316q0 -150 -135.5 -236.5t-401.5 -86.5q-263 0 -402 82t-139 221zM334 -246q0 -131 268 -131q264 0 264 127q0 131 -268 131q-80 0 -154 6q-110 -39 -110 -133zM346 580q0 -88 65 -136.5 t193 -48.5q114 0 175 49t61 136q0 83 -61.5 136.5t-178.5 53.5q-127 0 -190.5 -53t-63.5 -137z" />
<glyph unicode="h" horiz-adv-x="1284" d="M135 0v1464l271 72v-696q18 19 43.5 39.5t69 47t104 43.5t125.5 17q172 0 261 -95t89 -271v-357q0 -34 11 -47.5t40 -13.5q18 0 43 5.5t41 11.5l16 5l37 -168q-11 -8 -30.5 -19.5t-80.5 -30.5t-122 -19q-124 0 -175 58t-51 181v316q0 110 -41 156t-131 46 q-131 0 -249 -106v-639h-271z" />
<glyph unicode="i" horiz-adv-x="538" d="M100 1276q0 71 47.5 115.5t122.5 44.5q74 0 121 -45t47 -115t-47 -115t-121 -45q-75 0 -122.5 44.5t-47.5 115.5zM135 0v958h271v-958h-271z" />
<glyph unicode="j" horiz-adv-x="540" d="M2 -428q5 4 14 12.5t32 37.5t40.5 62t32 86t14.5 109v1079h271v-1075q0 -71 -14 -133.5t-36 -105.5t-48.5 -79t-53 -57.5t-48.5 -36.5t-36 -21l-14 -5zM102 1276q0 71 47.5 115.5t122.5 44.5t121.5 -44.5t46.5 -115.5t-46.5 -115.5t-121.5 -44.5t-122.5 44.5t-47.5 115.5 z" />
<glyph unicode="k" horiz-adv-x="1265" d="M135 0v1464l271 72v-977h153q126 0 189 94.5t63 304.5h270q0 -404 -215 -544l105 -150q26 -37 50.5 -49t57.5 -12q25 0 55 7.5t47 15.5l17 7l57 -165q-4 -3 -10.5 -8.5t-30 -19.5t-49.5 -24.5t-66.5 -19t-82.5 -8.5q-111 0 -179.5 53t-131.5 160l-93 145q-6 0 -16.5 -1 t-15.5 -1h-174v-344h-271z" />
<glyph unicode="l" horiz-adv-x="634" d="M131 227v1237l270 72v-1266q0 -38 14 -52.5t48 -14.5q24 0 59.5 6t58.5 12l23 6l37 -172q-13 -8 -36.5 -19t-96.5 -29.5t-146 -18.5q-128 0 -179.5 58t-51.5 181z" />
<glyph unicode="m" horiz-adv-x="1945" d="M131 0v907l270 72v-139q18 19 43.5 39.5t69 47t104 43.5t125.5 17q231 0 310 -168q11 16 36 39.5t69.5 54.5t111 52.5t139.5 21.5q172 0 261 -95t89 -271v-357q0 -34 12 -47.5t41 -13.5q17 0 42.5 5.5t41.5 11.5l17 5l35 -168q-11 -8 -30.5 -19.5t-80 -30.5t-121.5 -19 q-125 0 -176 58t-51 181v316q0 110 -40 156t-130 46q-117 0 -229 -88q4 -28 4 -45v-612h-271v543q0 110 -41 156t-131 46q-132 0 -250 -106v-639h-270z" />
<glyph unicode="n" horiz-adv-x="1280" d="M131 0v907l270 72v-139q18 19 43.5 39.5t69 47t104 43.5t125.5 17q172 0 261.5 -95t89.5 -271v-357q0 -34 11 -47.5t40 -13.5q18 0 43 5.5t41 11.5l16 5l37 -168q-11 -8 -30.5 -19.5t-80.5 -30.5t-122 -19q-124 0 -175 58t-51 181v316q0 107 -41 152.5t-131 45.5 q-131 0 -250 -102v-639h-270z" />
<glyph unicode="o" horiz-adv-x="1249" d="M76 475q0 106 35 198t101.5 162.5t172.5 111t240 40.5q133 0 239 -40.5t173 -111t102 -162.5t35 -198q0 -103 -35.5 -194t-102.5 -161t-173 -110.5t-238 -40.5q-133 0 -239 40.5t-173 110.5t-102 161t-35 194zM346 477q0 -126 73 -204t206 -78q131 0 204.5 78.5 t73.5 203.5q0 124 -71.5 203.5t-206.5 79.5q-137 0 -208 -79t-71 -204z" />
<glyph unicode="p" horiz-adv-x="1257" d="M131 -539v1446l270 72v-123q43 53 122 92t198 39q147 0 252 -67t156 -182.5t51 -266.5q0 -231 -138.5 -366.5t-369.5 -135.5q-156 0 -271 66v-574h-270zM393 264q93 -69 238 -69q128 0 203 71t75 203q0 293 -272 293q-145 0 -244 -109v-389z" />
<glyph unicode="q" horiz-adv-x="1245" d="M76 485q0 224 153.5 363t411.5 139q65 0 126 -9.5t107.5 -24.5t87.5 -33t69.5 -36t48 -33t29.5 -24.5t9 -9.5v-1356h-270v627q-119 -119 -311 -119q-220 0 -340.5 144t-120.5 372zM346 481q0 -291 268 -291q138 0 242 99v420q-82 57 -227 57q-129 0 -206 -75t-77 -210z " />
<glyph unicode="r" horiz-adv-x="884" d="M131 0v907l270 72v-184q17 26 40.5 52t64 61t96 57t115.5 22q50 0 90.5 -10.5t56.5 -20.5l15 -10l-74 -233q-41 28 -143 28q-138 0 -261 -157v-584h-270z" />
<glyph unicode="s" horiz-adv-x="1089" d="M61 94l84 191q6 -4 17.5 -11t49.5 -25t80.5 -31.5t108.5 -24.5t134 -11q89 0 138.5 23t49.5 63q0 27 -14.5 45.5t-45 30t-63 18t-81.5 14.5l-21 3q-40 7 -61 11t-61 13t-62.5 16.5t-56.5 21.5t-54 28.5t-43.5 36t-36 46t-21 57t-8.5 69.5q0 58 27 111t82 98.5t152 72.5 t223 27q116 0 219.5 -20.5t148.5 -40.5l45 -21l-69 -219q-5 3 -14 8.5t-40 19.5t-66.5 24.5t-91.5 19t-116 8.5q-101 0 -153 -27.5t-52 -74.5q0 -26 12.5 -44t48.5 -30t57 -16.5t81 -13.5q20 -3 30 -5q47 -8 78.5 -14t77 -18.5t76.5 -26t65.5 -36t55 -49t34 -64.5t13.5 -83 q0 -135 -120.5 -215t-348.5 -80q-92 0 -176.5 13t-138.5 31.5t-95 36.5t-59 31z" />
<glyph unicode="t" horiz-adv-x="915" d="M41 729l41 232h131v217l270 71v-288h342v-232h-342v-369q0 -78 34 -112.5t110 -34.5q53 0 100 12.5t67 25.5l21 13l76 -213q-5 -3 -14.5 -8.5t-40.5 -20t-64.5 -25t-86 -19.5t-105.5 -9q-367 0 -367 353v407h-172z" />
<glyph unicode="u" horiz-adv-x="1282" d="M121 336v592l270 45v-561q0 -109 40.5 -155t129.5 -46q138 0 252 92v604l270 72v-715q0 -34 11.5 -47.5t40.5 -13.5q18 0 43 5.5t41 11.5l16 5l37 -168q-11 -8 -31 -19.5t-81 -30.5t-122 -19q-91 0 -142 31t-71 98q-154 -148 -354 -148q-172 0 -261 95.5t-89 271.5z" />
<glyph unicode="v" horiz-adv-x="1198" d="M25 958h313l260 -686l260 686h316l-424 -958h-301z" />
<glyph unicode="w" horiz-adv-x="1716" d="M35 958h293l209 -694l190 694h254l197 -698l211 698h292l-352 -958h-311l-164 563l-156 -563h-313z" />
<glyph unicode="x" d="M29 0l377 469l-377 489h329l232 -325l237 325h332l-387 -475l387 -483h-330l-235 315l-236 -315h-329z" />
<glyph unicode="y" horiz-adv-x="1169" d="M27 958h297l266 -677l256 677h299l-643 -1497h-271l238 539h-35z" />
<glyph unicode="z" horiz-adv-x="1132" d="M92 0v205l582 524h-582v229h950v-194l-579 -533h579v-231h-950z" />
<glyph unicode="{" horiz-adv-x="749" d="M63 369v233h31q51 0 87 30.5t36 98.5v363q0 127 35.5 216t101 137t144 68.5t180.5 20.5v-238q-99 0 -154 -53.5t-55 -159.5v-417q0 -46 -13.5 -81.5t-34.5 -54t-36.5 -27t-28.5 -11.5q13 -3 28 -12t36.5 -27.5t35 -54t13.5 -81.5v-448q0 -115 53.5 -164t155.5 -49v-238 q-80 0 -145.5 12t-126 42.5t-101 79.5t-64.5 126t-24 179v383q0 67 -35.5 97t-87.5 30h-31z" />
<glyph unicode="|" horiz-adv-x="557" d="M154 -608v2173h249v-2173h-249z" />
<glyph unicode="}" horiz-adv-x="749" d="M74 -342q102 0 155.5 49t53.5 164v448q0 46 13 81.5t33 54t35.5 27.5t28.5 12q-14 3 -29.5 11.5t-35 27t-32.5 54t-13 81.5v417q0 106 -55 159.5t-154 53.5v238q102 0 180.5 -20.5t144 -68.5t101 -137t35.5 -216v-363q0 -67 35 -98t85 -31h31v-233h-31q-50 0 -85 -30 t-35 -97v-383q0 -102 -24 -179t-64.5 -126t-101 -79.5t-126 -42.5t-145.5 -12v238z" />
<glyph unicode="~" horiz-adv-x="1089" d="M100 672q3 7 10 19t33 42.5t57 53.5t84 42t113 19q51 0 99.5 -17.5t79 -39t66 -39t63.5 -17.5q39 0 73.5 26.5t49.5 52.5l14 26l151 -88q-3 -8 -10 -22t-33 -49.5t-56.5 -62.5t-82.5 -49t-111 -22q-49 0 -93 17.5t-72 38.5t-65 38.5t-73 17.5q-27 0 -53 -10.5 t-44.5 -25.5t-33 -30t-21.5 -25l-7 -11z" />
<glyph unicode="&#xa1;" horiz-adv-x="569" d="M104 811q0 72 53.5 123t129.5 51t128 -51t52 -123t-52 -123t-128 -51t-129.5 51t-53.5 123zM121 -479l47 987h231l47 -987h-325z" />
<glyph unicode="&#xa2;" horiz-adv-x="1101" d="M63 481q0 105 34 195t100 160.5t172.5 110.5t242.5 40q71 0 136.5 -9.5t108 -23t75 -27t46.5 -23.5l15 -9l-94 -213q-3 3 -10 7.5t-31 16.5t-52 21.5t-74.5 17t-96.5 7.5q-143 0 -219 -76t-76 -193q0 -121 77.5 -199.5t215.5 -78.5q58 1 111.5 12.5t89 28.5t62.5 33.5 t40 28.5l12 11l90 -210q-6 -6 -18 -15.5t-54 -33.5t-88.5 -42.5t-121.5 -33.5t-154 -15q-255 0 -397 139t-142 373zM514 -541l37 404h172l37 -404h-246zM514 1479h246l-37 -404h-172z" />
<glyph unicode="&#xa3;" horiz-adv-x="1306" d="M86 496v217h158q-34 60 -49.5 91.5t-33.5 96.5t-18 131q0 89 36 166.5t103.5 136t172.5 92t235 33.5q92 0 179.5 -14.5t146.5 -36t105 -42.5t67 -35l22 -15l-114 -236q-6 5 -16.5 13.5t-47 29.5t-78 37t-107.5 29.5t-136 13.5q-133 0 -199 -58t-66 -145q0 -54 17 -112 t31 -86t47 -90h460v-217h-362q2 -10 2 -35q0 -49 -23 -97.5t-43.5 -71.5t-39.5 -38h686v-254h-1028v254q5 3 18.5 11t39 28.5t47 43.5t38 57t16.5 67q0 15 -4 35h-262z" />
<glyph unicode="&#xa5;" horiz-adv-x="1597" d="M49 1434h342l408 -625l411 625h338l-467 -701h303v-170h-417l-25 -39v-84h344v-170h-344v-270h-287v270h-364v170h364v86l-24 37h-418v170h303z" />
<glyph unicode="&#xa6;" horiz-adv-x="565" d="M158 334h250v-942h-250v942zM158 688v877h250v-877h-250z" />
<glyph unicode="&#xa7;" horiz-adv-x="1454" d="M80 -406l127 228q8 -7 22.5 -19t65 -42.5t107 -53.5t146.5 -42t185 -19q153 0 236.5 44.5t83.5 123.5q0 52 -27 82.5t-96 53.5t-209 48q-78 14 -137 26.5t-124.5 32.5t-112.5 43t-91.5 56.5t-72.5 74t-45 94.5t-17 119q0 174 135 291q-135 104 -135 289q0 89 38.5 166.5 t112 138.5t192 96t267.5 35q107 0 209.5 -14.5t172.5 -36t124 -42.5t80 -35l26 -15l-102 -248q-7 5 -21 14t-62.5 31.5t-103 40t-142 31.5t-179.5 14q-156 0 -231.5 -44t-75.5 -116q0 -42 25 -74.5t75.5 -54.5t108 -36.5t139.5 -28.5q155 -28 256 -60t178.5 -83 t112.5 -124.5t35 -177.5q0 -177 -131 -290q131 -98 131 -289q0 -194 -161 -313.5t-462 -118.5q-97 0 -185.5 11.5t-152 29t-118.5 39.5t-90 44t-60 39.5t-36 28.5zM426 461q0 -41 23 -72.5t70 -53.5t102 -37.5t135 -29.5q73 -11 108 -22q91 15 140 52.5t49 94.5 q0 74 -63 109.5t-259 72.5q-42 6 -121 25q-94 -13 -139 -50t-45 -89z" />
<glyph unicode="&#xa8;" horiz-adv-x="835" d="M41 1247q0 62 46.5 108t113.5 46q65 0 112 -46t47 -108q0 -63 -46.5 -108t-112.5 -45q-67 0 -113.5 45t-46.5 108zM471 1247q0 62 47 108t113 46t113 -46t47 -108q0 -63 -47 -108t-113 -45t-113 45t-47 108z" />
<glyph unicode="&#xa9;" horiz-adv-x="1495" d="M100 877q0 134 41 247.5t120 199.5t205 134.5t286 48.5q158 0 282.5 -49t202.5 -135t118 -199.5t40 -246.5q0 -105 -24 -200.5t-76 -178.5t-126.5 -143.5t-181 -95t-235.5 -34.5q-161 0 -288 52.5t-205 143.5t-118.5 207t-40.5 249zM254 877q0 -108 31 -199.5t91.5 -161 t156.5 -108.5t219 -39q99 0 180.5 26.5t138 73t95.5 110.5t57 139t18 159q0 213 -130 348t-359 135q-230 0 -364 -133t-134 -350zM379 870q0 166 98.5 266.5t276.5 100.5q78 0 147 -21t99 -42l30 -21l-74 -125q-8 7 -24 17.5t-69 28.5t-109 18q-213 0 -213 -222 q0 -100 53 -166.5t160 -66.5q45 0 86.5 8.5t68.5 21t48 25t31 20.5l9 9l76 -119q-5 -4 -15 -11.5t-42.5 -26.5t-67.5 -33.5t-88 -26.5t-106 -12q-125 0 -211.5 52.5t-125 136t-38.5 189.5z" />
<glyph unicode="&#xaa;" horiz-adv-x="815" d="M129 750v127h553v-127h-553zM137 1087q0 76 63.5 113t205.5 37q43 0 83 -4v37q0 39 -24.5 55t-93.5 16q-46 0 -87 -6.5t-59 -12.5l-18 -7l-35 106q9 4 25 10.5t68 17.5t108 11q241 0 241 -178v-184q0 -35 29 -35q11 0 23 2.5t18 4.5l6 3l12 -90q-45 -22 -102 -22 q-85 0 -102 55l-2 2q-64 -68 -172 -68q-92 0 -139.5 38t-47.5 99zM258 1098q0 -45 76 -45q84 0 155 49v45q-35 6 -81 6q-84 0 -117 -13t-33 -42z" />
<glyph unicode="&#xab;" horiz-adv-x="1222" d="M86 354v181l430 391l141 -140l-323 -342l325 -340l-143 -139zM565 354v181l432 391l142 -140l-324 -342l326 -340l-144 -139z" />
<glyph unicode="&#xac;" horiz-adv-x="1161" d="M129 465v203h893v-478h-215v275h-678z" />
<glyph unicode="&#xad;" horiz-adv-x="864" d="M129 455v243h608v-243h-608z" />
<glyph unicode="&#xae;" horiz-adv-x="1495" d="M100 877q0 134 41 247.5t120 199.5t205 134.5t286 48.5q158 0 282.5 -49t202.5 -135t118 -199.5t40 -246.5q0 -105 -24 -200.5t-76 -178.5t-126.5 -143.5t-181 -95t-235.5 -34.5q-161 0 -288 52.5t-205 143.5t-118.5 207t-40.5 249zM254 877q0 -108 31 -199.5t91.5 -161 t156.5 -108.5t219 -39q99 0 180.5 26.5t138 73t95.5 110.5t57 139t18 159q0 213 -130 348t-359 135q-230 0 -364 -133t-134 -350zM473 510v717h281q272 0 272 -221q0 -158 -125 -209l72 -131q19 -41 65 -41q17 0 31.5 4t20.5 8l6 4l32 -104q-44 -33 -110 -33 q-64 0 -107 20.5t-69 71.5l-90 172h-123v-258h-156zM629 905h100q73 0 105 22t32 74q0 89 -112 89h-125v-185z" />
<glyph unicode="&#xaf;" horiz-adv-x="563" d="M63 1122v203h453v-203h-453z" />
<glyph unicode="&#xb0;" horiz-adv-x="831" d="M94 1264q0 140 85.5 224.5t238.5 84.5q151 0 235 -84t84 -225q0 -142 -84.5 -229t-234.5 -87q-151 0 -237.5 87t-86.5 229zM264 1264q0 -73 41 -116.5t113 -43.5q71 0 111 43.5t40 116.5q0 68 -40.5 106.5t-110.5 38.5q-72 0 -113 -38.5t-41 -106.5z" />
<glyph unicode="&#xb1;" horiz-adv-x="1007" d="M131 119v203h743v-203h-743zM131 643v205h277l2 276l204 -2l-2 -274h262v-205h-262v-250l-204 2v248h-277z" />
<glyph unicode="&#xb2;" horiz-adv-x="823" d="M100 1368q5 4 14 10t38.5 22t61 28t80 22t97.5 10q142 0 222.5 -67t80.5 -174q0 -48 -12.5 -87t-41 -73.5t-53.5 -57t-71 -57.5l-72 -53h248v-162h-555v125l213 156q10 7 38 27t39.5 28.5t32 27t29 32t16 33t7.5 40.5q0 39 -34 63.5t-97 24.5q-62 0 -117 -17t-80 -33 l-24 -17z" />
<glyph unicode="&#xb3;" horiz-adv-x="802" d="M90 823l66 133l9 -9t27.5 -20.5t46 -25.5t63.5 -20t81 -9q143 0 143 64q0 26 -17 43.5t-50 26t-68 11.5t-82 3v149q43 0 70 2t58.5 8.5t47 22.5t15.5 41q0 57 -121 57q-55 0 -106 -17t-75 -33l-24 -17l-59 135q4 4 12.5 10t36 22t57 28t74.5 22t90 10q134 0 213.5 -52.5 t79.5 -133.5q0 -150 -150 -176q80 -10 128.5 -50.5t48.5 -127.5q0 -93 -86 -150t-230 -57q-52 0 -102 11.5t-84 27.5t-60.5 32t-39.5 28z" />
<glyph unicode="&#xb4;" horiz-adv-x="667" d="M80 1120l184 418h322l-258 -418h-248z" />
<glyph unicode="&#xb5;" horiz-adv-x="1196" d="M139 -539v1504h271v-551q0 -111 40.5 -157t129.5 -46q137 0 251 92v604l271 72v-979h-271v98q-143 -129 -321 -129q-64 0 -100 19v-527h-271z" />
<glyph unicode="&#xb6;" horiz-adv-x="1615" d="M68 952q0 243 143 362.5t405 119.5h322v-1434h-289v467h-33q-262 0 -405 121t-143 364zM1155 0v1434h287v-1434h-287z" />
<glyph unicode="&#xb7;" horiz-adv-x="602" d="M111 641q0 77 54.5 130.5t135.5 53.5q79 0 135 -53.5t56 -130.5q0 -75 -56 -128.5t-135 -53.5q-81 0 -135.5 53t-54.5 129z" />
<glyph unicode="&#xb8;" horiz-adv-x="509" d="M63 -340l43 100q43 -32 127 -32q72 0 72 43q0 57 -178 57l63 174h140l-35 -84q62 -3 105.5 -39t43.5 -108q0 -74 -53.5 -119t-148.5 -45q-47 0 -92 13.5t-66 26.5z" />
<glyph unicode="&#xb9;" horiz-adv-x="702" d="M41 1243q340 203 342 203h178v-717h-178v537l-264 -154z" />
<glyph unicode="&#xba;" horiz-adv-x="821" d="M133 750v127h553v-127h-553zM143 1202q0 112 67.5 185t199.5 73q133 0 201.5 -73t68.5 -185q0 -109 -71 -180.5t-197 -71.5t-197.5 71.5t-71.5 180.5zM268 1202q0 -59 36.5 -95t107.5 -36q70 0 105.5 35.5t35.5 95.5q0 61 -35 99t-108 38q-71 0 -106.5 -38t-35.5 -99z " />
<glyph unicode="&#xbb;" horiz-adv-x="1222" d="M84 104l326 340l-324 342l141 140l430 -391v-181l-430 -389zM563 104l326 340l-324 342l142 140l432 -391v-181l-432 -389z" />
<glyph unicode="&#xbc;" horiz-adv-x="1581" d="M57 1243q340 203 342 203h179v-717h-179v537l-264 -154zM166 -31l1024 1491h231l-1024 -1491h-231zM887 150v133l237 422h170l-219 -404h180v152h168v-152h80v-151h-80v-156h-168v156h-368z" />
<glyph unicode="&#xbd;" horiz-adv-x="1648" d="M57 1243q340 203 342 203h179v-717h-179v537l-264 -154zM166 -31l1024 1491h231l-1024 -1491h-231zM958 639q5 4 14 10t38.5 22t61 28t80 22t97.5 10q141 0 222 -67.5t81 -174.5q0 -39 -10 -73t-23.5 -58.5t-40.5 -52.5t-47 -44.5t-57 -45.5l-71 -53h247v-162h-555v125 l213 156q11 8 38.5 27t39.5 28.5t32 27t29.5 31.5t17 33.5t7.5 40.5q0 38 -34.5 63t-98.5 25q-62 0 -117 -17t-80 -34l-24 -17z" />
<glyph unicode="&#xbe;" horiz-adv-x="1597" d="M68 823l65 133l9 -9t27.5 -20.5t46 -25.5t63.5 -20t81 -9q144 0 144 64q0 26 -17 43.5t-49.5 26t-67 11.5t-81.5 3v149q42 0 69 2t57.5 8.5t46 22.5t15.5 41q0 57 -121 57q-55 0 -106 -17t-74 -33l-24 -17l-60 135q4 4 12.5 10t36 22t57 28t74.5 22t90 10 q134 0 213.5 -52.5t79.5 -133.5q0 -150 -149 -176q80 -10 128 -50.5t48 -127.5q0 -93 -85.5 -150t-229.5 -57q-52 0 -102 11.5t-84 27.5t-60.5 32t-39.5 28zM221 -31l1024 1491h234l-1024 -1491h-234zM899 150v133l238 422h170l-220 -404h181v152h168v-152h82v-151h-82v-156 h-168v156h-369z" />
<glyph unicode="&#xbf;" horiz-adv-x="1175" d="M72 -61q0 70 23 134.5t60 111.5t81.5 87.5t88.5 67t81 45t60 27.5l23 8v117h256v-265q-8 -2 -21.5 -5.5t-52 -17t-74 -30t-78.5 -45t-74 -61t-52.5 -78t-21.5 -96.5q0 -81 61.5 -134t163.5 -53q69 0 136.5 14t115 34t85.5 40.5t57 34.5l18 14l120 -227q-8 -7 -24 -18 t-69 -39.5t-110.5 -50.5t-147 -40t-181.5 -18q-247 0 -385.5 123t-138.5 320zM444 813q0 72 53.5 123t129.5 51t128 -51t52 -123q0 -73 -52 -124.5t-128 -51.5t-129.5 52t-53.5 124z" />
<glyph unicode="&#xc0;" horiz-adv-x="1497" d="M18 0l572 1434h317l572 -1434h-308l-122 319h-603l-120 -319h-308zM356 1962h322l184 -418h-248zM535 557h426l-213 557z" />
<glyph unicode="&#xc1;" horiz-adv-x="1497" d="M18 0l572 1434h317l572 -1434h-308l-122 319h-603l-120 -319h-308zM535 557h426l-213 557zM631 1544l182 416h322l-256 -416h-248z" />
<glyph unicode="&#xc2;" horiz-adv-x="1497" d="M18 0l572 1434h317l572 -1434h-308l-122 319h-603l-120 -319h-308zM383 1544l219 418h291l219 -418h-215l-149 230l-148 -230h-217zM535 557h426l-213 557z" />
<glyph unicode="&#xc3;" horiz-adv-x="1497" d="M18 0l572 1434h317l572 -1434h-308l-122 319h-603l-120 -319h-308zM299 1667q4 7 11 19t33 43t57.5 54.5t84.5 42.5t113 19q51 0 99 -18t78.5 -39t65.5 -39t62 -18q25 0 48 10.5t39 26t28 31t18 25.5l6 11l150 -88q-3 -8 -10 -22t-33 -49.5t-56.5 -62.5t-82.5 -49 t-111 -22q-48 0 -92 17.5t-71.5 39t-64.5 39t-73 17.5q-27 0 -54 -10.5t-45 -25.5t-32.5 -29.5t-21.5 -25.5l-7 -10zM535 557h426l-213 557z" />
<glyph unicode="&#xc4;" horiz-adv-x="1497" d="M18 0l572 1434h317l572 -1434h-308l-122 319h-603l-120 -319h-308zM371 1696q0 62 46 107.5t113 45.5q66 0 113 -45.5t47 -107.5q0 -63 -47 -108.5t-113 -45.5q-67 0 -113 45t-46 109zM535 557h426l-213 557zM801 1696q0 62 47 107.5t113 45.5t112.5 -45.5t46.5 -107.5 q0 -63 -46.5 -108.5t-112.5 -45.5t-113 45.5t-47 108.5z" />
<glyph unicode="&#xc5;" horiz-adv-x="1497" d="M18 0l572 1434h317l572 -1434h-308l-122 319h-603l-120 -319h-308zM535 557h426l-213 557zM571 1702q0 78 48.5 126t125.5 48q78 0 126.5 -48t48.5 -126q0 -77 -48.5 -125.5t-126.5 -48.5q-77 0 -125.5 49t-48.5 125zM690 1702q0 -55 55 -55q58 0 58 55q0 26 -15.5 41.5 t-42.5 15.5q-26 0 -40.5 -15.5t-14.5 -41.5z" />
<glyph unicode="&#xc6;" horiz-adv-x="2281" d="M8 0l897 1434h1282v-254h-858v-351h684v-233h-684v-342h858v-254h-1145v319h-528l-201 -319h-305zM666 557h376v598z" />
<glyph unicode="&#xc7;" horiz-adv-x="1554" d="M90 729q0 336 207.5 533.5t589.5 197.5q108 0 205.5 -14t159 -34t107 -39.5t65.5 -33.5l20 -14l-113 -246q-5 5 -16 13.5t-51 30t-86.5 38t-125 30t-165.5 13.5q-224 0 -362 -129.5t-138 -345.5q0 -108 30.5 -198.5t91 -159.5t160 -107.5t228.5 -38.5q90 0 179.5 17.5 t153 42.5t114 50t75.5 43l25 17l78 -245q-8 -7 -23.5 -18t-70.5 -40t-116.5 -52t-160.5 -44t-205 -25l-22 -53q63 -3 107 -39t44 -108q0 -74 -54 -119t-149 -45q-47 0 -92 13.5t-66 26.5l-22 13l43 100q43 -32 129 -32q72 0 72 43q0 57 -180 57l53 145q-152 8 -273.5 52 t-204 113t-137.5 163.5t-79.5 200.5t-24.5 227z" />
<glyph unicode="&#xc8;" horiz-adv-x="1406" d="M168 0v1434h1147v-254h-858v-351h682v-233h-682v-342h858v-254h-1147zM379 1962h321l183 -418h-246z" />
<glyph unicode="&#xc9;" horiz-adv-x="1406" d="M168 0v1434h1147v-254h-858v-351h682v-233h-682v-342h858v-254h-1147zM594 1544l182 416h324l-258 -416h-248z" />
<glyph unicode="&#xca;" horiz-adv-x="1406" d="M168 0v1434h1147v-254h-858v-351h682v-233h-682v-342h858v-254h-1147zM389 1544l219 416h291l219 -416h-217l-149 230l-148 -230h-215z" />
<glyph unicode="&#xcb;" horiz-adv-x="1406" d="M168 0v1434h1147v-254h-858v-351h682v-233h-682v-342h858v-254h-1147zM381 1696q0 62 46.5 107.5t113.5 45.5q66 0 112.5 -45.5t46.5 -107.5t-47 -108t-112 -46q-67 0 -113.5 46t-46.5 108zM811 1696q0 62 47 107.5t113 45.5t112.5 -45.5t46.5 -107.5t-47 -108t-112 -46 q-66 0 -113 46t-47 108z" />
<glyph unicode="&#xcc;" horiz-adv-x="624" d="M-68 1962h322l184 -418h-248zM168 0v1434h289v-1434h-289z" />
<glyph unicode="&#xcd;" horiz-adv-x="624" d="M168 0v1434h289v-1434h-289zM186 1544l185 418h321l-258 -418h-248z" />
<glyph unicode="&#xce;" horiz-adv-x="624" d="M-53 1546l219 416h291l219 -416h-217l-150 230l-147 -230h-215zM168 0v1434h289v-1434h-289z" />
<glyph unicode="&#xcf;" horiz-adv-x="624" d="M-63 1696q0 62 46 107.5t113 45.5q66 0 113 -45.5t47 -107.5t-47 -108t-113 -46q-67 0 -113 46t-46 108zM168 0v1434h289v-1434h-289zM367 1696q0 62 46.5 107.5t112.5 45.5t113 -45.5t47 -107.5t-47 -108t-113 -46q-65 0 -112 46t-47 108z" />
<glyph unicode="&#xd0;" horiz-adv-x="1611" d="M47 590v213h133v631h568q376 0 575 -185.5t199 -539.5q0 -348 -205 -528.5t-569 -180.5h-568v590h-133zM469 254h246q256 -2 386 107.5t130 347.5q0 243 -130.5 357t-393.5 114h-238v-377h215v-213h-215v-336z" />
<glyph unicode="&#xd1;" horiz-adv-x="1593" d="M168 0v1434h233l736 -947v947h288v-1434h-229l-739 920v-920h-289zM350 1667q2 4 5.5 10.5t16.5 25t28 35t40.5 37t54 35.5t69 25t83.5 10q51 0 99.5 -18t79 -39t66 -39t62.5 -18q39 0 73.5 26t49.5 52l15 26l151 -88q-3 -8 -10 -22t-33 -49.5t-56.5 -62.5t-82.5 -49 t-111 -22q-49 0 -93 17.5t-72 39t-65 39t-73 17.5q-27 0 -53.5 -10.5t-44.5 -25.5t-33 -29.5t-22 -25.5l-7 -10z" />
<glyph unicode="&#xd2;" horiz-adv-x="1742" d="M86 719q0 164 54 300.5t153.5 234t248 152t330.5 54.5t330 -54.5t248 -152t154.5 -234t54.5 -300.5q0 -123 -30 -233.5t-93 -205.5t-154.5 -164t-222 -108t-287.5 -39q-158 0 -289 39t-222 108t-153.5 164t-92 205t-29.5 234zM377 719q0 -103 29 -190.5t87.5 -156.5 t155 -108t223.5 -39q125 0 221.5 39t155 108t88 156.5t29.5 190.5q0 219 -133 352t-361 133q-229 0 -362 -133t-133 -352zM506 1962h321l185 -418h-248z" />
<glyph unicode="&#xd3;" horiz-adv-x="1742" d="M86 719q0 164 54 300.5t153.5 234t248 152t330.5 54.5t330 -54.5t248 -152t154.5 -234t54.5 -300.5q0 -123 -30 -233.5t-93 -205.5t-154.5 -164t-222 -108t-287.5 -39q-158 0 -289 39t-222 108t-153.5 164t-92 205t-29.5 234zM377 719q0 -103 29 -190.5t87.5 -156.5 t155 -108t223.5 -39q125 0 221.5 39t155 108t88 156.5t29.5 190.5q0 219 -133 352t-361 133q-229 0 -362 -133t-133 -352zM735 1544l185 418h321l-258 -418h-248z" />
<glyph unicode="&#xd4;" horiz-adv-x="1742" d="M86 719q0 164 54 300.5t153.5 234t248 152t330.5 54.5t330 -54.5t248 -152t154.5 -234t54.5 -300.5q0 -123 -30 -233.5t-93 -205.5t-154.5 -164t-222 -108t-287.5 -39q-158 0 -289 39t-222 108t-153.5 164t-92 205t-29.5 234zM377 719q0 -103 29 -190.5t87.5 -156.5 t155 -108t223.5 -39q125 0 221.5 39t155 108t88 156.5t29.5 190.5q0 219 -133 352t-361 133q-229 0 -362 -133t-133 -352zM508 1544l219 418h291l219 -418h-217l-148 230l-149 -230h-215z" />
<glyph unicode="&#xd5;" horiz-adv-x="1742" d="M86 719q0 164 54 300.5t153.5 234t248 152t330.5 54.5t330 -54.5t248 -152t154.5 -234t54.5 -300.5q0 -123 -30 -233.5t-93 -205.5t-154.5 -164t-222 -108t-287.5 -39q-158 0 -289 39t-222 108t-153.5 164t-92 205t-29.5 234zM377 719q0 -103 29 -190.5t87.5 -156.5 t155 -108t223.5 -39q125 0 221.5 39t155 108t88 156.5t29.5 190.5q0 219 -133 352t-361 133q-229 0 -362 -133t-133 -352zM424 1669q4 7 11 19t33 43t57.5 54.5t84.5 42.5t113 19q51 0 99 -18t78.5 -39t65.5 -39t62 -18q25 0 48 10.5t39 26t28 31t18 25.5l6 11l152 -88 q-3 -8 -10 -22t-33 -49t-57 -61.5t-83.5 -48.5t-111.5 -22q-48 0 -92 17.5t-71.5 38t-64.5 38t-73 17.5q-27 0 -53.5 -10.5t-44.5 -25.5t-33 -29.5t-22 -25.5l-7 -10z" />
<glyph unicode="&#xd6;" horiz-adv-x="1742" d="M86 719q0 164 54 300.5t153.5 234t248 152t330.5 54.5t330 -54.5t248 -152t154.5 -234t54.5 -300.5q0 -123 -30 -233.5t-93 -205.5t-154.5 -164t-222 -108t-287.5 -39q-158 0 -289 39t-222 108t-153.5 164t-92 205t-29.5 234zM377 719q0 -103 29 -190.5t87.5 -156.5 t155 -108t223.5 -39q125 0 221.5 39t155 108t88 156.5t29.5 190.5q0 219 -133 352t-361 133q-229 0 -362 -133t-133 -352zM498 1696q0 62 46.5 107.5t112.5 45.5t113 -45.5t47 -107.5t-47 -108t-113 -46q-65 0 -112 46t-47 108zM930 1696q0 62 46 107.5t111 45.5 q67 0 114.5 -45.5t47.5 -107.5t-47.5 -108t-114.5 -46q-65 0 -111 46t-46 108z" />
<glyph unicode="&#xd7;" horiz-adv-x="1075" d="M115 342l250 250l-250 250l174 172l250 -250l249 250l173 -172l-250 -250l250 -250l-173 -174l-249 250l-250 -250z" />
<glyph unicode="&#xd8;" horiz-adv-x="1742" d="M86 719q0 164 54 300.5t153.5 234t248 152t330.5 54.5q48 0 138 -8l53 184h160l-64 -217q237 -72 368.5 -256.5t131.5 -443.5q0 -123 -30 -233.5t-93 -205.5t-154.5 -164t-222 -108t-287.5 -39q-47 0 -133 8l-82 -282h-159l92 311q-167 48 -282.5 155.5t-168.5 248.5 t-53 309zM377 719q0 -162 71.5 -285t213.5 -176l274 942q-40 4 -64 4q-229 0 -362 -133t-133 -352zM813 227q5 0 28 -1t31 -1q125 0 221.5 39t155 108t88 156.5t29.5 190.5q0 161 -73.5 277t-207.5 169z" />
<glyph unicode="&#xd9;" horiz-adv-x="1560" d="M154 606v828h286v-838q0 -202 79.5 -289.5t258.5 -87.5q181 0 261.5 86.5t80.5 290.5v838h289v-828q0 -174 -36.5 -295t-116 -196.5t-195.5 -109.5t-283 -36q-163 1 -278 35t-193.5 109.5t-115.5 197t-37 295.5zM391 1962h322l184 -416h-248z" />
<glyph unicode="&#xda;" horiz-adv-x="1560" d="M154 606v828h286v-838q0 -202 79.5 -289.5t258.5 -87.5q181 0 261.5 86.5t80.5 290.5v838h289v-828q0 -174 -36.5 -295t-116 -196.5t-195.5 -109.5t-283 -36q-163 1 -278 35t-193.5 109.5t-115.5 197t-37 295.5zM623 1544l184 418h321l-258 -418h-247z" />
<glyph unicode="&#xdb;" horiz-adv-x="1560" d="M154 606v828h286v-838q0 -202 79.5 -289.5t258.5 -87.5q181 0 261.5 86.5t80.5 290.5v838h289v-828q0 -174 -36.5 -295t-116 -196.5t-195.5 -109.5t-283 -36q-163 1 -278 35t-193.5 109.5t-115.5 197t-37 295.5zM412 1544l219 418h291l219 -418h-215l-150 230l-147 -230 h-217z" />
<glyph unicode="&#xdc;" horiz-adv-x="1560" d="M154 606v828h286v-838q0 -202 79.5 -289.5t258.5 -87.5q181 0 261.5 86.5t80.5 290.5v838h289v-828q0 -174 -36.5 -295t-116 -196.5t-195.5 -109.5t-283 -36q-163 1 -278 35t-193.5 109.5t-115.5 197t-37 295.5zM406 1696q0 62 46 107.5t111 45.5q67 0 114.5 -45.5 t47.5 -107.5t-47.5 -108t-114.5 -46q-65 0 -111 46t-46 108zM836 1696q0 62 46 107.5t113 45.5q66 0 113 -45.5t47 -107.5t-47 -108t-113 -46q-67 0 -113 46t-46 108z" />
<glyph unicode="&#xdd;" horiz-adv-x="1536" d="M18 1434h342l408 -625l412 625h338l-607 -910v-524h-288v526zM621 1503l182 416h323l-258 -416h-247z" />
<glyph unicode="&#xde;" horiz-adv-x="1484" d="M168 0v1434h289v-189h366q284 0 441 -132t157 -394q0 -255 -157 -383.5t-441 -128.5h-366v-207h-289zM457 461h366q154 0 229.5 63t75.5 195q0 140 -74.5 206t-230.5 66h-366v-530z" />
<glyph unicode="&#xdf;" horiz-adv-x="1499" d="M43 729l41 229h129v170q0 209 124 309.5t341 100.5q222 0 351.5 -97.5t129.5 -287.5q0 -70 -22 -127t-53.5 -93t-63.5 -66.5t-54 -62.5t-22 -65q0 -34 28 -61t73.5 -46t100 -39t109 -48.5t100 -65t73.5 -96.5t28 -137q0 -129 -116 -203t-320 -74q-79 0 -150.5 14t-117 34 t-79 40.5t-48.5 34.5l-15 14l80 191q5 -4 13.5 -10t38.5 -21.5t63 -27.5t85 -21.5t107 -9.5q75 0 117.5 27.5t42.5 68.5q0 39 -26.5 68.5t-68.5 49.5t-93 38.5t-102.5 41t-93.5 52t-68.5 77t-26.5 109.5q0 42 21 80t51 69t59.5 64.5t50.5 81t21 103.5q0 75 -56.5 115 t-146.5 40t-142.5 -44.5t-52.5 -125.5v-1122h-270v729h-170z" />
<glyph unicode="&#xe0;" d="M59 242q0 126 127.5 199t401.5 73q83 0 141 -12v96q0 90 -55 127t-189 37q-76 0 -154.5 -14t-119.5 -28l-41 -15l-47 219q21 7 58.5 17.5t149.5 28t220 17.5q224 0 336 -86t112 -248v-389q0 -34 11.5 -47.5t40.5 -13.5q17 0 42 5.5t41 11.5l17 5l37 -168 q-11 -8 -31 -19.5t-81 -30.5t-122 -19q-89 0 -139.5 29t-69.5 92q-152 -140 -352 -140q-151 0 -242.5 70t-91.5 203zM217 1538h322l184 -418h-248zM332 264q0 -45 40 -68.5t105 -23.5q147 0 252 76v114q-69 11 -131 11q-266 0 -266 -109z" />
<glyph unicode="&#xe1;" d="M59 242q0 126 127.5 199t401.5 73q83 0 141 -12v96q0 90 -55 127t-189 37q-76 0 -154.5 -14t-119.5 -28l-41 -15l-47 219q21 7 58.5 17.5t149.5 28t220 17.5q224 0 336 -86t112 -248v-389q0 -34 11.5 -47.5t40.5 -13.5q17 0 42 5.5t41 11.5l17 5l37 -168 q-11 -8 -31 -19.5t-81 -30.5t-122 -19q-89 0 -139.5 29t-69.5 92q-152 -140 -352 -140q-151 0 -242.5 70t-91.5 203zM332 264q0 -45 40 -68.5t105 -23.5q147 0 252 76v114q-69 11 -131 11q-266 0 -266 -109zM408 1120l182 418h323l-258 -418h-247z" />
<glyph unicode="&#xe2;" d="M59 242q0 126 127.5 199t401.5 73q83 0 141 -12v96q0 90 -55 127t-189 37q-76 0 -154.5 -14t-119.5 -28l-41 -15l-47 219q21 7 58.5 17.5t149.5 28t220 17.5q224 0 336 -86t112 -248v-389q0 -34 11.5 -47.5t40.5 -13.5q17 0 42 5.5t41 11.5l17 5l37 -168 q-11 -8 -31 -19.5t-81 -30.5t-122 -19q-89 0 -139.5 29t-69.5 92q-152 -140 -352 -140q-151 0 -242.5 70t-91.5 203zM219 1120l219 416h289l219 -416h-215l-149 230l-148 -230h-215zM332 264q0 -45 40 -68.5t105 -23.5q147 0 252 76v114q-69 11 -131 11q-266 0 -266 -109z " />
<glyph unicode="&#xe3;" d="M59 242q0 126 127.5 199t401.5 73q83 0 141 -12v96q0 90 -55 127t-189 37q-76 0 -154.5 -14t-119.5 -28l-41 -15l-47 219q21 7 58.5 17.5t149.5 28t220 17.5q224 0 336 -86t112 -248v-389q0 -34 11.5 -47.5t40.5 -13.5q17 0 42 5.5t41 11.5l17 5l37 -168 q-11 -8 -31 -19.5t-81 -30.5t-122 -19q-89 0 -139.5 29t-69.5 92q-152 -140 -352 -140q-151 0 -242.5 70t-91.5 203zM127 1208q4 7 11 19t33 43t57.5 54.5t84.5 42.5t113 19q51 0 99 -18t78.5 -39t65.5 -39t62 -18q25 0 48 10.5t39 26t28 31t18 26.5l6 10l152 -88 q-3 -8 -10 -22t-33 -49t-57 -61.5t-83.5 -48.5t-111.5 -22q-48 0 -92 17.5t-71.5 39t-64.5 39t-73 17.5q-27 0 -53.5 -10.5t-44.5 -25.5t-33 -30t-22 -26l-7 -10zM332 264q0 -45 40 -68.5t105 -23.5q147 0 252 76v114q-69 11 -131 11q-266 0 -266 -109z" />
<glyph unicode="&#xe4;" d="M59 242q0 126 127.5 199t401.5 73q83 0 141 -12v96q0 90 -55 127t-189 37q-76 0 -154.5 -14t-119.5 -28l-41 -15l-47 219q21 7 58.5 17.5t149.5 28t220 17.5q224 0 336 -86t112 -248v-389q0 -34 11.5 -47.5t40.5 -13.5q17 0 42 5.5t41 11.5l17 5l37 -168 q-11 -8 -31 -19.5t-81 -30.5t-122 -19q-89 0 -139.5 29t-69.5 92q-152 -140 -352 -140q-151 0 -242.5 70t-91.5 203zM193 1247q0 62 47 108t112 46q67 0 113.5 -46t46.5 -108q0 -63 -46.5 -108t-113.5 -45q-66 0 -112.5 45t-46.5 108zM332 264q0 -45 40 -68.5t105 -23.5 q147 0 252 76v114q-69 11 -131 11q-266 0 -266 -109zM625 1247q0 62 46 108t111 46q67 0 114.5 -46t47.5 -108q0 -63 -47.5 -108t-114.5 -45q-66 0 -111.5 45t-45.5 108z" />
<glyph unicode="&#xe5;" d="M59 242q0 126 127.5 199t401.5 73q83 0 141 -12v96q0 90 -55 127t-189 37q-76 0 -154.5 -14t-119.5 -28l-41 -15l-47 219q21 7 58.5 17.5t149.5 28t220 17.5q224 0 336 -86t112 -248v-389q0 -34 11.5 -47.5t40.5 -13.5q17 0 42 5.5t41 11.5l17 5l37 -168 q-11 -8 -31 -19.5t-81 -30.5t-122 -19q-89 0 -139.5 29t-69.5 92q-152 -140 -352 -140q-151 0 -242.5 70t-91.5 203zM332 264q0 -45 40 -68.5t105 -23.5q147 0 252 76v114q-69 11 -131 11q-266 0 -266 -109zM381 1243q0 77 48.5 125.5t125.5 48.5t125.5 -48.5t48.5 -125.5 t-48.5 -125.5t-125.5 -48.5t-125.5 48.5t-48.5 125.5zM500 1243q0 -55 55 -55q57 0 57 55t-57 55q-55 0 -55 -55z" />
<glyph unicode="&#xe6;" horiz-adv-x="1820" d="M59 242q0 126 127.5 199t401.5 73q83 0 141 -12v96q0 90 -55 127t-189 37q-76 0 -154.5 -14t-119.5 -28l-41 -15l-47 219q21 7 58.5 17.5t149.5 28t220 17.5q252 0 360 -117q140 117 365 117q101 0 184.5 -28.5t136.5 -74t90 -103.5t52.5 -113.5t15.5 -108.5 q0 -39 -5 -75t-10 -52l-5 -16h-729q20 -105 94 -165.5t205 -60.5q58 0 112.5 9.5t90.5 23t64 26.5t41 23l13 9l82 -172q-7 -6 -19.5 -15.5t-55 -33.5t-88.5 -42.5t-116.5 -33.5t-142.5 -15q-282 0 -432 170q-28 -27 -63 -51.5t-91.5 -54t-136.5 -47t-170 -17.5 q-151 0 -242.5 70t-91.5 203zM332 264q0 -45 40 -68.5t105 -23.5q163 0 299 96q-20 57 -26 92q-78 13 -152 13q-266 0 -266 -109zM1004 563h503v10q-5 96 -63.5 152.5t-171.5 56.5q-114 0 -182 -58.5t-86 -160.5z" />
<glyph unicode="&#xe7;" horiz-adv-x="1095" d="M78 481q0 105 34 195t100 160.5t172.5 110.5t242.5 40q72 0 137.5 -9.5t108 -23t74.5 -27t47 -23.5l14 -9l-95 -213q-3 3 -10 7.5t-31 16.5t-52 21.5t-74.5 17t-96.5 7.5q-143 0 -219 -76t-76 -193q0 -121 77.5 -199.5t215.5 -78.5q58 0 112 11.5t89.5 28.5t62.5 34 t39 29l13 11l90 -210q-5 -5 -15.5 -13t-46 -29t-75 -38t-102.5 -33.5t-130 -22.5l-22 -55q63 -3 107 -39t44 -108q0 -74 -54 -119t-149 -45q-47 0 -92 13.5t-66 26.5l-22 13l43 100q43 -32 129 -32q72 0 72 43q0 57 -180 57l53 145q-224 19 -346.5 154.5t-122.5 353.5z" />
<glyph unicode="&#xe8;" horiz-adv-x="1159" d="M76 481q0 105 33 195t97.5 160.5t168.5 110.5t237 40q102 0 185.5 -29t137 -74t90 -103t52 -113.5t15.5 -108.5q0 -39 -5 -75t-11 -52l-5 -16h-727q18 -104 92.5 -165t204.5 -61q58 0 112.5 9.5t91.5 23t65 26.5t42 23l13 9l79 -172q-7 -6 -19.5 -15.5t-55 -33.5 t-88 -42.5t-116 -33.5t-142.5 -15q-135 0 -241.5 41t-172 112t-99.5 162.5t-34 196.5zM244 1538h321l185 -418h-248zM342 563h502v10q-3 96 -62 152.5t-172 56.5q-114 0 -182 -58.5t-86 -160.5z" />
<glyph unicode="&#xe9;" horiz-adv-x="1159" d="M76 481q0 105 33 195t97.5 160.5t168.5 110.5t237 40q102 0 185.5 -29t137 -74t90 -103t52 -113.5t15.5 -108.5q0 -39 -5 -75t-11 -52l-5 -16h-727q18 -104 92.5 -165t204.5 -61q58 0 112.5 9.5t91.5 23t65 26.5t42 23l13 9l79 -172q-7 -6 -19.5 -15.5t-55 -33.5 t-88 -42.5t-116 -33.5t-142.5 -15q-135 0 -241.5 41t-172 112t-99.5 162.5t-34 196.5zM342 563h502v10q-3 96 -62 152.5t-172 56.5q-114 0 -182 -58.5t-86 -160.5zM463 1120l182 418h322l-256 -418h-248z" />
<glyph unicode="&#xea;" horiz-adv-x="1159" d="M76 481q0 105 33 195t97.5 160.5t168.5 110.5t237 40q102 0 185.5 -29t137 -74t90 -103t52 -113.5t15.5 -108.5q0 -39 -5 -75t-11 -52l-5 -16h-727q18 -104 92.5 -165t204.5 -61q58 0 112.5 9.5t91.5 23t65 26.5t42 23l13 9l79 -172q-7 -6 -19.5 -15.5t-55 -33.5 t-88 -42.5t-116 -33.5t-142.5 -15q-135 0 -241.5 41t-172 112t-99.5 162.5t-34 196.5zM240 1120l219 418h291l219 -418h-217l-150 230l-147 -230h-215zM342 563h502v10q-3 96 -62 152.5t-172 56.5q-114 0 -182 -58.5t-86 -160.5z" />
<glyph unicode="&#xeb;" horiz-adv-x="1159" d="M76 481q0 105 33 195t97.5 160.5t168.5 110.5t237 40q102 0 185.5 -29t137 -74t90 -103t52 -113.5t15.5 -108.5q0 -39 -5 -75t-11 -52l-5 -16h-727q18 -104 92.5 -165t204.5 -61q58 0 112.5 9.5t91.5 23t65 26.5t42 23l13 9l79 -172q-7 -6 -19.5 -15.5t-55 -33.5 t-88 -42.5t-116 -33.5t-142.5 -15q-135 0 -241.5 41t-172 112t-99.5 162.5t-34 196.5zM240 1247q0 62 46 108t113 46q66 0 113 -46t47 -108q0 -63 -47 -108t-113 -45q-67 0 -113 45t-46 108zM342 563h502v10q-3 96 -62 152.5t-172 56.5q-114 0 -182 -58.5t-86 -160.5z M670 1247q0 62 47 108t112 46q66 0 113 -46t47 -108q0 -63 -47 -108t-113 -45t-112.5 45t-46.5 108z" />
<glyph unicode="&#xec;" horiz-adv-x="538" d="M-109 1538h324l182 -418h-247zM135 0v958h271v-958h-271z" />
<glyph unicode="&#xed;" horiz-adv-x="538" d="M135 0v958h271v-958h-271zM152 1120l184 418h321l-258 -418h-247z" />
<glyph unicode="&#xee;" horiz-adv-x="538" d="M-88 1120l219 418h291l219 -418h-217l-150 230l-147 -230h-215zM135 0v958h271v-958h-271z" />
<glyph unicode="&#xef;" horiz-adv-x="538" d="M-104 1247q0 62 46 108t113 46q66 0 113 -46t47 -108q0 -63 -47 -108t-113 -45q-67 0 -113 45t-46 108zM135 0v958h271v-958h-271zM326 1247q0 62 47 108t112 46q67 0 113.5 -46t46.5 -108q0 -63 -46.5 -108t-113.5 -45q-66 0 -112.5 45t-46.5 108z" />
<glyph unicode="&#xf0;" horiz-adv-x="1359" d="M80 430q0 228 144.5 350.5t410.5 122.5q184 0 342 -102q-10 128 -66.5 218.5t-150.5 135.5l-152 -162l-90 86l109 117q-50 4 -76 4q-54 0 -105 -10t-85 -24t-60 -28t-39 -24l-12 -10l-125 237q7 5 19.5 13t56 28.5t91 36t123 28.5t154.5 13q149 0 267 -41l137 148l90 -82 l-109 -117q157 -90 239.5 -255.5t82.5 -383.5q0 -127 -22 -237.5t-72 -207.5t-124 -166t-184.5 -109t-248.5 -40q-241 0 -393 130t-152 331zM377 446q0 -94 68.5 -155.5t179.5 -61.5q147 0 235 90t113 256q-169 99 -338 99q-120 0 -189 -60.5t-69 -167.5z" />
<glyph unicode="&#xf1;" horiz-adv-x="1280" d="M131 0v907l270 72v-139q18 19 43.5 39.5t69 47t104 43.5t125.5 17q172 0 261.5 -95t89.5 -271v-357q0 -34 11 -47.5t40 -13.5q18 0 43 5.5t41 11.5l16 5l37 -168q-11 -8 -30.5 -19.5t-80.5 -30.5t-122 -19q-124 0 -175 58t-51 181v316q0 107 -41 152.5t-131 45.5 q-131 0 -250 -102v-639h-270zM166 1208q4 7 11 19t33 43t57.5 54.5t84.5 42.5t113 19q51 0 99 -18t78.5 -39t65.5 -39t62 -18q25 0 48.5 10.5t39.5 26t28 31t18 26.5l5 10l152 -88q-3 -8 -10 -22t-33 -49t-57 -61.5t-83.5 -48.5t-111.5 -22q-48 0 -92 17.5t-71.5 39 t-64.5 39t-73 17.5q-27 0 -53.5 -10.5t-44.5 -25.5t-33 -30t-22 -26l-7 -10z" />
<glyph unicode="&#xf2;" horiz-adv-x="1249" d="M76 475q0 106 35 198t101.5 162.5t172.5 111t240 40.5q133 0 239 -40.5t173 -111t102 -162.5t35 -198q0 -103 -35.5 -194t-102.5 -161t-173 -110.5t-238 -40.5q-133 0 -239 40.5t-173 110.5t-102 161t-35 194zM252 1538h321l183 -418h-248zM346 477q0 -126 73 -204 t206 -78q131 0 204.5 78.5t73.5 203.5q0 124 -71.5 203.5t-206.5 79.5q-137 0 -208 -79t-71 -204z" />
<glyph unicode="&#xf3;" horiz-adv-x="1249" d="M76 475q0 106 35 198t101.5 162.5t172.5 111t240 40.5q133 0 239 -40.5t173 -111t102 -162.5t35 -198q0 -103 -35.5 -194t-102.5 -161t-173 -110.5t-238 -40.5q-133 0 -239 40.5t-173 110.5t-102 161t-35 194zM346 477q0 -126 73 -204t206 -78q131 0 204.5 78.5 t73.5 203.5q0 124 -71.5 203.5t-206.5 79.5q-137 0 -208 -79t-71 -204zM481 1120l185 418h321l-258 -418h-248z" />
<glyph unicode="&#xf4;" horiz-adv-x="1249" d="M76 475q0 106 35 198t101.5 162.5t172.5 111t240 40.5q133 0 239 -40.5t173 -111t102 -162.5t35 -198q0 -103 -35.5 -194t-102.5 -161t-173 -110.5t-238 -40.5q-133 0 -239 40.5t-173 110.5t-102 161t-35 194zM258 1120l219 418h291l219 -418h-217l-149 230l-148 -230 h-215zM346 477q0 -126 73 -204t206 -78q131 0 204.5 78.5t73.5 203.5q0 124 -71.5 203.5t-206.5 79.5q-137 0 -208 -79t-71 -204z" />
<glyph unicode="&#xf5;" horiz-adv-x="1249" d="M76 475q0 106 35 198t101.5 162.5t172.5 111t240 40.5q133 0 239 -40.5t173 -111t102 -162.5t35 -198q0 -103 -35.5 -194t-102.5 -161t-173 -110.5t-238 -40.5q-133 0 -239 40.5t-173 110.5t-102 161t-35 194zM180 1208q4 7 11 19t33 43t57.5 54.5t84.5 42.5t113 19 q51 0 99 -18t78.5 -39t65.5 -39t62 -18q39 0 74 26t50 52l16 26l151 -88l-11 -22t-33 -49t-57 -61.5t-83 -48.5t-111 -22q-48 0 -92 17.5t-71.5 39t-64.5 39t-73 17.5q-27 0 -53.5 -10.5t-44.5 -25.5t-33 -30t-22 -26l-7 -10zM346 477q0 -126 73 -204t206 -78 q131 0 204.5 78.5t73.5 203.5q0 124 -71.5 203.5t-206.5 79.5q-137 0 -208 -79t-71 -204z" />
<glyph unicode="&#xf6;" horiz-adv-x="1249" d="M76 475q0 106 35 198t101.5 162.5t172.5 111t240 40.5q133 0 239 -40.5t173 -111t102 -162.5t35 -198q0 -103 -35.5 -194t-102.5 -161t-173 -110.5t-238 -40.5q-133 0 -239 40.5t-173 110.5t-102 161t-35 194zM252 1247q0 62 46.5 108t113.5 46q65 0 112 -46t47 -108 q0 -63 -46.5 -108t-112.5 -45q-67 0 -113.5 45t-46.5 108zM346 477q0 -126 73 -204t206 -78q131 0 204.5 78.5t73.5 203.5q0 124 -71.5 203.5t-206.5 79.5q-137 0 -208 -79t-71 -204zM682 1247q0 62 47 108t113 46q65 0 112 -46t47 -108q0 -63 -46.5 -108t-112.5 -45 t-113 45t-47 108z" />
<glyph unicode="&#xf7;" horiz-adv-x="948" d="M102 426v244h744v-244h-744zM287 143q0 73 52 124.5t128 51.5t129 -52t53 -124t-53 -123t-129 -51t-128 51t-52 123zM287 967q0 73 52 124.5t128 51.5t129 -52t53 -124t-53 -123t-129 -51t-128 51t-52 123z" />
<glyph unicode="&#xf8;" horiz-adv-x="1249" d="M76 475q0 106 35 198t101.5 162.5t172.5 111t240 40.5q37 0 53 -2l29 94h159l-37 -123q167 -51 256 -181t89 -300q0 -103 -35.5 -194t-102.5 -161t-173 -110.5t-238 -40.5q-41 0 -78 6l-35 -122h-160l43 153q-155 55 -237 181t-82 288zM346 477q0 -166 119 -233l147 514 h-12q-124 -6 -189 -84t-65 -197zM610 195h15q131 0 204.5 78.5t73.5 203.5q0 85 -35.5 151t-103.5 101z" />
<glyph unicode="&#xf9;" horiz-adv-x="1282" d="M121 336v592l270 45v-561q0 -109 40.5 -155t129.5 -46q138 0 252 92v604l270 72v-715q0 -34 11.5 -47.5t40.5 -13.5q18 0 43 5.5t41 11.5l16 5l37 -168q-11 -8 -31 -19.5t-81 -30.5t-122 -19q-91 0 -142 31t-71 98q-154 -148 -354 -148q-172 0 -261 95.5t-89 271.5z M256 1538h322l184 -418h-248z" />
<glyph unicode="&#xfa;" horiz-adv-x="1282" d="M121 336v592l270 45v-561q0 -109 40.5 -155t129.5 -46q138 0 252 92v604l270 72v-715q0 -34 11.5 -47.5t40.5 -13.5q18 0 43 5.5t41 11.5l16 5l37 -168q-11 -8 -31 -19.5t-81 -30.5t-122 -19q-91 0 -142 31t-71 98q-154 -148 -354 -148q-172 0 -261 95.5t-89 271.5z M475 1120l184 418h322l-258 -418h-248z" />
<glyph unicode="&#xfb;" horiz-adv-x="1282" d="M121 336v592l270 45v-561q0 -109 40.5 -155t129.5 -46q138 0 252 92v604l270 72v-715q0 -34 11.5 -47.5t40.5 -13.5q18 0 43 5.5t41 11.5l16 5l37 -168q-11 -8 -31 -19.5t-81 -30.5t-122 -19q-91 0 -142 31t-71 98q-154 -148 -354 -148q-172 0 -261 95.5t-89 271.5z M246 1120l219 418h291l219 -418h-215l-150 230l-147 -230h-217z" />
<glyph unicode="&#xfc;" horiz-adv-x="1282" d="M121 336v592l270 45v-561q0 -109 40.5 -155t129.5 -46q138 0 252 92v604l270 72v-715q0 -34 11.5 -47.5t40.5 -13.5q18 0 43 5.5t41 11.5l16 5l37 -168q-11 -8 -31 -19.5t-81 -30.5t-122 -19q-91 0 -142 31t-71 98q-154 -148 -354 -148q-172 0 -261 95.5t-89 271.5z M242 1247q0 62 46 108t113 46q66 0 113 -46t47 -108q0 -63 -47 -108t-113 -45q-67 0 -113 45t-46 108zM672 1247q0 62 46 108t113 46q66 0 113 -46t47 -108q0 -63 -47 -108t-113 -45q-67 0 -113 45t-46 108z" />
<glyph unicode="&#xfd;" horiz-adv-x="1169" d="M27 958h297l266 -677l256 677h299l-643 -1497h-271l238 539h-35zM430 1120l182 418h324l-258 -418h-248z" />
<glyph unicode="&#xfe;" horiz-adv-x="1261" d="M135 -539v2003l271 72v-680q107 131 319 131q146 0 251.5 -68.5t156.5 -183.5t51 -264q0 -225 -139.5 -363.5t-368.5 -138.5q-155 0 -270 66v-574h-271zM397 264q93 -69 238 -69q126 0 202 74t76 200q0 142 -69 217.5t-203 75.5q-145 0 -244 -109v-389z" />
<glyph unicode="&#xff;" horiz-adv-x="1169" d="M27 958h297l266 -677l256 677h299l-643 -1497h-271l238 539h-35zM215 1247q0 62 46.5 108t113.5 46q66 0 113 -46t47 -108q0 -63 -47 -108t-113 -45q-67 0 -113.5 45t-46.5 108zM645 1247q0 62 47 108t113 46t113 -46t47 -108q0 -63 -47 -108t-113 -45t-113 45t-47 108z " />
<glyph unicode="&#x152;" horiz-adv-x="2609" d="M86 719q0 164 54 300.5t153.5 234t248 152t330.5 54.5q301 0 498 -157v131h1147v-254h-858v-351h682v-233h-682v-342h858v-254h-1147v125q-193 -156 -498 -156q-158 0 -289 39t-222 108t-153.5 164t-92 205t-29.5 234zM377 719q0 -103 29 -190.5t87.5 -156.5t155 -108 t223.5 -39q125 0 221.5 39t155 108t88 156.5t29.5 190.5q0 219 -133 352t-361 133q-229 0 -362 -133t-133 -352z" />
<glyph unicode="&#x153;" horiz-adv-x="2002" d="M76 475q0 106 35 198t101.5 162.5t172.5 111t240 40.5q270 0 417 -170q140 170 414 170q102 0 185.5 -29t136.5 -74t89.5 -103t52 -113.5t15.5 -108.5q0 -39 -5 -75t-10 -52l-5 -16h-727q18 -104 92.5 -165t204.5 -61q58 0 112.5 9.5t91 23t65 26.5t41.5 23l13 9l80 -172 q-7 -6 -19.5 -15.5t-55 -33.5t-88.5 -42.5t-116.5 -33.5t-142.5 -15q-281 0 -422 170q-147 -170 -419 -170q-133 0 -239 40.5t-173 110.5t-102 161t-35 194zM346 477q0 -126 73 -204t206 -78q131 0 204.5 78.5t73.5 203.5q0 124 -71.5 203.5t-206.5 79.5q-137 0 -208 -79 t-71 -204zM1186 563h502v10q-3 96 -62 152.5t-172 56.5q-114 0 -182 -58.5t-86 -160.5z" />
<glyph unicode="&#x178;" horiz-adv-x="1536" d="M18 1434h342l408 -625l412 625h338l-607 -910v-524h-288v526zM399 1696q0 62 46.5 107.5t113.5 45.5q66 0 113 -45.5t47 -107.5t-47 -108t-113 -46q-67 0 -113.5 46t-46.5 108zM829 1696q0 62 47 107.5t113 45.5q67 0 114.5 -45.5t47.5 -107.5t-47.5 -108t-114.5 -46 q-66 0 -113 46t-47 108z" />
<glyph unicode="&#x2c6;" horiz-adv-x="860" d="M63 1120l220 418h290l220 -418h-218l-147 230l-147 -230h-218z" />
<glyph unicode="&#x2dc;" horiz-adv-x="987" d="M47 1208q4 7 11 19t33 43t57.5 54.5t84.5 42.5t113 19q51 0 99 -18t78.5 -39t65.5 -39t62 -18q25 0 48 10.5t38.5 26t27.5 31t17 26.5l6 10l152 -88q-3 -8 -10 -22t-33 -49t-56.5 -61.5t-82.5 -48.5t-111 -22q-48 0 -92 17.5t-71.5 39t-64.5 39t-73 17.5q-27 0 -54 -10.5 t-45 -25.5t-32.5 -30t-21.5 -26l-7 -10z" />
<glyph unicode="&#x2000;" horiz-adv-x="998" />
<glyph unicode="&#x2001;" horiz-adv-x="1997" />
<glyph unicode="&#x2002;" horiz-adv-x="998" />
<glyph unicode="&#x2003;" horiz-adv-x="1997" />
<glyph unicode="&#x2004;" horiz-adv-x="665" />
<glyph unicode="&#x2005;" horiz-adv-x="499" />
<glyph unicode="&#x2006;" horiz-adv-x="332" />
<glyph unicode="&#x2007;" horiz-adv-x="332" />
<glyph unicode="&#x2008;" horiz-adv-x="249" />
<glyph unicode="&#x2009;" horiz-adv-x="399" />
<glyph unicode="&#x200a;" horiz-adv-x="110" />
<glyph unicode="&#x2010;" horiz-adv-x="864" d="M129 455v243h608v-243h-608z" />
<glyph unicode="&#x2011;" horiz-adv-x="864" d="M129 455v243h608v-243h-608z" />
<glyph unicode="&#x2012;" horiz-adv-x="864" d="M129 455v243h608v-243h-608z" />
<glyph unicode="&#x2013;" horiz-adv-x="1198" d="M133 467v223h932v-223h-932z" />
<glyph unicode="&#x2014;" horiz-adv-x="1933" d="M133 467v223h1667v-223h-1667z" />
<glyph unicode="&#x2018;" horiz-adv-x="587" d="M94 1370q0 78 12.5 145t32 112.5t43.5 82t47.5 58t43 35.5t31.5 19l13 5l82 -92q-4 -3 -11.5 -9t-26 -27.5t-33 -46.5t-26 -65t-11.5 -84v-8h10q81 0 136 -53t55 -129q0 -77 -55 -131t-136 -54q-102 0 -154.5 67t-52.5 175z" />
<glyph unicode="&#x2019;" horiz-adv-x="522" d="M43 1511q0 77 54.5 131t135.5 54q102 0 154.5 -67t52.5 -175q0 -78 -12 -145t-31.5 -112.5t-43 -82t-47.5 -58t-43.5 -35.5t-31.5 -19l-12 -5l-84 93q5 3 12 9t26.5 27.5t34 46t26.5 64.5t12 84v8h-13q-81 0 -135.5 53t-54.5 129z" />
<glyph unicode="&#x201a;" horiz-adv-x="610" d="M104 152q0 77 56 130.5t135 53.5q102 0 154.5 -67t52.5 -175q0 -78 -12 -145t-31.5 -112.5t-43 -82t-47.5 -57.5t-43.5 -35t-31.5 -19l-12 -5l-84 92q4 3 11.5 9t26.5 27.5t33.5 46t26.5 64.5t12 84v8h-12q-79 0 -135 54t-56 129z" />
<glyph unicode="&#x201c;" horiz-adv-x="1097" d="M94 1370q0 78 12.5 145t32 112.5t43.5 82t47.5 58t43 35.5t31.5 19l13 5l82 -92q-4 -3 -11.5 -9t-26 -27.5t-33 -46.5t-26 -65t-11.5 -84v-8h10q81 0 136 -53t55 -129q0 -77 -55 -131t-136 -54q-102 0 -154.5 67t-52.5 175zM606 1370q0 78 12 145t31.5 112.5t43 82 t47.5 58t43.5 35.5t31.5 19l12 5l84 -92q-4 -3 -11.5 -9t-26.5 -27.5t-33.5 -46.5t-26.5 -65t-12 -84v-8h12q79 0 135 -53.5t56 -128.5q0 -77 -56 -131t-135 -54q-102 0 -154.5 67t-52.5 175z" />
<glyph unicode="&#x201d;" horiz-adv-x="1011" d="M43 1511q0 77 54.5 131t135.5 54q102 0 154.5 -67t52.5 -175q0 -78 -12 -145t-31.5 -112.5t-43 -82t-47.5 -58t-43.5 -35.5t-31.5 -19l-12 -5l-84 93q5 3 12 9t26.5 27.5t34 46t26.5 64.5t12 84v8h-13q-81 0 -135.5 53t-54.5 129zM532 1511q0 77 56 131t135 54 q103 0 156 -67t53 -175q0 -78 -12.5 -145t-32 -112.5t-43.5 -82t-47.5 -58t-43 -35.5t-31.5 -19l-13 -5l-84 93q4 3 11.5 9t26.5 27.5t33.5 46t26.5 64.5t12 84v8h-12q-79 0 -135 53.5t-56 128.5z" />
<glyph unicode="&#x201e;" horiz-adv-x="1095" d="M104 152q0 77 56 130.5t135 53.5q102 0 154.5 -67t52.5 -175q0 -78 -12 -145t-31.5 -112.5t-43 -82t-47.5 -57.5t-43.5 -35t-31.5 -19l-12 -5l-84 92q4 3 11.5 9t26.5 27.5t33.5 46t26.5 64.5t12 84v8h-12q-79 0 -135 54t-56 129zM590 152q0 77 54.5 130.5t135.5 53.5 q102 0 154.5 -67t52.5 -175q0 -78 -12 -145t-31.5 -112.5t-43 -82t-47.5 -57.5t-43.5 -35t-31.5 -19l-12 -5l-84 92q5 3 12 9t26.5 27.5t34 46t26.5 64.5t12 84v8h-13q-81 0 -135.5 53.5t-54.5 129.5z" />
<glyph unicode="&#x2022;" horiz-adv-x="987" d="M150 651q0 144 100.5 245t243.5 101q145 0 245.5 -100.5t100.5 -245.5t-100.5 -244.5t-245.5 -99.5q-143 0 -243.5 100t-100.5 244z" />
<glyph unicode="&#x2026;" horiz-adv-x="1572" d="M104 152q0 77 56 130.5t135 53.5q81 0 136.5 -53.5t55.5 -130.5q0 -76 -55.5 -129.5t-136.5 -53.5q-79 0 -135 54t-56 129zM602 152q0 77 55 130.5t136 53.5t136.5 -53.5t55.5 -130.5q0 -76 -55.5 -129.5t-136.5 -53.5t-136 53.5t-55 129.5zM1085 152q0 77 56 130.5 t135 53.5q81 0 136.5 -53.5t55.5 -130.5q0 -76 -55.5 -129.5t-136.5 -53.5q-79 0 -135 54t-56 129z" />
<glyph unicode="&#x202f;" horiz-adv-x="399" />
<glyph unicode="&#x2039;" horiz-adv-x="743" d="M86 354v181l430 391l141 -140l-323 -342l325 -340l-143 -139z" />
<glyph unicode="&#x203a;" horiz-adv-x="743" d="M84 104l326 340l-324 342l141 140l430 -391v-181l-430 -389z" />
<glyph unicode="&#x205f;" horiz-adv-x="499" />
<glyph unicode="&#x20ac;" horiz-adv-x="1736" d="M98 430v193h1041v-193h-508q123 -205 411 -205q90 0 179.5 18.5t152.5 44.5t113 52t75 44l25 19l80 -247q-9 -8 -26 -20.5t-77 -44.5t-128 -57t-177.5 -45t-226.5 -20q-157 0 -284.5 34t-218.5 96.5t-152 145t-96 185.5h-183zM98 774v193h166q66 232 262.5 362.5 t505.5 130.5q108 0 205 -14.5t158.5 -36t107 -42.5t65.5 -35l19 -15l-110 -240q-5 5 -16 13.5t-51 30.5t-87 39t-125.5 30.5t-165.5 13.5q-151 0 -262 -62t-168 -175h537v-193h-1041z" />
<glyph unicode="&#x2122;" horiz-adv-x="2007" d="M113 1206v176h737v-176h-270v-540h-189v540h-278zM924 666v716h237l230 -516l223 516h244v-716h-185v442l-196 -442h-179l-192 442v-442h-182z" />
<glyph unicode="&#x25fc;" horiz-adv-x="962" d="M0 0v963h963v-963h-963z" />
</font>
</defs>
</svg>
