<?xml version="1.0" standalone="no"?>
<!DOCTYPE svg PUBLIC "-//W3C//DTD SVG 1.1//EN" "http://www.w3.org/Graphics/SVG/1.1/DTD/svg11.dtd" >
<svg xmlns="http://www.w3.org/2000/svg">
<metadata></metadata>
<defs>
<font id="magallanes_essential_blackBlk" horiz-adv-x="1241" >
<font-face units-per-em="2048" ascent="1536" descent="-512" />
<missing-glyph horiz-adv-x="454" />
<glyph horiz-adv-x="0" />
<glyph horiz-adv-x="682" />
<glyph unicode=" "  horiz-adv-x="454" />
<glyph unicode="&#x09;" horiz-adv-x="454" />
<glyph unicode="&#xa0;" horiz-adv-x="454" />
<glyph unicode="!" horiz-adv-x="665" d="M94 188q0 91 69.5 156.5t168.5 65.5t169 -65.5t70 -156.5t-69.5 -155t-169.5 -64q-99 0 -168.5 64t-69.5 155zM117 1434h436l-57 -918h-332z" />
<glyph unicode="&#x22;" horiz-adv-x="919" d="M74 1647h340l-52 -508h-235zM504 1647h340l-51 -508h-236z" />
<glyph unicode="#" horiz-adv-x="1466" d="M104 213v262h220l57 193h-164v262h240l45 153h282l-45 -153h230l45 153h282l-45 -153h129v-262h-204l-58 -193h150v-262h-226l-61 -213h-283l62 213h-230l-61 -213h-283l62 213h-144zM606 475h230l57 193h-229z" />
<glyph unicode="$" horiz-adv-x="1456" d="M53 178l160 309q8 -7 23 -18.5t66.5 -40.5t108.5 -51.5t145.5 -41t180.5 -18.5q120 0 184 26t64 75q0 28 -21.5 45.5t-79 34t-171.5 37.5q-72 12 -125.5 23t-121 30.5t-116 42.5t-99 59.5t-82 80t-51.5 104t-20 133.5q-2 194 165.5 323t457.5 129q112 0 219.5 -14 t181.5 -34t132 -40.5t86 -34.5l28 -14l-133 -330q-7 5 -21 13t-63 28.5t-104 36t-143.5 28.5t-182.5 13q-219 0 -219 -94q0 -12 5.5 -23t18 -20t24.5 -16.5t34 -15t37 -12.5t43 -11t43 -9.5t45 -9.5t41 -8q154 -28 259.5 -64.5t184 -92.5t115.5 -136.5t37 -191.5 q0 -202 -172 -321t-480 -118q-100 0 -192 12t-159 30.5t-124.5 40.5t-94.5 44.5t-64 40.5t-39 29zM557 -629l53 484h236l51 -484h-340zM557 2017h340l-51 -483h-236z" />
<glyph unicode="%" horiz-adv-x="1542" d="M70 1141q0 145 89.5 232t248.5 87q158 0 246.5 -87t88.5 -232t-89 -234.5t-246 -89.5t-247.5 89.5t-90.5 234.5zM100 -31l1024 1491h312l-1024 -1491h-312zM285 1141q0 -60 32 -94.5t91 -34.5t90.5 34.5t31.5 94.5q0 54 -31.5 83t-90.5 29t-91 -29t-32 -83zM803 293 q0 145 89.5 232t248.5 87t247.5 -87t88.5 -232t-89.5 -234.5t-246.5 -89.5t-247.5 89.5t-90.5 234.5zM1018 293q0 -60 32 -94.5t91 -34.5t91 34.5t32 94.5q0 54 -32 83.5t-91 29.5t-91 -29.5t-32 -83.5z" />
<glyph unicode="&#x26;" horiz-adv-x="1521" d="M96 440q0 58 16.5 111t39.5 88.5t54.5 66.5t54.5 47.5t46 28.5q-92 132 -92 287q0 173 136.5 282t375.5 109q98 0 188 -16t148 -38t102 -44.5t64 -38.5l20 -16l-139 -310q-4 5 -11.5 12.5t-35.5 27.5t-59.5 35t-84.5 27.5t-110 12.5q-93 0 -131.5 -37t-38.5 -88 q0 -75 78 -151l354 -347q35 75 35 162h342q0 -228 -127 -405l149 -144l-229 -237l-176 170q-159 -68 -336 -68q-313 0 -473 121.5t-160 351.5zM461 455q0 -74 65 -117t203 -43q24 0 64 4l-285 274q-47 -54 -47 -118z" />
<glyph unicode="'" horiz-adv-x="489" d="M74 1647h340l-52 -508h-235z" />
<glyph unicode="(" horiz-adv-x="735" d="M68 494q0 144 17.5 283t46 245.5t62.5 202t68.5 162t63 115t46.5 72.5l17 23l311 -163q-11 -12 -29.5 -35.5t-65.5 -109t-82.5 -185t-65 -264.5t-29.5 -346q0 -132 15 -254.5t39 -214t53 -171t58 -133t53 -92t39 -55.5l15 -18l-311 -164q-7 8 -18.5 24t-44.5 71 t-63.5 116.5t-67.5 160.5t-63.5 203.5t-45 243.5t-18.5 283z" />
<glyph unicode=")" horiz-adv-x="735" d="M35 -444q11 12 29.5 35.5t65.5 109t82.5 184.5t65 263.5t29.5 345.5q0 132 -15 255t-39 214.5t-53 171.5t-58 133.5t-53 92t-39 55.5l-15 18l311 163q7 -8 18.5 -24t45 -71t64 -116.5t67.5 -160.5t63.5 -203.5t45 -244t18.5 -283.5t-18 -282.5t-46 -245t-62.5 -201.5 t-69 -161.5t-62.5 -115.5t-46 -72l-18 -24z" />
<glyph unicode="*" horiz-adv-x="1103" d="M68 997l280 125l-280 125l135 232l248 -181l-33 306h268l-33 -306l248 181l135 -232l-282 -125l282 -125l-135 -231l-248 180l33 -305h-268l35 307l-250 -182z" />
<glyph unicode="+" horiz-adv-x="1282" d="M70 582v323h409v410h324v-410h409v-323h-409v-410h-324v410h-409z" />
<glyph unicode="," horiz-adv-x="700" d="M80 205q0 98 74.5 167.5t181.5 69.5q135 0 206.5 -86t71.5 -227q0 -88 -15.5 -164t-40 -127.5t-54 -93.5t-59 -66t-54 -40.5t-39.5 -22.5l-16 -6l-127 131q5 4 14.5 11t32.5 30.5t41 48.5t32.5 62.5t14.5 74.5v2h-8q-107 0 -181.5 69t-74.5 167z" />
<glyph unicode="-" horiz-adv-x="864" d="M111 424v324h643v-324h-643z" />
<glyph unicode="." horiz-adv-x="673" d="M80 205q0 98 74.5 167.5t181.5 69.5t182.5 -69.5t75.5 -167.5t-75.5 -167t-182.5 -69t-181.5 69t-74.5 167z" />
<glyph unicode="/" horiz-adv-x="1017" d="M49 -508l565 1942h355l-566 -1942h-354z" />
<glyph unicode="0" horiz-adv-x="1501" d="M74 719q0 169 52 309t142.5 234t215 146t268.5 52q143 0 267 -52t214.5 -146.5t142 -234.5t51.5 -308q0 -224 -78 -392t-231.5 -263t-365.5 -95q-213 0 -367.5 95t-232.5 263t-78 392zM477 719q0 -201 64.5 -299t210.5 -98q145 0 208.5 98.5t63.5 298.5 q0 192 -70.5 290.5t-203.5 98.5q-273 -3 -273 -389z" />
<glyph unicode="1" horiz-adv-x="1073" d="M-8 1106q575 328 577 328h361v-1434h-410v973l-332 -197z" />
<glyph unicode="2" horiz-adv-x="1320" d="M47 1319q9 6 25.5 15.5t73.5 33.5t120 43t162.5 34t202.5 15q277 0 427 -130.5t150 -342.5q0 -140 -52.5 -240t-174.5 -200l-248 -203h498v-344h-1127v324l480 350q131 99 176 153.5t45 128.5q0 63 -58 107.5t-157 44.5q-69 0 -134.5 -14t-110 -34t-79 -39.5t-50.5 -33.5 l-17 -14z" />
<glyph unicode="3" horiz-adv-x="1376" d="M27 162l157 327q7 -7 21 -18t60.5 -40t97 -51t129.5 -40t159 -18q112 0 180 30.5t68 85.5q0 131 -369 131v318q320 0 320 119q0 38 -52 70t-143 32q-67 0 -132.5 -14t-111.5 -34t-82 -39.5t-53 -33.5l-18 -14l-149 348q9 6 25 15t70.5 33t113.5 42.5t151 33.5t186 15 q279 0 438.5 -109t159.5 -282q0 -82 -18.5 -143t-52.5 -98.5t-74 -59t-92 -33.5q57 -6 105 -26.5t90.5 -60t67 -108.5t24.5 -161q0 -186 -173.5 -298t-478.5 -112q-107 0 -210.5 20t-175 48.5t-127.5 56.5t-84 48z" />
<glyph unicode="4" horiz-adv-x="1366" d="M51 233v297l363 889h430l-328 -844h252v349h393v-349h156v-342h-156v-233h-393v233h-717z" />
<glyph unicode="5" horiz-adv-x="1366" d="M35 96l158 328q6 -4 17.5 -11.5t52 -26.5t86 -33t117.5 -26t148 -12q149 0 223 32t74 104q0 151 -305 151q-111 0 -223.5 -14t-169.5 -28l-57 -13l61 887h989v-344h-659l-15 -177q76 15 187 15q90 0 168.5 -13t156 -46.5t132 -85.5t88.5 -137t34 -195q0 -230 -169 -357 t-474 -127q-105 0 -207.5 13.5t-174 32.5t-127.5 37.5t-84 31.5z" />
<glyph unicode="6" horiz-adv-x="1394" d="M76 729q0 162 47.5 296t137.5 231t228.5 150.5t313.5 53.5q87 0 170 -12.5t139 -30t99.5 -34.5t64.5 -29l20 -13l-163 -329q-4 4 -12.5 10.5t-37 23t-60.5 29t-83 23t-104 10.5q-144 0 -235 -67t-120 -191q127 53 262 53q278 0 429 -122.5t151 -350.5q0 -201 -158.5 -331 t-410.5 -130q-144 0 -259 40t-192.5 109t-129 166t-74.5 207.5t-23 237.5zM485 559q52 -237 269 -237q74 0 120 39.5t46 99.5q0 72 -46.5 111.5t-130.5 39.5q-135 0 -258 -53z" />
<glyph unicode="7" d="M39 1090v344h1157v-324l-491 -1110h-439l484 1090h-711z" />
<glyph unicode="8" horiz-adv-x="1431" d="M74 389q0 220 272 344q-223 109 -223 346q0 168 160 274.5t436 106.5q271 0 429.5 -106.5t158.5 -274.5q0 -220 -193 -323q244 -135 244 -357q0 -71 -21 -133t-69.5 -117t-121 -94.5t-181.5 -62.5t-246 -23q-173 0 -301 33.5t-201.5 93t-108 132.5t-34.5 161zM477 440 q0 -64 60.5 -111.5t181.5 -47.5q119 0 177 49.5t58 120.5q0 48 -19 83t-54 55.5t-73 32t-89 19.5q-35 -8 -62 -15.5t-63 -23.5t-59.5 -36t-40.5 -53t-17 -73zM526 1028q0 -33 12 -58t29 -39.5t41.5 -25t42.5 -14t40.5 -7.5t27.5 -5l92 -17q82 47 82 156q0 60 -48 98.5 t-126 38.5q-87 0 -140 -35.5t-53 -91.5z" />
<glyph unicode="9" horiz-adv-x="1394" d="M72 999q0 201 158.5 331t410.5 130q144 0 259 -40t192.5 -109t129 -166t74.5 -207.5t23 -237.5q0 -162 -47.5 -296t-137.5 -231t-228.5 -150.5t-313.5 -53.5q-87 0 -170 12.5t-139 30t-100 34.5t-65 30l-20 12l164 330q4 -4 12.5 -10.5t37 -23t60.5 -29t83 -23t104 -10.5 q142 0 232.5 66t119.5 190q-121 -52 -260 -52q-278 0 -428.5 122.5t-150.5 350.5zM475 969q0 -72 46.5 -112t129.5 -40q136 0 258 51q-53 240 -268 240q-74 0 -120 -39.5t-46 -99.5z" />
<glyph unicode=":" horiz-adv-x="673" d="M98 188q0 91 69.5 156.5t168.5 65.5t169 -65.5t70 -156.5t-69.5 -155t-169.5 -64q-99 0 -168.5 64t-69.5 155zM98 768q0 91 69.5 156t168.5 65t169 -65t70 -156t-69.5 -155t-169.5 -64q-99 0 -168.5 64t-69.5 155z" />
<glyph unicode=";" horiz-adv-x="706" d="M96 182q0 94 72 161t174 67q135 0 207 -78t72 -205q0 -90 -15.5 -167.5t-40 -129t-54 -93t-59.5 -65t-54.5 -39t-39.5 -21.5l-16 -5l-127 131q5 4 14.5 11t32.5 30.5t41 48.5t32.5 62.5t14.5 74.5v2h-8q-103 0 -174.5 63t-71.5 152zM102 774q0 91 69.5 156t168.5 65 t169.5 -65t70.5 -156t-70 -155t-170 -64q-99 0 -168.5 64t-69.5 155z" />
<glyph unicode="&#x3c;" horiz-adv-x="847" d="M66 362v328l679 338v-323l-358 -179l358 -178v-313z" />
<glyph unicode="=" horiz-adv-x="1112" d="M111 160v323h890v-323h-890zM111 649v324h890v-324h-890z" />
<glyph unicode="&#x3e;" horiz-adv-x="847" d="M102 35v313l359 178l-359 179v323l680 -338v-328z" />
<glyph unicode="?" horiz-adv-x="1239" d="M55 1288q9 7 26 18.5t74.5 41t119 52.5t156 41.5t190.5 18.5q256 0 398 -122t142 -320q0 -63 -22 -120t-57 -99t-77.5 -77.5t-84.5 -58.5t-77 -40t-57 -24l-22 -7v-78h-328v289q7 1 18.5 3.5t45 12t64 20t67.5 29t63.5 39.5t45 50t18.5 61q0 41 -37 67.5t-100 26.5 q-69 0 -136.5 -14t-115 -34t-85.5 -40.5t-56 -34.5l-19 -14zM354 188q0 91 69.5 156.5t168.5 65.5t169 -65.5t70 -156.5t-69.5 -155t-169.5 -64q-99 0 -168.5 64t-69.5 155z" />
<glyph unicode="@" horiz-adv-x="2287" d="M80 516q0 209 78 385t219 300.5t346 194.5t451 70q237 0 434.5 -66t332.5 -184.5t210 -285t75 -363.5q0 -148 -48 -261.5t-133.5 -181.5t-194.5 -102t-238 -34q-205 0 -262 129v2q-15 -25 -37 -47t-60.5 -47.5t-99.5 -40.5t-137 -15q-206 0 -317 143.5t-111 372.5 q0 227 157.5 364.5t415.5 137.5q108 0 202 -20t152 -48.5t100 -57t59 -48.5l18 -20v-459q1 -31 13.5 -42t43.5 -11q75 2 106 65t31 221q0 275 -195.5 435.5t-516.5 160.5q-334 0 -536 -174.5t-202 -472.5q0 -163 50 -298t139 -234.5t221 -180.5l-166 -272 q-124 52 -225.5 134t-170 179t-115.5 210.5t-68 228.5t-21 233zM956 477q0 -107 48 -155t145 -48q112 0 188 101v256q-62 53 -188 53q-84 0 -138.5 -54t-54.5 -153z" />
<glyph unicode="A" horiz-adv-x="1546" d="M-6 0l561 1434h436l561 -1434h-415l-93 258h-544l-90 -258h-416zM608 571h326l-162 463z" />
<glyph unicode="B" horiz-adv-x="1464" d="M143 0v1434h723q236 0 349.5 -98t113.5 -265q0 -268 -209 -338q149 -29 215 -114t66 -238q0 -179 -139 -280t-369 -101h-750zM532 344h340q70 0 106 30.5t36 88.5q0 119 -162 119h-320v-238zM532 860h289q51 0 84 29t33 90q0 49 -32.5 80t-90.5 31h-283v-230z" />
<glyph unicode="C" horiz-adv-x="1568" d="M68 729q0 167 53 301.5t156.5 230.5t263 147.5t364.5 51.5q111 0 210 -14t162 -34t110 -39.5t67 -33.5l21 -14l-136 -342q-5 5 -15.5 14t-49.5 31t-84.5 39t-122.5 31t-162 14q-185 0 -309.5 -108.5t-124.5 -274.5q0 -189 114 -300.5t341 -111.5q87 0 172.5 18t146 44.5 t109 52.5t72.5 44l24 18l98 -340q-9 -8 -25.5 -20t-76.5 -44t-128 -56.5t-180 -44.5t-233 -20q-178 0 -320 40t-237.5 109t-159.5 166t-92 207.5t-28 237.5z" />
<glyph unicode="D" horiz-adv-x="1611" d="M143 0v1434h629q373 0 570.5 -185.5t197.5 -539.5q0 -348 -203.5 -528.5t-564.5 -180.5h-629zM532 344h207h9q199 0 300 87q103 89 103 278q0 198 -103 289.5t-317 91.5h-199v-746z" />
<glyph unicode="E" horiz-adv-x="1441" d="M143 0v1434h1211v-344h-822v-213h633v-304h-633v-229h822v-344h-1211z" />
<glyph unicode="F" horiz-adv-x="1382" d="M143 0v1434h1211v-344h-822v-254h633v-304h-633v-532h-389z" />
<glyph unicode="G" horiz-adv-x="1607" d="M68 729q0 167 53 301.5t156.5 230.5t263 147.5t364.5 51.5q111 0 210 -14t162 -34t110 -39.5t67 -33.5l21 -14l-136 -342q-5 5 -15.5 14t-49.5 31t-84.5 39t-122.5 31t-162 14q-185 0 -309.5 -108.5t-124.5 -274.5q0 -189 114 -300.5t341 -111.5q110 0 219 33v170h-389 v283h764v-649q-8 -8 -24 -20t-73 -44t-122.5 -56.5t-172.5 -44.5t-223 -20q-178 0 -320 40t-237.5 109t-159.5 166t-92 207.5t-28 237.5z" />
<glyph unicode="H" horiz-adv-x="1632" d="M143 0v1434h389v-580h568v580h389v-1434h-389v510h-568v-510h-389z" />
<glyph unicode="I" horiz-adv-x="675" d="M143 0v1434h389v-1434h-389z" />
<glyph unicode="J" horiz-adv-x="679" d="M43 76q5 5 13 14t28 41t35.5 68.5t28 94.5t12.5 120v1020h389v-1016q0 -81 -14 -152t-36.5 -120t-50 -90t-55 -66t-50 -42t-36.5 -24l-14 -6z" />
<glyph unicode="K" horiz-adv-x="1548" d="M143 0v1434h389v-596h107q56 0 96.5 6t78.5 22t63 44.5t46.5 72.5t33 107.5t18 148t6.5 195.5h391q0 -313 -66.5 -517t-220.5 -309l160 -248q27 -41 54 -55t63 -14q24 0 52 5.5t44 11.5l15 5l79 -250q-14 -8 -38.5 -20.5t-102.5 -33.5t-156 -21q-62 0 -115.5 17t-92 41.5 t-77 67t-63.5 79t-57 90.5l-129 213q-29 -2 -92 -2h-97v-494h-389z" />
<glyph unicode="L" horiz-adv-x="1265" d="M143 0v1434h389v-1090h719v-344h-1108z" />
<glyph unicode="M" horiz-adv-x="1830" d="M143 0v1434h355l417 -852l418 852h355v-1434h-390v627l-272 -627h-221l-273 627v-627h-389z" />
<glyph unicode="N" horiz-adv-x="1622" d="M143 0v1434h303l644 -797v797h389v-1434h-301l-646 754v-754h-389z" />
<glyph unicode="O" horiz-adv-x="1761" d="M66 719q0 333 219 537t596 204t596 -204t219 -537q0 -123 -31.5 -234t-97.5 -205.5t-161 -163.5t-229.5 -108t-295.5 -39t-295.5 39t-229.5 108t-161 163.5t-97.5 205.5t-31.5 234zM459 719q0 -84 24.5 -155t74 -127t132 -88t191.5 -32q107 0 189.5 32t132.5 88t75 127.5 t25 154.5q0 168 -115.5 280.5t-306.5 112.5t-306.5 -112.5t-115.5 -280.5z" />
<glyph unicode="P" horiz-adv-x="1490" d="M143 0v1434h678q299 0 466 -134t167 -399q0 -266 -167 -401t-466 -135h-289v-365h-389zM532 709h289q244 0 244 192q0 101 -59 145t-185 44h-289v-381z" />
<glyph unicode="Q" horiz-adv-x="1765" d="M68 719q0 333 219 537t596 204t596 -204t219 -537q0 -138 -40.5 -260t-119 -221t-204 -166.5t-285.5 -89.5q13 -121 91 -169.5t236 -48.5v-354q-161 0 -280.5 29.5t-209.5 95.5t-138.5 178t-55.5 271q-154 26 -274.5 94t-196 166.5t-114.5 219t-39 255.5zM461 719 q0 -84 24.5 -155t74 -127t132 -88t191.5 -32q107 0 189.5 32t132.5 88t75 127.5t25 154.5q0 168 -115.5 280.5t-306.5 112.5t-306.5 -112.5t-115.5 -280.5z" />
<glyph unicode="R" horiz-adv-x="1525" d="M143 0v1434h613q299 0 451.5 -126.5t152.5 -369.5q0 -299 -236 -416l88 -162q21 -37 47 -53t70 -16q22 0 47 5.5t40 11.5l14 5l100 -250q-13 -8 -36.5 -20.5t-101 -33.5t-159.5 -21q-73 0 -131 14.5t-98 37t-75 63t-58.5 79.5t-53.5 101l-80 163h-205v-446h-389zM532 770 h213q116 0 173 41t57 127q0 152 -178 152h-265v-320z" />
<glyph unicode="S" horiz-adv-x="1439" d="M43 178l160 309q8 -7 23 -18.5t66.5 -40.5t108.5 -51.5t145.5 -41t180.5 -18.5q120 0 184 26t64 75q0 40 -53 63.5t-220 53.5q-72 12 -125.5 23t-121 30.5t-116 42.5t-98.5 59.5t-81.5 80t-51.5 104t-20 138.5q0 191 166 318q168 129 457 129q112 0 219.5 -14t181.5 -34 t132 -40.5t86 -34.5l28 -14l-133 -330q-7 5 -21 13t-63 28.5t-104 36t-143.5 28.5t-182.5 13q-219 0 -219 -94q0 -12 5.5 -23t18 -20t24.5 -16.5t34 -15t37 -12.5t43 -11t42 -9.5t44.5 -9.5t41.5 -8q154 -28 259.5 -64.5t184 -92.5t115.5 -136.5t37 -191.5q0 -202 -172 -321 q-170 -118 -474 -118h-5q-100 0 -192 12t-159 30.5t-124.5 40.5t-94.5 44.5t-64 40.5t-39 29z" />
<glyph unicode="T" horiz-adv-x="1490" d="M14 1100v334h1463v-334h-547v-1100h-389v1100h-527z" />
<glyph unicode="U" horiz-adv-x="1570" d="M129 606v828h389v-838q0 -154 62.5 -223.5t203.5 -69.5t205 69t64 224v838h389v-828q0 -174 -40 -295.5t-123 -197.5t-204 -110t-291 -34q-339 0 -497 147.5t-158 489.5z" />
<glyph unicode="V" horiz-adv-x="1619" d="M-10 1434h467l352 -1004l354 1004h467l-581 -1434h-478z" />
<glyph unicode="W" horiz-adv-x="2392" d="M4 1434h467l260 -1004l273 1004h385l272 -1004l260 1004h467l-490 -1434h-477l-225 772l-225 -772h-477z" />
<glyph unicode="X" horiz-adv-x="1607" d="M-8 0l536 711l-536 723h481l334 -478l328 478h481l-537 -736l537 -698h-481l-334 459l-328 -459h-481z" />
<glyph unicode="Y" horiz-adv-x="1542" d="M-8 1434h446l332 -539l334 539h446l-585 -924v-510h-390v512z" />
<glyph unicode="Z" horiz-adv-x="1429" d="M88 0v301l735 789h-735v344h1253v-291l-718 -797h718v-346h-1253z" />
<glyph unicode="[" horiz-adv-x="886" d="M131 -608v2179h692v-328h-331v-1524h331v-327h-692z" />
<glyph unicode="\" horiz-adv-x="1017" d="M49 1434h354l566 -1942h-355z" />
<glyph unicode="]" horiz-adv-x="886" d="M63 -281h332v1524h-332v328h693v-2179h-693v327z" />
<glyph unicode="^" horiz-adv-x="1079" d="M80 1051l289 542h370l252 -544h-276l-162 323l-197 -321h-276z" />
<glyph unicode="_" horiz-adv-x="1054" d="M111 -10h833v-246h-833v246z" />
<glyph unicode="`" horiz-adv-x="702" d="M41 1552h432l189 -432h-338z" />
<glyph unicode="a" horiz-adv-x="1189" d="M41 256q0 125 124 202t382 77q65 0 121 -9v27q0 76 -44.5 104.5t-154.5 28.5q-77 0 -153 -15t-113 -29l-37 -15l-60 299q20 7 57 17t156.5 27t245.5 17q471 0 471 -364v-273q0 -40 12 -54.5t46 -14.5q10 0 26 3.5t26 7.5l11 3l39 -238q-11 -8 -32 -19.5t-83.5 -30.5 t-124.5 -19q-207 0 -262 133q-18 -22 -41 -43t-63.5 -48.5t-98.5 -44t-124 -16.5q-146 0 -236 75t-90 212zM412 295q0 -29 26.5 -46.5t67.5 -17.5q100 0 162 43v93q-45 10 -101 10q-155 0 -155 -82z" />
<glyph unicode="b" horiz-adv-x="1267" d="M104 166v1280l369 90v-666q95 117 299 117q141 0 241.5 -68.5t148.5 -183.5t48 -264q0 -227 -157.5 -364.5t-415.5 -137.5q-76 0 -146.5 10.5t-120.5 25.5t-96 37.5t-73 39.5t-52 39t-31 29t-13 15zM459 315q9 -9 24.5 -19t61.5 -22t104 -12q83 0 138 57t55 160 q0 113 -47.5 163t-145.5 50q-116 0 -190 -74v-303z" />
<glyph unicode="c" horiz-adv-x="1093" d="M57 485q0 104 35 194t103 159.5t177.5 109t248.5 39.5q77 0 146.5 -9.5t114.5 -23t78.5 -27t48.5 -23.5l15 -9l-123 -293q-10 7 -28.5 17.5t-80 27.5t-126.5 17q-111 0 -169.5 -50.5t-58.5 -126.5q0 -83 62 -139q60 -56 158 -55h4q55 1 104.5 12.5t80.5 28t54 33t33 27.5 l10 12l127 -289q-7 -6 -19.5 -16t-57 -35.5t-95 -45t-131.5 -35.5t-168 -16q-251 0 -397 133.5t-146 382.5z" />
<glyph unicode="d" horiz-adv-x="1347" d="M59 485q0 229 135.5 365.5t346.5 136.5q186 0 264 -78v537l369 90v-1186q0 -40 11.5 -54.5t45.5 -14.5q10 0 26 3.5t27 7.5l10 3l39 -238q-11 -8 -31.5 -19.5t-83 -30.5t-124.5 -19q-202 0 -263 131q-93 -150 -333 -150q-141 0 -242 68.5t-149 183.5t-48 264zM428 487 q0 -215 203 -215q114 0 188 88v242q-57 82 -188 82q-89 0 -146 -51t-57 -146z" />
<glyph unicode="e" horiz-adv-x="1150" d="M55 485q0 105 34.5 194.5t101 159t173.5 109t244 39.5q121 0 219 -40t156 -103.5t88.5 -135.5t30.5 -143q0 -44 -5 -81t-9 -52l-5 -16h-667q41 -154 237 -154q88 0 162 17.5t105 34.5l30 18l109 -226q-8 -6 -22 -15t-59.5 -32.5t-94 -41.5t-121 -33t-144.5 -15 q-139 0 -248 41.5t-177 113.5t-103 164t-35 197zM412 580h358q0 68 -47.5 106.5t-120.5 38.5q-76 0 -124.5 -37.5t-65.5 -107.5z" />
<glyph unicode="f" horiz-adv-x="923" d="M33 647l41 311h131v136q0 234 116 339t330 105q84 0 157.5 -15t105.5 -31l32 -15l-92 -306q-53 31 -147 31q-65 0 -99.5 -33.5t-34.5 -91.5v-119h322v-311h-322v-647h-368v647h-172z" />
<glyph unicode="g" horiz-adv-x="1206" d="M41 -260q0 148 199 223q-111 52 -111 152q0 86 125 147q-98 52 -149.5 134t-51.5 184q0 84 32 155.5t97.5 129t176.5 90t257 32.5q94 0 179 -16q57 20 81.5 105.5t24.5 266.5h330q0 -352 -227 -460q157 -113 157 -303q0 -177 -143 -286.5t-397 -109.5h-48 q-43 -2 -83.5 -14t-40.5 -35q0 -26 40.5 -34.5t124.5 -8.5q135 0 238.5 -19.5t166 -50.5t101.5 -75.5t53.5 -89.5t14.5 -97q0 -151 -145.5 -239t-426.5 -88q-279 0 -427 83t-148 224zM414 -244q0 -88 202 -88q201 0 201 82q0 48 -42.5 77.5t-162.5 29.5q-64 0 -129 6 q-69 -33 -69 -107zM426 557q0 -63 47 -100t143 -37q84 0 129.5 37.5t45.5 99.5q0 68 -44.5 105.5t-134.5 37.5q-186 0 -186 -143z" />
<glyph unicode="h" horiz-adv-x="1300" d="M113 0v1446l368 90v-682q133 133 316 133q171 0 260.5 -95t89.5 -271v-271q0 -40 11.5 -54.5t45.5 -14.5q10 0 26 3.5t27 7.5l11 3l39 -238q-11 -8 -32 -19.5t-83.5 -30.5t-124.5 -19q-160 0 -224.5 74.5t-64.5 220.5v202q0 92 -32.5 130t-94.5 38q-87 0 -170 -65v-588 h-368z" />
<glyph unicode="i" horiz-adv-x="593" d="M88 1298q0 88 58 141.5t155 53.5t156 -53.5t59 -141.5q0 -87 -59 -139.5t-156 -52.5t-155 52t-58 140zM113 0v958h368v-958h-368z" />
<glyph unicode="j" horiz-adv-x="595" d="M-4 -399q5 5 13 14t28 41t35.5 68.5t28 94.5t12.5 120v1019h370v-1015q0 -81 -14 -152t-36.5 -120t-50 -90t-55 -66t-50 -42t-36.5 -23l-14 -7zM92 1298q0 88 58 141.5t155 53.5t156 -53.5t59 -141.5q0 -87 -59 -139.5t-156 -52.5t-155 52t-58 140z" />
<glyph unicode="k" horiz-adv-x="1296" d="M113 0v1446l368 90v-932h78q111 0 169 82.5t58 271.5h369q0 -389 -199 -546l45 -62q29 -40 55.5 -54.5t61.5 -14.5q22 0 47 5.5t39 11.5l15 5l69 -240q-4 -3 -12.5 -8t-35.5 -18t-56 -23t-73.5 -18t-88.5 -8q-62 0 -116 16t-94 41.5t-77.5 66t-63.5 80t-55 91.5l-20 36 h-115v-319h-368z" />
<glyph unicode="l" horiz-adv-x="671" d="M109 283v1163l368 90v-1186q0 -40 12 -54.5t46 -14.5q17 0 43 3.5t44 7.5l17 3l39 -244q-13 -7 -37 -17.5t-97.5 -28t-146.5 -17.5q-160 0 -224 74.5t-64 220.5z" />
<glyph unicode="m" horiz-adv-x="1939" d="M109 0v897l368 90v-133q133 133 316 133q220 0 305 -158q18 22 43.5 44.5t67.5 50.5t101.5 45.5t125.5 17.5q171 0 260.5 -95t89.5 -271v-271q0 -40 11.5 -54.5t45.5 -14.5q10 0 26 3.5t27 7.5l11 3l39 -238q-11 -8 -32 -19.5t-83.5 -30.5t-124.5 -19q-160 0 -224.5 74.5 t-64.5 220.5v202q0 92 -32.5 130t-94.5 38q-74 0 -147 -49v-604h-369v485q0 92 -32.5 130t-94.5 38q-87 0 -170 -65v-588h-368z" />
<glyph unicode="n" horiz-adv-x="1296" d="M109 0v897l368 90v-133q133 133 316 133q171 0 260.5 -95t89.5 -271v-271q0 -40 11.5 -54.5t45.5 -14.5q10 0 26 3.5t27 7.5l11 3l39 -238q-11 -8 -32 -19.5t-83.5 -30.5t-124.5 -19q-160 0 -224.5 74.5t-64.5 220.5v202q0 92 -32.5 130t-94.5 38q-87 0 -170 -65v-588 h-368z" />
<glyph unicode="o" d="M55 475q0 106 37 198.5t107 162.5t178.5 110.5t243.5 40.5t243.5 -40.5t178 -110.5t106.5 -162.5t37 -198.5q0 -102 -37.5 -193t-107.5 -161t-178.5 -111t-241.5 -41t-242 41t-178.5 111t-107.5 161t-38 193zM426 477q0 -91 53 -148t142 -57t141.5 57t52.5 148 q0 89 -49 147t-145 58q-98 0 -146.5 -57t-48.5 -148z" />
<glyph unicode="p" horiz-adv-x="1284" d="M109 -539v1436l368 90v-119q97 119 309 119q141 0 242 -68.5t149 -183.5t48 -264q0 -229 -135.5 -365.5t-346.5 -136.5q-192 0 -266 80v-588h-368zM463 354q7 -10 18 -21t33 -26.5t58.5 -25t80.5 -9.5q89 0 146 51t57 146q0 215 -203 215q-118 0 -190 -92v-238z" />
<glyph unicode="q" horiz-adv-x="1265" d="M57 485q0 227 158 364.5t416 137.5q79 0 150.5 -10.5t123.5 -28t96 -38t73 -41t49 -38t29 -27.5l9 -11v-1332h-368v621q-96 -113 -297 -113q-141 0 -242 68.5t-149 183.5t-48 264zM426 477q0 -113 47 -163t145 -50q112 0 189 72v305q-62 53 -189 53q-83 0 -137.5 -57 t-54.5 -160z" />
<glyph unicode="r" horiz-adv-x="933" d="M109 0v897l368 90v-176q123 176 295 176q52 0 94 -11.5t58 -23.5l16 -12l-100 -319q-46 32 -152 32q-109 0 -211 -112v-541h-368z" />
<glyph unicode="s" horiz-adv-x="1105" d="M39 96l106 250q6 -4 17 -11t48.5 -24t79.5 -30t108.5 -24t136.5 -11q106 0 106 53q0 12 -5 21t-16.5 15.5t-24 11t-33 8t-37.5 6t-44.5 6t-46.5 6.5q-57 10 -99.5 20.5t-94 33t-84.5 52t-55.5 78t-22.5 109.5q0 47 17 91t55.5 86.5t96 74t145 50.5t194.5 19 q120 0 227 -15.5t154 -31.5l47 -16l-70 -310q-5 3 -13.5 8.5t-39.5 19t-65.5 23.5t-91 18.5t-116.5 8.5q-122 0 -122 -57q0 -8 2.5 -14.5t8.5 -12t12 -9.5t17 -7.5t20 -5.5t24.5 -4.5t26 -4t29 -4t30.5 -4.5q37 -6 58 -9.5t58 -11.5t60 -15.5t55 -20.5t52 -26.5t43 -33.5 t35.5 -43t21 -53t8.5 -65q0 -143 -125 -232.5t-369 -89.5q-103 0 -194.5 13t-149 31.5t-100.5 37.5t-61 32z" />
<glyph unicode="t" horiz-adv-x="1003" d="M29 647l41 314h131v198l368 90v-288h332v-314h-332v-217q0 -67 28 -96t95 -29q56 0 105.5 12.5t71.5 25.5l22 13l92 -305q-6 -3 -16.5 -8.5t-47.5 -20t-77.5 -25t-104.5 -19.5t-131 -9q-405 0 -405 383v295h-172z" />
<glyph unicode="u" horiz-adv-x="1302" d="M94 336v561l369 90v-520q0 -91 32 -127.5t95 -36.5q88 0 170 64v530l368 90v-637q0 -40 12 -54.5t46 -14.5q10 0 26 3.5t26 7.5l11 3l39 -238q-11 -8 -31.5 -19.5t-83 -30.5t-124.5 -19q-111 0 -174.5 34.5t-92.5 104.5q-19 -23 -43.5 -44t-67 -50t-102 -46.5 t-125.5 -17.5q-171 0 -260.5 95.5t-89.5 271.5z" />
<glyph unicode="v" horiz-adv-x="1263" d="M0 958h442l189 -593l190 593h443l-420 -958h-424z" />
<glyph unicode="w" horiz-adv-x="1767" d="M14 958h402l147 -610l160 610h321l160 -610l148 610h401l-338 -958h-434l-98 379l-97 -379h-434z" />
<glyph unicode="x" horiz-adv-x="1271" d="M4 0l379 489l-369 469h435l182 -270l188 270h434l-372 -458l393 -500h-434l-199 279l-203 -279h-434z" />
<glyph unicode="y" horiz-adv-x="1208" d="M4 958h412l194 -579l185 579h411l-616 -1497h-387l237 539h-47z" />
<glyph unicode="z" horiz-adv-x="1165" d="M84 0v264l477 383h-477v311h999v-243l-481 -400h481v-315h-999z" />
<glyph unicode="{" horiz-adv-x="866" d="M53 324v317h41q54 0 92.5 31t38.5 98v234q0 123 29 217t78.5 153t123.5 96t155 51.5t182 14.5v-328q-99 0 -154 -53.5t-55 -159.5v-307q0 -42 -12 -77t-28.5 -55t-38 -34.5t-36.5 -20t-27 -7.5q12 -3 26 -8t36 -19.5t38.5 -34.5t29 -55t12.5 -78v-338q0 -115 53.5 -164 t155.5 -49v-328q-101 0 -182 14t-155 50t-123.5 94t-78.5 149t-29 212v258q0 67 -38.5 97t-92.5 30h-41z" />
<glyph unicode="|" horiz-adv-x="620" d="M131 -608v2173h358v-2173h-358z" />
<glyph unicode="}" horiz-adv-x="866" d="M74 -252q102 0 155.5 49t53.5 164v338q0 53 17 93t43.5 60t45.5 29.5t35 12.5q-17 3 -36 12.5t-45 29.5t-43 60t-17 92v307q0 106 -55 159.5t-154 53.5v328q101 0 182 -14.5t154.5 -51.5t123 -96t78.5 -153t29 -217v-234q0 -67 38.5 -98t92.5 -31h41v-317h-41 q-54 0 -92.5 -30t-38.5 -97v-258q0 -121 -29 -212t-78.5 -149t-123 -94t-154.5 -50t-182 -14v328z" />
<glyph unicode="~" horiz-adv-x="1155" d="M72 674q4 8 11.5 21t37 47t65 60t96 47t128.5 21q53 0 104.5 -16t84.5 -36t70 -36t66 -16q26 0 51 10.5t41.5 26t29 31t18.5 26.5l6 10l204 -118q-5 -9 -14 -24.5t-42 -55t-70.5 -69.5t-99 -54.5t-128.5 -24.5q-51 0 -97.5 16t-76 35.5t-69 35.5t-78.5 16 q-29 0 -55 -10.5t-43.5 -25.5t-30.5 -30.5t-19 -26.5l-6 -10z" />
<glyph unicode="&#xa1;" horiz-adv-x="632" d="M80 766q0 91 69 155t168 64q100 0 170 -64t70 -155t-70.5 -156t-169.5 -65t-168 65t-69 156zM98 -479l47 917h332l58 -917h-437z" />
<glyph unicode="&#xa2;" horiz-adv-x="1132" d="M59 485q0 104 35 194t103 159.5t177.5 109t248.5 39.5q77 0 146.5 -9.5t114.5 -23t78.5 -27t48.5 -23.5l15 -9l-123 -293q-10 7 -28.5 17.5t-80 27.5t-126.5 17q-111 0 -169.5 -50.5t-58.5 -126.5q0 -82 61.5 -138.5t162.5 -55.5q55 1 104.5 12.5t80.5 28t54 33t33 27.5 l10 12l127 -289q-7 -6 -19.5 -16t-57 -35.5t-95 -45t-131.5 -35.5t-168 -16q-251 0 -397 133.5t-146 382.5zM498 -582l53 445h215l51 -445h-319zM498 1520h319l-51 -445h-215z" />
<glyph unicode="&#xa3;" horiz-adv-x="1310" d="M80 512v272h90q-61 103 -61 224q0 196 152 324t423 128q96 0 185.5 -14t149.5 -34t106 -39.5t67 -33.5l22 -14l-139 -328q-5 5 -14 12.5t-41 27.5t-69 35t-98 27.5t-128 12.5q-105 0 -154 -44.5t-49 -121.5q0 -80 45 -162h453v-272h-320v-6q0 -88 -82 -162h621v-344 h-1075v344q10 3 41.5 21.5t67.5 59t36 81.5v6h-229z" />
<glyph unicode="&#xa5;" horiz-adv-x="1648" d="M45 1434h447l331 -539l334 539h447l-586 -924v-51h330v-226h-330v-233h-389v233h-346v226h346v53zM182 526h375l-139 226h-236v-226zM1090 526l139 226h235v-226h-374z" />
<glyph unicode="&#xa6;" horiz-adv-x="628" d="M135 334h359v-942h-359v942zM135 688v877h359v-877h-359z" />
<glyph unicode="&#xa7;" horiz-adv-x="1484" d="M66 -403l159 309q8 -7 23 -18.5t67 -40.5t108.5 -51.5t145.5 -41t181 -18.5q247 0 247 100q0 41 -53.5 64.5t-218.5 52.5q-55 9 -97 17.5t-95.5 22t-94 27.5t-86.5 35.5t-79 46t-65 58t-52 72t-32.5 88t-12.5 106.5q-3 167 122 289q-122 109 -122 293q-1 94 40.5 176 t119.5 143.5t197 97t265 35.5q112 0 219.5 -14t181.5 -34t132 -40.5t86 -34.5l28 -14l-133 -330q-7 5 -21 13t-63 28.5t-104 36t-143.5 28.5t-182.5 13q-219 0 -219 -94q0 -70 272 -121q13 -3 19 -4q155 -30 259.5 -66.5t183.5 -92t116 -135.5t37 -191q0 -169 -121 -281 q121 -109 121 -301q0 -202 -171.5 -320.5t-479.5 -117.5q-100 0 -192 12t-159 30.5t-124.5 40.5t-94.5 44.5t-64 40.5t-38 30zM514 436q0 -16 10 -30.5t31.5 -26t42 -20t55 -17t56.5 -13t61 -12.5h2q109 1 167 27.5t58 73.5q0 39 -49 61t-203 51h-12q-219 0 -219 -94z" />
<glyph unicode="&#xa8;" horiz-adv-x="1011" d="M41 1255q0 76 61.5 133.5t145.5 57.5t146.5 -57.5t62.5 -133.5q0 -75 -62.5 -131.5t-146.5 -56.5t-145.5 56.5t-61.5 131.5zM555 1255q0 76 61.5 133.5t145.5 57.5t146.5 -57.5t62.5 -133.5q0 -75 -62.5 -131.5t-146.5 -56.5t-145.5 56.5t-61.5 131.5z" />
<glyph unicode="&#xa9;" horiz-adv-x="1550" d="M78 877q0 144 44.5 265.5t130 213.5t220.5 144t307 52q169 0 303 -52t218 -144.5t128 -214t44 -264.5q0 -142 -43 -265t-126.5 -219t-218 -151.5t-305.5 -55.5q-139 0 -255 36t-198 99.5t-138.5 151t-83.5 189.5t-27 215zM276 877q0 -108 31.5 -199.5t92.5 -161 t158.5 -108.5t221.5 -39t220 40t155 110.5t89 161t30 196.5q0 139 -57 247.5t-170 172t-267 63.5q-233 0 -368.5 -133t-135.5 -350zM397 870q0 166 101.5 266.5t283.5 100.5q78 0 151.5 -21t107.5 -42l34 -21l-90 -164q-3 3 -9 7t-26 15t-42 19.5t-56 15.5t-70 7 q-180 0 -180 -183q0 -81 46 -137.5t134 -56.5q45 0 86.5 8.5t69 21t48.5 25t30 21.5l10 8l92 -156q-6 -5 -17 -12.5t-46.5 -26.5t-72.5 -34t-92 -27t-108 -12q-97 0 -172 30t-121 82.5t-69 119.5t-23 146z" />
<glyph unicode="&#xaa;" horiz-adv-x="800" d="M117 719v158h563v-158h-563zM117 1092q0 79 63 117t205 38q40 0 80 -4v12q0 33 -19 45.5t-79 12.5q-49 0 -94.5 -6.5t-66.5 -13.5l-20 -7l-34 135q86 39 217 39q125 0 190.5 -45t65.5 -135v-156q0 -20 7 -26t21 -6q8 0 17.5 2t14.5 4l5 2l12 -117q-53 -22 -106 -22 q-98 0 -121 55l-2 2q-64 -68 -164 -68q-95 0 -143.5 40t-48.5 102zM270 1106q0 -35 60 -35q68 0 135 37v37q-46 4 -78 4q-70 0 -93.5 -10t-23.5 -33z" />
<glyph unicode="&#xab;" horiz-adv-x="1312" d="M72 330v235l444 396l182 -175l-321 -340l321 -337l-182 -175zM621 330v235l444 396l182 -175l-321 -340l321 -337l-182 -175z" />
<glyph unicode="&#xac;" horiz-adv-x="1150" d="M109 442v246h921v-528h-250v282h-671z" />
<glyph unicode="&#xad;" horiz-adv-x="864" d="M111 424v324h643v-324h-643z" />
<glyph unicode="&#xae;" horiz-adv-x="1550" d="M78 877q0 144 44.5 265.5t130 213.5t220.5 144t307 52q169 0 303 -52t218 -144.5t128 -214t44 -264.5q0 -142 -43 -265t-126.5 -219t-218 -151.5t-305.5 -55.5q-139 0 -255 36t-198 99.5t-138.5 151t-83.5 189.5t-27 215zM276 877q0 -108 31.5 -199.5t92.5 -161 t158.5 -108.5t221.5 -39t220 40t155 110.5t89 161t30 196.5q0 139 -57 247.5t-170 172t-267 63.5q-233 0 -368.5 -133t-135.5 -350zM492 510v717h290q283 0 283 -221q0 -156 -119 -213l60 -113q16 -31 61 -31q17 0 31.5 4.5t19.5 8.5l6 4l33 -129q-49 -33 -121 -33 q-145 0 -194 98l-80 156h-74v-248h-196zM688 930h70q56 0 79 14t23 53q0 58 -78 58h-94v-125z" />
<glyph unicode="&#xaf;" horiz-adv-x="579" d="M41 1122v273h498v-273h-498z" />
<glyph unicode="&#xb0;" horiz-adv-x="833" d="M80 1264q0 145 89.5 232t248.5 87t247.5 -87t88.5 -232t-89.5 -234.5t-246.5 -89.5t-247.5 89.5t-90.5 234.5zM295 1264q0 -60 32 -94.5t91 -34.5t91 34.5t32 94.5q0 54 -32 83t-91 29t-91 -29t-32 -83z" />
<glyph unicode="&#xb1;" horiz-adv-x="1011" d="M115 88v246h780v-246h-780zM115 639v246h282l2 278h246l-2 -278h252v-246h-252v-225h-246v225h-282z" />
<glyph unicode="&#xb2;" horiz-adv-x="827" d="M86 1368q5 4 15 10t42 22t66 28t86.5 22t105.5 10q146 0 230 -67t84 -174q0 -86 -33.5 -139t-108.5 -109l-53 -41h193v-201h-590v145l227 162q9 6 31 21.5t31.5 22.5t26 21t23.5 24t13 25t6 30q0 53 -100 53q-65 0 -124 -17t-85 -34l-27 -17z" />
<glyph unicode="&#xb3;" horiz-adv-x="786" d="M76 823l65 172l9 -9t28 -20.5t46 -25.5t63.5 -20t81.5 -9q108 0 108 39q0 56 -198 56v178q42 0 64 1t51.5 5t43 15t13.5 28q0 29 -86 29q-55 0 -106 -17t-75 -34l-24 -17l-60 174q5 4 13.5 10t36.5 22t58 28t76 22t91 10q138 0 220.5 -52.5t82.5 -133.5q0 -150 -150 -176 q80 -10 128.5 -50.5t48.5 -127.5q0 -93 -89 -150t-237 -57q-53 0 -103.5 11.5t-85 27.5t-61.5 32t-40 28z" />
<glyph unicode="&#xb4;" horiz-adv-x="702" d="M41 1120l188 432h433l-283 -432h-338z" />
<glyph unicode="&#xb6;" horiz-adv-x="1802" d="M63 952q0 243 143.5 362.5t405.5 119.5h410v-1434h-389v467h-21q-262 0 -405.5 121t-143.5 364zM1257 0v1434h390v-1434h-390z" />
<glyph unicode="&#xb7;" horiz-adv-x="673" d="M80 641q0 99 74.5 168.5t181.5 69.5t182.5 -70t75.5 -168t-75.5 -166.5t-182.5 -68.5t-181.5 68.5t-74.5 166.5z" />
<glyph unicode="&#xb8;" horiz-adv-x="503" d="M41 -360l43 124q47 -32 137 -32q72 0 72 30q0 52 -189 52l70 188h168l-35 -80q41 -2 74 -17t57.5 -52.5t24.5 -92.5q0 -78 -59.5 -126t-163.5 -48q-53 0 -102.5 13.5t-73.5 26.5z" />
<glyph unicode="&#xb9;" horiz-adv-x="722" d="M31 1243q340 203 342 203h225v-717h-225v496l-248 -146z" />
<glyph unicode="&#xba;" horiz-adv-x="800" d="M119 719v158h563v-158h-563zM125 1202q0 113 67.5 185.5t204.5 72.5t208 -73t71 -185q0 -109 -73.5 -180.5t-203.5 -71.5t-202 71.5t-72 180.5zM281 1202q0 -46 29 -74t89 -28q59 0 88 28t29 74q0 47 -30 78t-89 31q-58 0 -87 -31t-29 -78z" />
<glyph unicode="&#xbb;" horiz-adv-x="1312" d="M66 109l321 337l-321 340l182 175l444 -396v-235l-444 -396zM614 109l322 337l-322 340l183 175l444 -396v-235l-444 -396z" />
<glyph unicode="&#xbc;" horiz-adv-x="1701" d="M53 1243q340 203 342 203h226v-717h-226v496l-248 -146zM197 -31l1024 1491h311l-1024 -1491h-311zM975 150v149l194 406h205l-162 -371h131v135h211v-135h72v-184h-72v-156h-211v156h-368z" />
<glyph unicode="&#xbd;" horiz-adv-x="1779" d="M53 1243q340 203 342 203h226v-717h-226v496l-248 -146zM197 -31l1024 1491h311l-1024 -1491h-311zM1065 639q5 4 15 10t42 22t66 28t86.5 22t105.5 10q146 0 230 -67.5t84 -174.5q0 -59 -17.5 -103.5t-46 -75.5t-78.5 -68l-53 -41h193v-201h-590v145l227 162 q9 6 31 21.5t31.5 22.5t26 21t23.5 24t13 25t6 30q0 53 -100 53q-65 0 -124 -17t-86 -34l-26 -17z" />
<glyph unicode="&#xbe;" horiz-adv-x="1705" d="M66 823l65 172l9 -9t27.5 -20.5t46 -25.5t63.5 -20t81 -9q109 0 109 39q0 56 -199 56v178q42 0 64 1t51.5 5t43 15t13.5 28q0 29 -86 29q-55 0 -106 -17t-74 -34l-24 -17l-60 174q5 4 13.5 10t36.5 22t58 28t76 22t91 10q138 0 220.5 -52.5t82.5 -133.5q0 -150 -150 -176 q80 -10 128 -50.5t48 -127.5q0 -93 -88.5 -150t-236.5 -57q-53 0 -103.5 11.5t-85 27.5t-61.5 32t-40 28zM213 -31l1024 1491h311l-1024 -1491h-311zM991 150v149l195 406h205l-162 -371h131v135h211v-135h71v-184h-71v-156h-211v156h-369z" />
<glyph unicode="&#xbf;" horiz-adv-x="1216" d="M66 -61q0 63 22 120t57 99t77 77.5t84.5 58.5t77.5 40t57 24l22 7v77h328v-288q-7 -1 -18.5 -3.5t-45 -12t-64 -20t-67.5 -29t-63.5 -39.5t-45 -50t-18.5 -61q0 -41 37 -68t100 -27q69 0 136.5 14t115 34.5t85.5 41t57 34.5l18 14l153 -314q-9 -7 -26 -18.5t-74 -41 t-118.5 -52.5t-156 -41.5t-190.5 -18.5q-256 0 -398 122.5t-142 320.5zM395 768q0 91 70 155t170 64q99 0 168 -64t69 -155t-69 -156t-168 -65t-169.5 65t-70.5 156z" />
<glyph unicode="&#xc0;" horiz-adv-x="1546" d="M-6 0l561 1434h436l561 -1434h-415l-93 258h-544l-90 -258h-416zM317 1976h433l188 -432h-338zM608 571h326l-162 463z" />
<glyph unicode="&#xc1;" horiz-adv-x="1546" d="M-6 0l561 1434h436l561 -1434h-415l-93 258h-544l-90 -258h-416zM606 1544l189 432h432l-283 -432h-338zM608 571h326l-162 463z" />
<glyph unicode="&#xc2;" horiz-adv-x="1546" d="M-6 0l561 1434h436l561 -1434h-415l-93 258h-544l-90 -258h-416zM367 1544l219 432h370l220 -432h-277l-129 211l-127 -211h-276zM608 571h326l-162 463z" />
<glyph unicode="&#xc3;" horiz-adv-x="1546" d="M-6 0l561 1434h436l561 -1434h-415l-93 258h-544l-90 -258h-416zM264 1692q4 8 11.5 21t37 47t65 60t96 47t128.5 21q53 0 105 -16t84.5 -36t70 -36t66.5 -16q42 0 78 26t52 52l15 26l205 -119q-5 -9 -14 -24.5t-42 -54.5t-70.5 -69t-99 -54.5t-128.5 -24.5q-51 0 -98 16 t-76.5 35.5t-69 35.5t-78.5 16q-29 0 -55 -10.5t-43 -25.5t-30 -30.5t-19 -26.5l-6 -10zM608 571h326l-162 463z" />
<glyph unicode="&#xc4;" horiz-adv-x="1546" d="M-6 0l561 1434h436l561 -1434h-415l-93 258h-544l-90 -258h-416zM305 1731q0 76 61.5 133t145.5 57t146.5 -57.5t62.5 -132.5t-62.5 -132t-146.5 -57t-145.5 56.5t-61.5 132.5zM608 571h326l-162 463zM819 1731q0 76 61.5 133t145.5 57t146.5 -57.5t62.5 -132.5 t-62.5 -132t-146.5 -57t-145.5 56.5t-61.5 132.5z" />
<glyph unicode="&#xc5;" horiz-adv-x="1546" d="M-6 0l561 1434h436l561 -1434h-415l-93 258h-544l-90 -258h-416zM565 1718q0 91 57 148t148 57t148 -57t57 -148t-57 -148t-148 -57t-148 57t-57 148zM608 571h326l-162 463zM719 1718q0 -51 51 -51t51 51t-51 51t-51 -51z" />
<glyph unicode="&#xc6;" horiz-adv-x="2359" d="M-20 0l899 1434h1392v-344h-821v-213h633v-304h-633v-229h821v-344h-1210v258h-502l-164 -258h-415zM758 571h303v478z" />
<glyph unicode="&#xc7;" horiz-adv-x="1570" d="M70 729q0 167 53 301.5t156.5 230.5t263 147.5t364.5 51.5q111 0 210 -14t162 -34t110 -39.5t67 -33.5l21 -14l-136 -342q-5 5 -15.5 14t-49.5 31t-84.5 39t-122.5 31t-162 14q-185 0 -309.5 -108.5t-124.5 -274.5q0 -189 114 -300.5t341 -111.5q87 0 172.5 18t146 44.5 t109 52.5t72.5 44l24 18l98 -340q-8 -7 -23 -18t-68.5 -40.5t-115 -53t-161 -45t-207.5 -26.5l-21 -49q41 -2 74 -17t57.5 -52.5t24.5 -92.5q0 -78 -59.5 -126t-163.5 -48q-53 0 -102.5 13.5t-72.5 26.5l-24 14l43 124q47 -32 137 -32q72 0 72 30q0 52 -188 52l59 159 q-157 10 -283 55t-210.5 114t-141 163t-81.5 199t-25 225z" />
<glyph unicode="&#xc8;" horiz-adv-x="1441" d="M143 0v1434h1211v-344h-822v-213h633v-304h-633v-229h822v-344h-1211zM293 1976h432l188 -432h-338z" />
<glyph unicode="&#xc9;" horiz-adv-x="1441" d="M143 0v1434h1211v-344h-822v-213h633v-304h-633v-229h822v-344h-1211zM547 1544l188 432h432l-282 -432h-338z" />
<glyph unicode="&#xca;" horiz-adv-x="1441" d="M143 0v1434h1211v-344h-822v-213h633v-304h-633v-229h822v-344h-1211zM344 1544l219 432h371l219 -432h-276l-129 211l-127 -211h-277z" />
<glyph unicode="&#xcb;" horiz-adv-x="1441" d="M143 0v1434h1211v-344h-822v-213h633v-304h-633v-229h822v-344h-1211zM287 1731q0 76 61.5 133t145.5 57t146 -57t62 -133q0 -75 -62 -132t-146 -57t-145.5 56.5t-61.5 132.5zM801 1731q0 76 61.5 133t145.5 57t146.5 -57.5t62.5 -132.5t-62.5 -132t-146.5 -57 t-145.5 56.5t-61.5 132.5z" />
<glyph unicode="&#xcc;" horiz-adv-x="675" d="M-109 1976h433l188 -432h-338zM143 0v1434h389v-1434h-389z" />
<glyph unicode="&#xcd;" horiz-adv-x="675" d="M143 0v1434h389v-1434h-389zM168 1544l188 432h432l-282 -432h-338z" />
<glyph unicode="&#xce;" horiz-adv-x="675" d="M-68 1546l220 432h370l219 -432h-276l-129 211l-127 -211h-277zM143 0v1434h389v-1434h-389z" />
<glyph unicode="&#xcf;" horiz-adv-x="675" d="M-129 1731q0 76 61.5 133t145.5 57t146.5 -57.5t62.5 -132.5t-62.5 -132t-146.5 -57t-145.5 56.5t-61.5 132.5zM143 0v1434h389v-1434h-389zM385 1731q0 76 61.5 133t145.5 57t146.5 -57.5t62.5 -132.5t-62.5 -132t-146.5 -57t-145.5 56.5t-61.5 132.5z" />
<glyph unicode="&#xd0;" horiz-adv-x="1626" d="M27 565v273h131v596h628q373 0 570.5 -185.5t197.5 -539.5q0 -348 -203.5 -528.5t-564.5 -180.5h-628v565h-131zM547 344h207q206 -2 308.5 87t102.5 278q0 198 -103 289.5t-317 91.5h-198v-252h231v-273h-231v-221z" />
<glyph unicode="&#xd1;" horiz-adv-x="1622" d="M143 0v1434h303l644 -797v797h389v-1434h-301l-646 754v-754h-389zM297 1692q4 8 11.5 21t37 47t65 60t96 47t128.5 21q53 0 105 -16t84.5 -36t70 -36t66.5 -16q42 0 78 26t51 52l16 26l205 -119q-5 -9 -14 -24.5t-42 -54.5t-71 -69t-99.5 -54.5t-128.5 -24.5 q-51 0 -97.5 16t-76 35.5t-69 35.5t-78.5 16q-29 0 -55 -10.5t-43.5 -25.5t-30.5 -30.5t-19 -26.5l-6 -10z" />
<glyph unicode="&#xd2;" horiz-adv-x="1761" d="M66 719q0 333 219 537t596 204t596 -204t219 -537q0 -123 -31.5 -234t-97.5 -205.5t-161 -163.5t-229.5 -108t-295.5 -39t-295.5 39t-229.5 108t-161 163.5t-97.5 205.5t-31.5 234zM453 1976h432l188 -432h-338zM459 719q0 -84 24.5 -155t74 -127t132 -88t191.5 -32 q107 0 189.5 32t132.5 88t75 127.5t25 154.5q0 168 -115.5 280.5t-306.5 112.5t-306.5 -112.5t-115.5 -280.5z" />
<glyph unicode="&#xd3;" horiz-adv-x="1761" d="M66 719q0 333 219 537t596 204t596 -204t219 -537q0 -123 -31.5 -234t-97.5 -205.5t-161 -163.5t-229.5 -108t-295.5 -39t-295.5 39t-229.5 108t-161 163.5t-97.5 205.5t-31.5 234zM459 719q0 -84 24.5 -155t74 -127t132 -88t191.5 -32q107 0 189.5 32t132.5 88t75 127.5 t25 154.5q0 168 -115.5 280.5t-306.5 112.5t-306.5 -112.5t-115.5 -280.5zM700 1544l189 432h432l-283 -432h-338z" />
<glyph unicode="&#xd4;" horiz-adv-x="1761" d="M66 719q0 333 219 537t596 204t596 -204t219 -537q0 -123 -31.5 -234t-97.5 -205.5t-161 -163.5t-229.5 -108t-295.5 -39t-295.5 39t-229.5 108t-161 163.5t-97.5 205.5t-31.5 234zM459 719q0 -84 24.5 -155t74 -127t132 -88t191.5 -32q107 0 189.5 32t132.5 88t75 127.5 t25 154.5q0 168 -115.5 280.5t-306.5 112.5t-306.5 -112.5t-115.5 -280.5zM477 1546l219 432h371l219 -432h-276l-129 211l-127 -211h-277z" />
<glyph unicode="&#xd5;" horiz-adv-x="1761" d="M66 719q0 333 219 537t596 204t596 -204t219 -537q0 -123 -31.5 -234t-97.5 -205.5t-161 -163.5t-229.5 -108t-295.5 -39t-295.5 39t-229.5 108t-161 163.5t-97.5 205.5t-31.5 234zM369 1696q4 8 11.5 21t37 47t65 60t96 47t128.5 21q53 0 104.5 -16t84.5 -36t70 -36 t66 -16q26 0 51 10.5t41.5 26t29 31t18.5 26.5l6 10l204 -118q-5 -9 -14 -24.5t-42 -55t-70.5 -69.5t-99 -54.5t-128.5 -24.5q-51 0 -97.5 16t-76 35.5t-69 35.5t-78.5 16q-29 0 -55 -10.5t-43.5 -25.5t-30.5 -30.5t-19 -26.5l-6 -10zM459 719q0 -84 24.5 -155t74 -127 t132 -88t191.5 -32q107 0 189.5 32t132.5 88t75 127.5t25 154.5q0 168 -115.5 280.5t-306.5 112.5t-306.5 -112.5t-115.5 -280.5z" />
<glyph unicode="&#xd6;" horiz-adv-x="1761" d="M66 719q0 333 219 537t596 204t596 -204t219 -537q0 -123 -31.5 -234t-97.5 -205.5t-161 -163.5t-229.5 -108t-295.5 -39t-295.5 39t-229.5 108t-161 163.5t-97.5 205.5t-31.5 234zM420 1731q0 76 61.5 133t145.5 57t146.5 -57.5t62.5 -132.5t-62.5 -132t-146.5 -57 t-145.5 56.5t-61.5 132.5zM459 719q0 -84 24.5 -155t74 -127t132 -88t191.5 -32q107 0 189.5 32t132.5 88t75 127.5t25 154.5q0 168 -115.5 280.5t-306.5 112.5t-306.5 -112.5t-115.5 -280.5zM934 1731q0 76 61.5 133t145.5 57t146.5 -57.5t62.5 -132.5t-62.5 -132 t-146.5 -57t-145.5 56.5t-61.5 132.5z" />
<glyph unicode="&#xd7;" horiz-adv-x="1220" d="M92 311l289 289l-289 289l230 229l288 -289l289 289l229 -229l-288 -289l288 -289l-229 -229l-289 289l-288 -289z" />
<glyph unicode="&#xd8;" horiz-adv-x="1761" d="M66 719q0 333 219 537t596 204q51 0 141 -8l53 184h160l-64 -215q249 -70 387 -255.5t138 -446.5q0 -123 -31.5 -234t-97.5 -205.5t-161 -163.5t-229.5 -108t-295.5 -39q-47 0 -129 8l-82 -282h-160l90 309q-261 70 -397.5 263.5t-136.5 451.5zM459 719q0 -133 59 -233 t180 -142l224 766q-12 2 -41 2q-191 0 -306.5 -112.5t-115.5 -280.5zM850 317h31q107 0 189.5 32t132.5 88t75 127.5t25 154.5q0 119 -61 214t-171 142z" />
<glyph unicode="&#xd9;" horiz-adv-x="1570" d="M129 606v828h389v-838q0 -154 62.5 -223.5t203.5 -69.5t205 69t64 224v838h389v-828q0 -174 -40 -295.5t-123 -197.5t-204 -110t-291 -34q-339 0 -497 147.5t-158 489.5zM334 1978h432l188 -432h-338z" />
<glyph unicode="&#xda;" horiz-adv-x="1570" d="M129 606v828h389v-838q0 -154 62.5 -223.5t203.5 -69.5t205 69t64 224v838h389v-828q0 -174 -40 -295.5t-123 -197.5t-204 -110t-291 -34q-339 0 -497 147.5t-158 489.5zM588 1544l188 432h432l-282 -432h-338z" />
<glyph unicode="&#xdb;" horiz-adv-x="1570" d="M129 606v828h389v-838q0 -154 62.5 -223.5t203.5 -69.5t205 69t64 224v838h389v-828q0 -174 -40 -295.5t-123 -197.5t-204 -110t-291 -34q-339 0 -497 147.5t-158 489.5zM381 1544l219 432h371l219 -432h-277l-129 211l-127 -211h-276z" />
<glyph unicode="&#xdc;" horiz-adv-x="1570" d="M129 606v828h389v-838q0 -154 62.5 -223.5t203.5 -69.5t205 69t64 224v838h389v-828q0 -174 -40 -295.5t-123 -197.5t-204 -110t-291 -34q-339 0 -497 147.5t-158 489.5zM326 1731q0 76 61 133t145 57t146.5 -57.5t62.5 -132.5t-62.5 -132t-146.5 -57t-145 56.5 t-61 132.5zM840 1731q0 76 61.5 133t145.5 57t146 -57t62 -133q0 -75 -62 -132t-146 -57t-145.5 56.5t-61.5 132.5z" />
<glyph unicode="&#xdd;" horiz-adv-x="1542" d="M-8 1434h446l332 -539l334 539h446l-585 -924v-510h-390v512zM582 1544l188 432h432l-282 -432h-338z" />
<glyph unicode="&#xde;" horiz-adv-x="1501" d="M143 0v1434h389v-162h289q299 0 466 -134t167 -399q0 -266 -167 -401t-466 -135h-289v-203h-389zM532 547h289q244 0 244 192q0 101 -59 145t-185 44h-289v-381z" />
<glyph unicode="&#xdf;" horiz-adv-x="1548" d="M33 647l41 311h131v136q0 120 36 206.5t104.5 138t161 75.5t214.5 24q242 0 380 -108t138 -316q0 -58 -17.5 -106t-42.5 -78.5t-50 -56.5t-42.5 -53.5t-17.5 -55.5q0 -36 25 -64.5t65 -48.5t88.5 -41t97.5 -50.5t89 -68t65 -101.5t25 -144q0 -129 -126 -203t-347 -74 q-79 0 -150.5 14t-117 34t-79 40.5t-48.5 34.5l-15 14l107 263q14 -8 38 -20t92.5 -32t131.5 -20q44 0 67 17.5t23 43.5q0 27 -21.5 49t-56 39t-76.5 34.5t-83.5 41.5t-76 54.5t-56 79t-21.5 108.5q0 32 15 61t36 53t42.5 50.5t36.5 65.5t15 87q0 57 -37.5 89t-99.5 32 q-69 0 -106.5 -33.5t-37.5 -91.5v-1077h-368v647h-172z" />
<glyph unicode="&#xe0;" horiz-adv-x="1189" d="M41 256q0 125 124 202t382 77q65 0 121 -9v27q0 76 -44.5 104.5t-154.5 28.5q-77 0 -153 -15t-113 -29l-37 -15l-60 299q20 7 57 17t156.5 27t245.5 17q471 0 471 -364v-273q0 -40 12 -54.5t46 -14.5q10 0 26 3.5t26 7.5l11 3l39 -238q-11 -8 -32 -19.5t-83.5 -30.5 t-124.5 -19q-207 0 -262 133q-18 -22 -41 -43t-63.5 -48.5t-98.5 -44t-124 -16.5q-146 0 -236 75t-90 212zM145 1552h433l188 -432h-338zM412 295q0 -29 26.5 -46.5t67.5 -17.5q100 0 162 43v93q-45 10 -101 10q-155 0 -155 -82z" />
<glyph unicode="&#xe1;" horiz-adv-x="1189" d="M41 256q0 125 124 202t382 77q65 0 121 -9v27q0 76 -44.5 104.5t-154.5 28.5q-77 0 -153 -15t-113 -29l-37 -15l-60 299q20 7 57 17t156.5 27t245.5 17q471 0 471 -364v-273q0 -40 12 -54.5t46 -14.5q10 0 26 3.5t26 7.5l11 3l39 -238q-11 -8 -32 -19.5t-83.5 -30.5 t-124.5 -19q-207 0 -262 133q-18 -22 -41 -43t-63.5 -48.5t-98.5 -44t-124 -16.5q-146 0 -236 75t-90 212zM367 1120l188 432h432l-282 -432h-338zM412 295q0 -29 26.5 -46.5t67.5 -17.5q100 0 162 43v93q-45 10 -101 10q-155 0 -155 -82z" />
<glyph unicode="&#xe2;" horiz-adv-x="1189" d="M41 256q0 125 124 202t382 77q65 0 121 -9v27q0 76 -44.5 104.5t-154.5 28.5q-77 0 -153 -15t-113 -29l-37 -15l-60 299q20 7 57 17t156.5 27t245.5 17q471 0 471 -364v-273q0 -40 12 -54.5t46 -14.5q10 0 26 3.5t26 7.5l11 3l39 -238q-11 -8 -32 -19.5t-83.5 -30.5 t-124.5 -19q-207 0 -262 133q-18 -22 -41 -43t-63.5 -48.5t-98.5 -44t-124 -16.5q-146 0 -236 75t-90 212zM199 1120l219 432h370l220 -432h-277l-129 211l-127 -211h-276zM412 295q0 -29 26.5 -46.5t67.5 -17.5q100 0 162 43v93q-45 10 -101 10q-155 0 -155 -82z" />
<glyph unicode="&#xe3;" horiz-adv-x="1189" d="M41 256q0 125 124 202t382 77q65 0 121 -9v27q0 76 -44.5 104.5t-154.5 28.5q-77 0 -153 -15t-113 -29l-37 -15l-60 299q20 7 57 17t156.5 27t245.5 17q471 0 471 -364v-273q0 -40 12 -54.5t46 -14.5q10 0 26 3.5t26 7.5l11 3l39 -238q-11 -8 -32 -19.5t-83.5 -30.5 t-124.5 -19q-207 0 -262 133q-18 -22 -41 -43t-63.5 -48.5t-98.5 -44t-124 -16.5q-146 0 -236 75t-90 212zM78 1235q4 8 11.5 21.5t37 47.5t65 59.5t96 47t128.5 21.5q53 0 104.5 -16.5t84.5 -36t70 -36t66 -16.5q42 0 78.5 26.5t52.5 52.5l15 26l205 -119q-5 -9 -14 -24.5 t-42 -55t-71 -69.5t-99.5 -54.5t-128.5 -24.5q-51 0 -97.5 16t-76 35.5t-69 35.5t-78.5 16q-45 0 -83.5 -26t-54.5 -52l-16 -25zM412 295q0 -29 26.5 -46.5t67.5 -17.5q100 0 162 43v93q-45 10 -101 10q-155 0 -155 -82z" />
<glyph unicode="&#xe4;" horiz-adv-x="1189" d="M41 256q0 125 124 202t382 77q65 0 121 -9v27q0 76 -44.5 104.5t-154.5 28.5q-77 0 -153 -15t-113 -29l-37 -15l-60 299q20 7 57 17t156.5 27t245.5 17q471 0 471 -364v-273q0 -40 12 -54.5t46 -14.5q10 0 26 3.5t26 7.5l11 3l39 -238q-11 -8 -32 -19.5t-83.5 -30.5 t-124.5 -19q-207 0 -262 133q-18 -22 -41 -43t-63.5 -48.5t-98.5 -44t-124 -16.5q-146 0 -236 75t-90 212zM123 1255q0 76 61.5 133.5t145.5 57.5t146.5 -57.5t62.5 -133.5q0 -75 -62.5 -131.5t-146.5 -56.5t-145.5 56.5t-61.5 131.5zM412 295q0 -29 26.5 -46.5t67.5 -17.5 q100 0 162 43v93q-45 10 -101 10q-155 0 -155 -82zM637 1255q0 76 61.5 133.5t145.5 57.5t146.5 -57.5t62.5 -133.5q0 -75 -62.5 -131.5t-146.5 -56.5t-145.5 56.5t-61.5 131.5z" />
<glyph unicode="&#xe5;" horiz-adv-x="1189" d="M41 256q0 125 124 202t382 77q65 0 121 -9v27q0 76 -44.5 104.5t-154.5 28.5q-77 0 -153 -15t-113 -29l-37 -15l-60 299q20 7 57 17t156.5 27t245.5 17q471 0 471 -364v-273q0 -40 12 -54.5t46 -14.5q10 0 26 3.5t26 7.5l11 3l39 -238q-11 -8 -32 -19.5t-83.5 -30.5 t-124.5 -19q-207 0 -262 133q-18 -22 -41 -43t-63.5 -48.5t-98.5 -44t-124 -16.5q-146 0 -236 75t-90 212zM360 1243q0 91 57 148t148 57t148 -57t57 -148t-57 -148t-148 -57t-148 57t-57 148zM412 295q0 -29 26.5 -46.5t67.5 -17.5q100 0 162 43v93q-45 10 -101 10 q-155 0 -155 -82zM514 1243q0 -51 51 -51t51 51t-51 51t-51 -51z" />
<glyph unicode="&#xe6;" horiz-adv-x="1781" d="M41 256q0 125 124 202t382 77q65 0 121 -9v27q0 76 -44.5 104.5t-154.5 28.5q-77 0 -153 -15t-113 -29l-37 -15l-60 299q20 7 57 17t156.5 27t245.5 17q219 0 340 -82q135 82 334 82q121 0 219 -40t156 -103.5t88.5 -135.5t30.5 -143q0 -44 -4.5 -81t-9.5 -52l-5 -16 h-667q41 -154 237 -154q88 0 162 17.5t104 34.5l31 18l109 -226q-8 -6 -22 -15t-59.5 -32.5t-94 -41.5t-121 -33t-144.5 -15q-283 0 -436 166q-24 -26 -55.5 -49.5t-85 -52.5t-133 -46.5t-172.5 -17.5q-146 0 -236 75t-90 212zM412 295q0 -29 26.5 -46.5t67.5 -17.5 q43 0 80 7t59.5 17t39 20t23.5 17l7 7q-13 44 -17 66q-49 12 -131 12q-155 0 -155 -82zM1042 580h359q0 68 -47.5 106.5t-120.5 38.5q-76 0 -125 -37.5t-66 -107.5z" />
<glyph unicode="&#xe7;" horiz-adv-x="1095" d="M59 485q0 104 35 194t103 159.5t177.5 109t248.5 39.5q77 0 146.5 -9.5t114.5 -23t78.5 -27t48.5 -23.5l15 -9l-123 -293q-10 7 -28.5 17.5t-80 27.5t-126.5 17q-111 0 -169.5 -50.5t-58.5 -126.5q0 -82 60.5 -138t163.5 -56q55 0 104.5 11.5t80.5 28.5t54 33.5t33 27.5 l10 12l127 -289q-6 -5 -16.5 -13.5t-47.5 -30.5t-78.5 -40t-108.5 -36t-138 -24l-22 -51q64 -3 109.5 -42t45.5 -120q0 -78 -59.5 -126t-163.5 -48q-53 0 -102.5 13.5t-73.5 26.5l-23 14l43 124q47 -32 137 -32q72 0 72 30q0 52 -188 52l59 159q-215 22 -337 153.5 t-122 358.5z" />
<glyph unicode="&#xe8;" horiz-adv-x="1150" d="M55 485q0 105 34.5 194.5t101 159t173.5 109t244 39.5q121 0 219 -40t156 -103.5t88.5 -135.5t30.5 -143q0 -44 -5 -81t-9 -52l-5 -16h-667q41 -154 237 -154q88 0 162 17.5t105 34.5l30 18l109 -226q-8 -6 -22 -15t-59.5 -32.5t-94 -41.5t-121 -33t-144.5 -15 q-139 0 -248 41.5t-177 113.5t-103 164t-35 197zM193 1552h432l188 -432h-338zM412 580h358q0 68 -47.5 106.5t-120.5 38.5q-76 0 -124.5 -37.5t-65.5 -107.5z" />
<glyph unicode="&#xe9;" horiz-adv-x="1150" d="M55 485q0 105 34.5 194.5t101 159t173.5 109t244 39.5q121 0 219 -40t156 -103.5t88.5 -135.5t30.5 -143q0 -44 -5 -81t-9 -52l-5 -16h-667q41 -154 237 -154q88 0 162 17.5t105 34.5l30 18l109 -226q-8 -6 -22 -15t-59.5 -32.5t-94 -41.5t-121 -33t-144.5 -15 q-139 0 -248 41.5t-177 113.5t-103 164t-35 197zM408 1120l188 432h432l-283 -432h-337zM412 580h358q0 68 -47.5 106.5t-120.5 38.5q-76 0 -124.5 -37.5t-65.5 -107.5z" />
<glyph unicode="&#xea;" horiz-adv-x="1150" d="M55 485q0 105 34.5 194.5t101 159t173.5 109t244 39.5q121 0 219 -40t156 -103.5t88.5 -135.5t30.5 -143q0 -44 -5 -81t-9 -52l-5 -16h-667q41 -154 237 -154q88 0 162 17.5t105 34.5l30 18l109 -226q-8 -6 -22 -15t-59.5 -32.5t-94 -41.5t-121 -33t-144.5 -15 q-139 0 -248 41.5t-177 113.5t-103 164t-35 197zM190 1120l220 432h370l219 -432h-276l-129 211l-127 -211h-277zM412 580h358q0 68 -47.5 106.5t-120.5 38.5q-76 0 -124.5 -37.5t-65.5 -107.5z" />
<glyph unicode="&#xeb;" horiz-adv-x="1150" d="M55 485q0 105 34.5 194.5t101 159t173.5 109t244 39.5q121 0 219 -40t156 -103.5t88.5 -135.5t30.5 -143q0 -44 -5 -81t-9 -52l-5 -16h-667q41 -154 237 -154q88 0 162 17.5t105 34.5l30 18l109 -226q-8 -6 -22 -15t-59.5 -32.5t-94 -41.5t-121 -33t-144.5 -15 q-139 0 -248 41.5t-177 113.5t-103 164t-35 197zM145 1255q0 76 61.5 133.5t145.5 57.5t146.5 -57.5t62.5 -133.5q0 -75 -62.5 -131.5t-146.5 -56.5t-145.5 56.5t-61.5 131.5zM412 580h358q0 68 -47.5 106.5t-120.5 38.5q-76 0 -124.5 -37.5t-65.5 -107.5zM659 1255 q0 76 61.5 133.5t145.5 57.5t146.5 -57.5t62.5 -133.5q0 -75 -62.5 -131.5t-146.5 -56.5t-145.5 56.5t-61.5 131.5z" />
<glyph unicode="&#xec;" horiz-adv-x="593" d="M-147 1552h432l188 -432h-338zM113 0v958h368v-958h-368z" />
<glyph unicode="&#xed;" horiz-adv-x="593" d="M113 0v958h368v-958h-368zM125 1120l188 432h432l-282 -432h-338z" />
<glyph unicode="&#xee;" horiz-adv-x="593" d="M-100 1120l219 432h370l220 -432h-277l-129 211l-127 -211h-276zM113 0v958h368v-958h-368z" />
<glyph unicode="&#xef;" horiz-adv-x="593" d="M-164 1255q0 76 61.5 133.5t145.5 57.5t146.5 -57.5t62.5 -133.5q0 -75 -62.5 -131.5t-146.5 -56.5t-145.5 56.5t-61.5 131.5zM113 0v958h368v-958h-368zM350 1255q0 76 61.5 133.5t145.5 57.5t146.5 -57.5t62.5 -133.5q0 -75 -62.5 -131.5t-146.5 -56.5t-145.5 56.5 t-61.5 131.5z" />
<glyph unicode="&#xf0;" horiz-adv-x="1370" d="M59 430q0 228 151 350.5t429 122.5q137 0 260 -53q-35 147 -154 213l-118 -135l-97 86l80 90q-40 4 -63 4q-53 0 -103.5 -10t-84 -24t-59.5 -28t-38 -24l-12 -10l-164 329q7 5 21.5 13t63 28.5t101.5 36t137 28.5t171 13q167 0 303 -51l121 135l92 -80l-97 -110 q150 -93 229 -255t79 -370q0 -127 -23 -237.5t-74.5 -207.5t-129 -166t-192.5 -109t-259 -40q-252 0 -411 130t-159 331zM463 461q0 -60 46 -99.5t120 -39.5q216 0 268 237q-127 53 -258 53q-83 0 -129.5 -39.5t-46.5 -111.5z" />
<glyph unicode="&#xf1;" horiz-adv-x="1296" d="M102 1235q4 8 11.5 21.5t37 47.5t65 59.5t96 47t128.5 21.5q53 0 105 -16.5t84.5 -36t70 -36t66.5 -16.5q42 0 78 26.5t52 52.5l15 26l205 -119q-5 -9 -14 -24.5t-42 -55t-70.5 -69.5t-99 -54.5t-128.5 -24.5q-51 0 -98 16t-76.5 35.5t-69 35.5t-78.5 16q-29 0 -55 -10.5 t-43 -26t-30 -30.5t-19 -25l-6 -11zM109 0v897l368 90v-133q133 133 316 133q171 0 260.5 -95t89.5 -271v-271q0 -40 11.5 -54.5t45.5 -14.5q10 0 26 3.5t27 7.5l11 3l39 -238q-11 -8 -32 -19.5t-83.5 -30.5t-124.5 -19q-160 0 -224.5 74.5t-64.5 220.5v202q0 92 -32.5 130 t-94.5 38q-87 0 -170 -65v-588h-368z" />
<glyph unicode="&#xf2;" d="M55 475q0 106 37 198.5t107 162.5t178.5 110.5t243.5 40.5t243.5 -40.5t178 -110.5t106.5 -162.5t37 -198.5q0 -102 -37.5 -193t-107.5 -161t-178.5 -111t-241.5 -41t-242 41t-178.5 111t-107.5 161t-38 193zM190 1552h433l188 -432h-338zM426 477q0 -91 53 -148t142 -57 t141.5 57t52.5 148q0 89 -49 147t-145 58q-98 0 -146.5 -57t-48.5 -148z" />
<glyph unicode="&#xf3;" d="M55 475q0 106 37 198.5t107 162.5t178.5 110.5t243.5 40.5t243.5 -40.5t178 -110.5t106.5 -162.5t37 -198.5q0 -102 -37.5 -193t-107.5 -161t-178.5 -111t-241.5 -41t-242 41t-178.5 111t-107.5 161t-38 193zM426 477q0 -91 53 -148t142 -57t141.5 57t52.5 148 q0 89 -49 147t-145 58q-98 0 -146.5 -57t-48.5 -148zM428 1120l188 432h433l-283 -432h-338z" />
<glyph unicode="&#xf4;" d="M55 475q0 106 37 198.5t107 162.5t178.5 110.5t243.5 40.5t243.5 -40.5t178 -110.5t106.5 -162.5t37 -198.5q0 -102 -37.5 -193t-107.5 -161t-178.5 -111t-241.5 -41t-242 41t-178.5 111t-107.5 161t-38 193zM215 1120l219 432h371l219 -432h-276l-130 211l-126 -211 h-277zM426 477q0 -91 53 -148t142 -57t141.5 57t52.5 148q0 89 -49 147t-145 58q-98 0 -146.5 -57t-48.5 -148z" />
<glyph unicode="&#xf5;" d="M55 475q0 106 37 198.5t107 162.5t178.5 110.5t243.5 40.5t243.5 -40.5t178 -110.5t106.5 -162.5t37 -198.5q0 -102 -37.5 -193t-107.5 -161t-178.5 -111t-241.5 -41t-242 41t-178.5 111t-107.5 161t-38 193zM123 1235q4 8 11.5 21.5t37 47.5t65 59.5t96 47t128.5 21.5 q53 0 104.5 -16.5t84.5 -36t70 -36t66 -16.5q42 0 78.5 26.5t51.5 52.5l16 26l205 -119q-5 -9 -14 -24.5t-42 -55t-71 -69.5t-99.5 -54.5t-128.5 -24.5q-51 0 -97.5 16t-76 35.5t-69 35.5t-78.5 16q-45 0 -83.5 -26t-54.5 -52l-16 -25zM426 477q0 -91 53 -148t142 -57 t141.5 57t52.5 148q0 89 -49 147t-145 58q-98 0 -146.5 -57t-48.5 -148z" />
<glyph unicode="&#xf6;" d="M55 475q0 106 37 198.5t107 162.5t178.5 110.5t243.5 40.5t243.5 -40.5t178 -110.5t106.5 -162.5t37 -198.5q0 -102 -37.5 -193t-107.5 -161t-178.5 -111t-241.5 -41t-242 41t-178.5 111t-107.5 161t-38 193zM158 1255q0 76 61.5 133.5t145.5 57.5t146 -57.5t62 -133.5 q0 -75 -62 -131.5t-146 -56.5t-145.5 56.5t-61.5 131.5zM426 477q0 -91 53 -148t142 -57t141.5 57t52.5 148q0 89 -49 147t-145 58q-98 0 -146.5 -57t-48.5 -148zM672 1255q0 76 61.5 133.5t145.5 57.5t146 -57.5t62 -133.5q0 -75 -62 -131.5t-146 -56.5t-145.5 56.5 t-61.5 131.5z" />
<glyph unicode="&#xf7;" horiz-adv-x="944" d="M82 469v324h780v-324h-780zM229 188q0 91 69.5 156.5t168.5 65.5t169.5 -65.5t70.5 -156.5t-70 -155t-170 -64q-99 0 -168.5 64t-69.5 155zM229 1063q0 91 69.5 156t168.5 65t169.5 -65t70.5 -156t-70 -155t-170 -64q-99 0 -168.5 64t-69.5 155z" />
<glyph unicode="&#xf8;" d="M55 475q0 106 37 198.5t107 162.5t178.5 110.5t243.5 40.5q29 0 43 -2l26 94h160l-35 -118q178 -48 274.5 -180t96.5 -306q0 -102 -37.5 -193t-107.5 -161t-178.5 -111t-241.5 -41q-47 0 -91 6l-34 -122h-160l45 155q-156 59 -241 184.5t-85 282.5zM426 477 q0 -91 49 -143l98 344h-2q-73 -13 -109 -68t-36 -133zM616 272h5q89 0 141.5 57t52.5 148q0 123 -88 178z" />
<glyph unicode="&#xf9;" horiz-adv-x="1302" d="M94 336v561l369 90v-520q0 -91 32 -127.5t95 -36.5q88 0 170 64v530l368 90v-637q0 -40 12 -54.5t46 -14.5q10 0 26 3.5t26 7.5l11 3l39 -238q-11 -8 -31.5 -19.5t-83 -30.5t-124.5 -19q-111 0 -174.5 34.5t-92.5 104.5q-19 -23 -43.5 -44t-67 -50t-102 -46.5 t-125.5 -17.5q-171 0 -260.5 95.5t-89.5 271.5zM190 1552h433l188 -432h-338z" />
<glyph unicode="&#xfa;" horiz-adv-x="1302" d="M94 336v561l369 90v-520q0 -91 32 -127.5t95 -36.5q88 0 170 64v530l368 90v-637q0 -40 12 -54.5t46 -14.5q10 0 26 3.5t26 7.5l11 3l39 -238q-11 -8 -31.5 -19.5t-83 -30.5t-124.5 -19q-111 0 -174.5 34.5t-92.5 104.5q-19 -23 -43.5 -44t-67 -50t-102 -46.5 t-125.5 -17.5q-171 0 -260.5 95.5t-89.5 271.5zM442 1120l189 432h432l-283 -432h-338z" />
<glyph unicode="&#xfb;" horiz-adv-x="1302" d="M94 336v561l369 90v-520q0 -91 32 -127.5t95 -36.5q88 0 170 64v530l368 90v-637q0 -40 12 -54.5t46 -14.5q10 0 26 3.5t26 7.5l11 3l39 -238q-11 -8 -31.5 -19.5t-83 -30.5t-124.5 -19q-111 0 -174.5 34.5t-92.5 104.5q-19 -23 -43.5 -44t-67 -50t-102 -46.5 t-125.5 -17.5q-171 0 -260.5 95.5t-89.5 271.5zM215 1120l219 432h371l219 -432h-276l-130 211l-126 -211h-277z" />
<glyph unicode="&#xfc;" horiz-adv-x="1302" d="M94 336v561l369 90v-520q0 -91 32 -127.5t95 -36.5q88 0 170 64v530l368 90v-637q0 -40 12 -54.5t46 -14.5q10 0 26 3.5t26 7.5l11 3l39 -238q-11 -8 -31.5 -19.5t-83 -30.5t-124.5 -19q-111 0 -174.5 34.5t-92.5 104.5q-19 -23 -43.5 -44t-67 -50t-102 -46.5 t-125.5 -17.5q-171 0 -260.5 95.5t-89.5 271.5zM164 1255q0 76 61.5 133.5t145.5 57.5t146.5 -57.5t62.5 -133.5q0 -75 -62.5 -131.5t-146.5 -56.5t-145.5 56.5t-61.5 131.5zM678 1255q0 76 61.5 133.5t145.5 57.5t146.5 -57.5t62.5 -133.5q0 -75 -62.5 -131.5t-146.5 -56.5 t-145.5 56.5t-61.5 131.5z" />
<glyph unicode="&#xfd;" horiz-adv-x="1208" d="M4 958h412l194 -579l185 579h411l-616 -1497h-387l237 539h-47zM416 1120l188 432h432l-282 -432h-338z" />
<glyph unicode="&#xfe;" horiz-adv-x="1288" d="M113 -539v1985l368 90v-668q97 119 310 119q141 0 241.5 -68.5t148.5 -183.5t48 -264q0 -229 -135 -365.5t-346 -136.5q-193 0 -267 80v-588h-368zM467 354q7 -10 18 -21t33 -26.5t58.5 -25t80.5 -9.5q89 0 146 51t57 146q0 215 -203 215q-118 0 -190 -92v-238z" />
<glyph unicode="&#xff;" horiz-adv-x="1208" d="M4 958h412l194 -579l185 579h411l-616 -1497h-387l237 539h-47zM145 1255q0 76 61.5 133.5t145.5 57.5t146.5 -57.5t62.5 -133.5q0 -75 -62.5 -131.5t-146.5 -56.5t-145.5 56.5t-61.5 131.5zM659 1255q0 76 61.5 133.5t145.5 57.5t146.5 -57.5t62.5 -133.5 q0 -75 -62.5 -131.5t-146.5 -56.5t-145.5 56.5t-61.5 131.5z" />
<glyph unicode="&#x152;" horiz-adv-x="2605" d="M66 719q0 333 219 537t596 204q238 0 426 -90v64h1210v-344h-821v-213h633v-304h-633v-229h821v-344h-1210v57q-181 -88 -426 -88q-161 0 -295.5 39t-229.5 108t-161 163.5t-97.5 205.5t-31.5 234zM459 719q0 -84 24.5 -155t74 -127t132 -88t191.5 -32q107 0 189.5 32 t132.5 88t75 127.5t25 154.5q0 168 -115.5 280.5t-306.5 112.5t-306.5 -112.5t-115.5 -280.5z" />
<glyph unicode="&#x153;" horiz-adv-x="1927" d="M55 475q0 106 37 198.5t107 162.5t178.5 110.5t243.5 40.5q231 0 380 -117q146 117 383 117q121 0 219 -40t156 -103.5t88.5 -135.5t30.5 -143q0 -44 -4.5 -81t-9.5 -52l-4 -16h-668q41 -154 238 -154q88 0 162 17.5t104 34.5l30 18l109 -226q-7 -6 -21 -15t-59.5 -32.5 t-94 -41.5t-121 -33t-144.5 -15q-243 0 -389 121q-154 -121 -385 -121q-133 0 -242 41t-178.5 111t-107.5 161t-38 193zM426 477q0 -91 53 -148t142 -57t141.5 57t52.5 148q0 89 -49 147t-145 58q-98 0 -146.5 -57t-48.5 -148zM1188 580h358v2q-7 76 -49 109.5t-119 33.5 q-76 0 -124.5 -37.5t-65.5 -107.5z" />
<glyph unicode="&#x178;" horiz-adv-x="1542" d="M-8 1434h446l332 -539l334 539h446l-585 -924v-510h-390v512zM313 1731q0 76 61.5 133t145.5 57t146.5 -57.5t62.5 -132.5t-62.5 -132t-146.5 -57t-145.5 56.5t-61.5 132.5zM827 1731q0 76 61.5 133t145.5 57t146.5 -57.5t62.5 -132.5t-62.5 -132t-146.5 -57t-145.5 56.5 t-61.5 132.5z" />
<glyph unicode="&#x2c6;" horiz-adv-x="890" d="M41 1120l219 432h371l219 -432h-277l-129 211l-127 -211h-276z" />
<glyph unicode="&#x2dc;" horiz-adv-x="1095" d="M41 1235q4 8 11.5 21.5t37 47.5t65 59.5t96 47t128.5 21.5q53 0 105 -16.5t84.5 -36t70 -36t66.5 -16.5q42 0 78 26.5t51 52.5l16 26l205 -119q-5 -9 -14 -24.5t-42 -55t-71 -69.5t-99.5 -54.5t-128.5 -24.5q-51 0 -97.5 16t-76 35.5t-69 35.5t-78.5 16q-45 0 -83.5 -26 t-54.5 -52l-16 -25z" />
<glyph unicode="&#x2000;" horiz-adv-x="1008" />
<glyph unicode="&#x2001;" horiz-adv-x="2017" />
<glyph unicode="&#x2002;" horiz-adv-x="1008" />
<glyph unicode="&#x2003;" horiz-adv-x="2017" />
<glyph unicode="&#x2004;" horiz-adv-x="672" />
<glyph unicode="&#x2005;" horiz-adv-x="504" />
<glyph unicode="&#x2006;" horiz-adv-x="336" />
<glyph unicode="&#x2007;" horiz-adv-x="336" />
<glyph unicode="&#x2008;" horiz-adv-x="252" />
<glyph unicode="&#x2009;" horiz-adv-x="403" />
<glyph unicode="&#x200a;" horiz-adv-x="112" />
<glyph unicode="&#x2010;" horiz-adv-x="864" d="M111 424v324h643v-324h-643z" />
<glyph unicode="&#x2011;" horiz-adv-x="864" d="M111 424v324h643v-324h-643z" />
<glyph unicode="&#x2012;" horiz-adv-x="864" d="M111 424v324h643v-324h-643z" />
<glyph unicode="&#x2013;" horiz-adv-x="1191" d="M111 424v324h970v-324h-970z" />
<glyph unicode="&#x2014;" horiz-adv-x="1914" d="M111 424v324h1693v-324h-1693z" />
<glyph unicode="&#x2018;" horiz-adv-x="696" d="M82 1335q0 88 15.5 164t40 127.5t54 93.5t59 66t54 40.5t39.5 22.5l16 6l127 -131q-5 -4 -14.5 -11t-32.5 -30.5t-41 -48.5t-32.5 -62.5t-14.5 -74.5v-2h8q107 0 181.5 -68.5t74.5 -166.5q0 -99 -74.5 -168.5t-181.5 -69.5q-135 0 -206.5 86t-71.5 227z" />
<glyph unicode="&#x2019;" horiz-adv-x="589" d="M-4 1565q0 98 74.5 167.5t181.5 69.5q135 0 206.5 -86t71.5 -227q0 -88 -15.5 -164t-40 -127.5t-54 -93.5t-59 -66t-54 -40.5t-39.5 -22.5l-16 -6l-127 131q5 4 14.5 11t32.5 30.5t41 48.5t32.5 62.5t14.5 74.5v2h-8q-107 0 -181.5 69t-74.5 167z" />
<glyph unicode="&#x201a;" horiz-adv-x="700" d="M80 205q0 98 74.5 167.5t181.5 69.5q135 0 206.5 -86t71.5 -227q0 -88 -15.5 -164t-40 -127.5t-54 -93.5t-59 -66t-54 -40.5t-39.5 -22.5l-16 -6l-127 131q5 4 14.5 11t32.5 30.5t41 48.5t32.5 62.5t14.5 74.5v2h-8q-107 0 -181.5 69t-74.5 167z" />
<glyph unicode="&#x201c;" horiz-adv-x="1355" d="M82 1335q0 88 15.5 164t40 127.5t54 93.5t59 66t54 40.5t39.5 22.5l16 6l127 -131q-5 -4 -14.5 -11t-32.5 -30.5t-41 -48.5t-32.5 -62.5t-14.5 -74.5v-2h8q107 0 181.5 -68.5t74.5 -166.5q0 -99 -74.5 -168.5t-181.5 -69.5q-135 0 -206.5 86t-71.5 227zM741 1335 q0 69 9.5 131t25.5 108.5t37 86.5t44 68t46.5 50.5t44.5 36.5t37 23t25 13l10 3l127 -131q-5 -4 -14.5 -11t-32.5 -30.5t-41 -48.5t-32.5 -62.5t-14.5 -74.5v-2h8q107 0 181.5 -68.5t74.5 -166.5q0 -99 -74.5 -168.5t-181.5 -69.5q-135 0 -207 86.5t-72 226.5z" />
<glyph unicode="&#x201d;" d="M-4 1565q0 98 74.5 167.5t181.5 69.5q135 0 206.5 -86t71.5 -227q0 -88 -15.5 -164t-40 -127.5t-54 -93.5t-59 -66t-54 -40.5t-39.5 -22.5l-16 -6l-127 131q5 4 14.5 11t32.5 30.5t41 48.5t32.5 62.5t14.5 74.5v2h-8q-107 0 -181.5 69t-74.5 167zM647 1565 q0 98 74.5 167.5t181.5 69.5q135 0 207 -86.5t72 -226.5q0 -88 -15.5 -164t-40 -127.5t-54.5 -93.5t-59.5 -66t-54 -40.5t-40.5 -22.5l-15 -6l-127 131q5 4 14.5 11t32.5 30.5t41 48.5t32.5 62.5t14.5 74.5v2h-8q-107 0 -181.5 69t-74.5 167z" />
<glyph unicode="&#x201e;" horiz-adv-x="1384" d="M80 205q0 98 74.5 167.5t181.5 69.5q135 0 206.5 -86t71.5 -227q0 -88 -15.5 -164t-40 -127.5t-54 -93.5t-59 -66t-54 -40.5t-39.5 -22.5l-16 -6l-127 131q5 4 14.5 11t32.5 30.5t41 48.5t32.5 62.5t14.5 74.5v2h-8q-107 0 -181.5 69t-74.5 167zM764 205q0 98 74.5 167.5 t181.5 69.5q135 0 206.5 -86t71.5 -227q0 -88 -15.5 -164t-40 -127.5t-54 -93.5t-59 -66t-54 -40.5t-39.5 -22.5l-16 -6l-127 131q5 4 14.5 11t32.5 30.5t41 48.5t32.5 62.5t14.5 74.5v2h-8q-107 0 -181.5 69t-74.5 167z" />
<glyph unicode="&#x2022;" horiz-adv-x="1073" d="M131 651q0 169 118.5 288.5t287.5 119.5t288 -119.5t119 -288.5t-119 -287t-288 -118t-287.5 118t-118.5 287z" />
<glyph unicode="&#x2026;" horiz-adv-x="1992" d="M80 205q0 98 74.5 167.5t181.5 69.5t182.5 -69.5t75.5 -167.5t-75.5 -167t-182.5 -69t-181.5 69t-74.5 167zM752 205q0 98 74.5 167.5t181.5 69.5t182.5 -69.5t75.5 -167.5t-75.5 -167t-182.5 -69t-181.5 69t-74.5 167zM1399 205q0 98 74.5 167.5t181.5 69.5t182.5 -69.5 t75.5 -167.5t-75.5 -167t-182.5 -69t-181.5 69t-74.5 167z" />
<glyph unicode="&#x202f;" horiz-adv-x="403" />
<glyph unicode="&#x2039;" horiz-adv-x="763" d="M72 330v235l444 396l182 -175l-321 -340l321 -337l-182 -175z" />
<glyph unicode="&#x203a;" horiz-adv-x="763" d="M66 109l321 337l-321 340l182 175l444 -396v-235l-444 -396z" />
<glyph unicode="&#x205f;" horiz-adv-x="504" />
<glyph unicode="&#x20ac;" horiz-adv-x="1779" d="M92 397v242h1094v-242h-398q116 -80 304 -80q87 0 172.5 18t146 44.5t109 52.5t72.5 44l24 18l98 -340q-9 -8 -25.5 -20t-76.5 -44t-128 -56.5t-180 -44.5t-233 -20q-311 0 -503 114.5t-273 313.5h-203zM92 750v241h178q74 223 277 346t524 123q111 0 210 -14t162 -34 t109.5 -39.5t67.5 -33.5l20 -14l-135 -342q-5 5 -15.5 14t-49.5 31t-84.5 39t-122.5 31t-162 14q-196 0 -323 -121h438v-241h-1094z" />
<glyph unicode="&#x2122;" horiz-adv-x="2131" d="M113 1147v235h786v-235h-264v-481h-248v481h-274zM973 666v716h332l182 -413l182 413h332v-716h-238v403l-172 -403h-209l-172 403v-403h-237z" />
<glyph unicode="&#x25fc;" horiz-adv-x="962" d="M0 0v963h963v-963h-963z" />
</font>
</defs>
</svg>
