<?xml version="1.0" standalone="no"?>
<!DOCTYPE svg PUBLIC "-//W3C//DTD SVG 1.1//EN" "http://www.w3.org/Graphics/SVG/1.1/DTD/svg11.dtd" >
<svg xmlns="http://www.w3.org/2000/svg">
<metadata></metadata>
<defs>
<font id="magallanes_essential_boldBdIt" horiz-adv-x="1185" >
<font-face units-per-em="2048" ascent="1536" descent="-512" />
<missing-glyph horiz-adv-x="489" />
<glyph horiz-adv-x="2048" />
<glyph horiz-adv-x="2048" />
<glyph unicode="&#xd;" horiz-adv-x="2048" />
<glyph unicode=" "  horiz-adv-x="489" />
<glyph unicode="&#x09;" horiz-adv-x="489" />
<glyph unicode="&#xa0;" horiz-adv-x="489" />
<glyph unicode="!" horiz-adv-x="606" d="M137 129q0 77 59 133.5t142 56.5q70 0 117 -46.5t47 -114.5q0 -77 -59.5 -133t-141.5 -56q-71 0 -117.5 46t-46.5 114zM236 449l57 985h323l-151 -985h-229z" />
<glyph unicode="&#x22;" horiz-adv-x="802" d="M254 1139l10 444h254l-82 -444h-182zM604 1139l8 444h256l-82 -444h-182z" />
<glyph unicode="#" horiz-adv-x="1419" d="M129 254l23 213h217l80 203h-164l22 213h225l82 200h228l-80 -200h282l82 200h228l-80 -200h141l-22 -213h-205l-80 -203h152l-23 -213h-213l-100 -254h-228l101 254h-285l-100 -254h-228l101 254h-156zM596 467h285l80 203h-285z" />
<glyph unicode="$" horiz-adv-x="1406" d="M76 174l151 227q7 -7 20.5 -19t61 -42.5t101.5 -53.5t142 -42t183 -19q161 0 249.5 48.5t88.5 136.5q0 66 -63.5 100t-249.5 68q-72 13 -127 25.5t-116 31t-105 40t-85.5 52t-67 67t-41 85t-15.5 106.5q0 96 43 181t123 151t207.5 104.5t285.5 38.5q107 0 208 -14.5 t169 -36t120 -42.5t77 -35l24 -15l-129 -248q-7 5 -20 14t-58.5 31.5t-98 40t-138.5 31.5t-178 14q-163 0 -244.5 -47.5t-81.5 -122.5q0 -39 24 -69.5t72 -51.5t101 -35t131 -28q140 -25 234.5 -55t166 -76t104.5 -112t33 -157q0 -213 -175 -345.5t-496 -131.5 q-97 0 -184 11.5t-149 30t-114.5 40t-85.5 43.5t-56 40t-32 29zM522 -608l86 463h183l-13 -463h-256zM784 1534l13 463h256l-86 -463h-183z" />
<glyph unicode="%" horiz-adv-x="1488" d="M111 -31l1181 1491h234l-1182 -1491h-233zM193 1116q0 154 97 249t261 95q140 0 215.5 -74t75.5 -200q0 -153 -97 -250.5t-260 -97.5q-138 0 -215 76t-77 202zM365 1133q0 -64 36 -102t101 -38q77 0 122.5 49t45.5 127q0 60 -36.5 93.5t-101.5 33.5q-77 0 -122 -43.5 t-45 -119.5zM799 248q0 154 97 249t261 95q140 0 215.5 -74.5t75.5 -200.5q0 -154 -96 -251t-260 -97q-137 0 -215 77t-78 202zM971 264q0 -64 36 -101.5t101 -37.5q77 0 123.5 49t46.5 127q0 60 -36.5 94.5t-100.5 34.5q-77 0 -123.5 -45t-46.5 -121z" />
<glyph unicode="&#x26;" horiz-adv-x="1470" d="M156 369q0 71 21 134.5t51 107t72 82t73 59.5t65 39q-82 118 -82 262q0 179 138 293t374 114q91 0 171.5 -15.5t130.5 -38t87 -44.5t53 -38l15 -15l-131 -219q-4 5 -11.5 12.5t-35 27t-60 34.5t-87 27.5t-115.5 12.5q-110 0 -168 -50.5t-58 -123.5q0 -51 27 -100.5 t80 -112.5l354 -409q57 84 70 188h260q-21 -204 -162 -375l125 -143l-194 -180l-142 159q-173 -90 -379 -90q-261 0 -401.5 104t-140.5 298zM430 406q0 -90 76 -141.5t219 -51.5q105 0 178 39l-330 381q-143 -83 -143 -227z" />
<glyph unicode="'" horiz-adv-x="452" d="M254 1139l10 444h254l-82 -444h-182z" />
<glyph unicode="(" horiz-adv-x="663" d="M123 301q0 169 25 331.5t64.5 287.5t87.5 237.5t96 190.5t87.5 136t64.5 86l25 27l203 -124q-8 -8 -22.5 -23.5t-56.5 -71t-79.5 -118.5t-84 -166t-79.5 -213.5t-56 -261t-23 -308.5q0 -148 20 -284t49 -225t58 -156.5t49 -97.5l20 -31l-229 -125q-9 13 -23.5 39 t-52.5 114.5t-67 186t-52.5 252.5t-23.5 317z" />
<glyph unicode=")" horiz-adv-x="665" d="M-8 -483q8 8 22.5 23.5t56 71t79 118.5t83.5 165.5t79.5 213t56 261t22.5 308.5q0 148 -20 284t-48.5 225t-57 157t-48.5 98l-20 31l231 124q9 -13 23.5 -39t52 -114t66 -186t52 -253.5t23.5 -318.5q0 -132 -15.5 -261t-41.5 -235t-59.5 -205.5t-70.5 -178t-74 -146.5 t-70.5 -116.5t-59.5 -83t-42 -51.5l-15 -17z" />
<glyph unicode="*" horiz-adv-x="1071" d="M195 1004l301 135l-273 133l127 186l240 -180l4 315h217l-59 -315l276 180l90 -186l-303 -133l275 -135l-129 -187l-238 182l-6 -315h-217l63 317l-280 -184z" />
<glyph unicode="+" horiz-adv-x="1232" d="M139 623l27 245h420l43 418h245l-43 -418h418l-26 -245h-418l-45 -420h-246l45 420h-420z" />
<glyph unicode="," horiz-adv-x="610" d="M119 137q0 81 63 140t148 59q92 0 138 -56.5t46 -150.5q0 -82 -15 -153.5t-39 -120t-53 -88.5t-58 -63t-53 -39t-39 -21l-15 -6l-74 92q5 3 14 9t31.5 27.5t40 46t32.5 64.5t17 84v8h-12q-74 0 -123 48.5t-49 119.5z" />
<glyph unicode="-" horiz-adv-x="864" d="M176 455l27 243h608l-27 -243h-608z" />
<glyph unicode="." horiz-adv-x="591" d="M119 137q0 81 63 140t148 59q76 0 125 -48.5t49 -119.5q0 -81 -63 -140t-150 -59q-74 0 -123 48.5t-49 119.5z" />
<glyph unicode="/" horiz-adv-x="940" d="M4 -508l770 1942h260l-770 -1942h-260z" />
<glyph unicode="0" horiz-adv-x="1499" d="M162 625q0 186 56.5 343t155.5 264.5t235.5 167.5t293.5 60q264 0 424 -177.5t160 -471.5q0 -139 -30.5 -264.5t-92 -231t-148.5 -183t-207 -120.5t-261 -43q-145 0 -258 49.5t-184 138t-107.5 207.5t-36.5 261zM459 637q0 -187 78 -297.5t237 -110.5q106 0 188 46 t130.5 126t73 180.5t24.5 217.5q0 190 -83.5 295.5t-229.5 105.5q-189 0 -303.5 -149.5t-114.5 -413.5z" />
<glyph unicode="1" horiz-adv-x="1040" d="M119 1087q631 347 633 347h272l-152 -1434h-299l117 1100l-450 -250z" />
<glyph unicode="2" horiz-adv-x="1286" d="M104 0l25 233l487 332q169 118 210 151q98 82 125 169q14 46 14 104q0 92 -68.5 151.5t-189.5 59.5q-70 0 -138 -14t-115.5 -34t-85 -39.5t-55.5 -33.5l-18 -14l-94 246q9 6 25 16t71 36t115 45.5t153 35.5t189 16q248 0 380 -117t132 -309q0 -128 -39 -224t-116 -175 t-218 -178l-289 -203h613l-27 -254h-1086z" />
<glyph unicode="3" horiz-adv-x="1345" d="M57 162l152 235q7 -7 19.5 -18t55.5 -40t91.5 -51.5t125 -40.5t156.5 -18q155 0 248.5 51.5t93.5 143.5q0 52 -31.5 89t-88.5 57.5t-125 30t-152 9.5l25 242q75 0 138.5 8.5t123 29.5t93.5 61.5t34 97.5q0 66 -65 108.5t-187 42.5q-67 0 -134.5 -14t-115 -34t-86 -39.5 t-57.5 -33.5l-19 -14l-90 250q9 6 25 15.5t70 34.5t112 44.5t146.5 35t177.5 15.5q249 0 387.5 -99.5t138.5 -260.5q0 -88 -23.5 -154.5t-67.5 -108t-96 -65.5t-120 -37q56 -5 104 -23.5t90 -53t66 -95t24 -139.5q0 -207 -178.5 -331t-486.5 -124q-101 0 -197.5 20 t-162 48.5t-116 56.5t-74.5 48z" />
<glyph unicode="4" horiz-adv-x="1296" d="M82 279l22 217l551 923h316l-520 -887h389l39 371h290l-39 -371h168l-26 -253h-168l-29 -279h-291l29 279h-731z" />
<glyph unicode="5" horiz-adv-x="1341" d="M63 121l148 233q7 -5 20 -14t57 -31t92.5 -39t124.5 -31t154 -14q361 0 361 234q0 107 -87 156t-235 49q-109 0 -228 -18t-183 -36l-64 -18l150 842h950l-27 -254h-696l-57 -293q112 24 239 24q83 0 155.5 -11.5t142.5 -41t120 -75.5t80.5 -120.5t30.5 -170.5 q0 -249 -174.5 -387t-483.5 -138q-103 0 -201.5 16t-165.5 38.5t-120 45t-78 38.5z" />
<glyph unicode="6" horiz-adv-x="1372" d="M164 618q0 249 90.5 437.5t270.5 296.5t429 108q79 0 153 -12.5t122.5 -30t85.5 -34.5t54 -29l17 -13l-149 -237q-4 4 -12 10.5t-35 23t-58 29t-81.5 23t-104.5 10.5q-186 0 -309.5 -105t-161.5 -294q175 102 359 102q244 0 375.5 -108.5t131.5 -311.5q0 -148 -77.5 -266 t-213.5 -183t-305 -65q-123 0 -221.5 33.5t-165 92t-110.5 141.5t-64 177.5t-20 204.5zM459 575q8 -166 86 -256t227 -90q118 0 194 69t76 173q0 95 -62 149t-171 54q-177 0 -350 -99z" />
<glyph unicode="7" horiz-adv-x="1177" d="M162 1180l26 254h1100l-24 -230l-656 -1204h-329l649 1180h-766z" />
<glyph unicode="8" horiz-adv-x="1406" d="M129 342q0 265 344 395q-221 93 -221 310q0 183 164.5 298t443.5 115q243 0 381.5 -96.5t138.5 -251.5q0 -70 -19.5 -127.5t-56 -99.5t-80.5 -72.5t-100 -54.5q236 -115 236 -334q0 -73 -22 -138t-72 -124t-125 -101t-187 -67t-252 -25q-153 0 -266.5 29.5t-179 82 t-96.5 118t-31 143.5zM430 395q0 -78 74 -132t223 -54q168 0 252 67t84 164q0 185 -287 226q-51 -11 -88.5 -21.5t-89.5 -33t-85.5 -49t-58 -70.5t-24.5 -97zM547 1034q0 -38 16 -68t37 -47.5t55 -31t54.5 -18t53 -10t34.5 -5.5q72 -12 84 -16q91 26 141.5 78t50.5 145 q0 73 -64 118.5t-173 45.5q-128 0 -208.5 -53t-80.5 -138z" />
<glyph unicode="9" horiz-adv-x="1374" d="M139 88l150 238q4 -4 12 -10.5t35 -23t58 -29.5t81.5 -23.5t104.5 -10.5q185 0 308 105t161 293q-173 -101 -357 -101q-246 0 -377 108.5t-131 309.5q0 225 168.5 370.5t427.5 145.5q123 0 222 -33.5t165.5 -92t111 -141.5t64 -177.5t19.5 -204.5q0 -148 -33 -277 t-99.5 -233t-160.5 -178t-221 -114t-277 -40q-79 0 -153 12.5t-122.5 30t-85.5 34.5t-54 30zM483 958q0 -95 62.5 -148.5t171.5 -53.5q173 0 348 96q-8 167 -85.5 257.5t-225.5 90.5q-118 0 -194.5 -69.5t-76.5 -172.5z" />
<glyph unicode=":" horiz-adv-x="608" d="M137 129q0 77 60 133.5t143 56.5q70 0 116 -46.5t46 -114.5q0 -77 -59 -133t-140 -56q-72 0 -119 46t-47 114zM207 801q0 76 59.5 132t141.5 56q71 0 117 -46t46 -114q0 -77 -59 -132.5t-141 -55.5q-71 0 -117.5 46t-46.5 114z" />
<glyph unicode=";" horiz-adv-x="632" d="M137 127q0 78 62 135t145 57q92 0 138 -53.5t46 -142.5q0 -83 -15 -155t-39 -120t-53 -87t-58 -61t-53 -37t-39 -20l-15 -5l-74 90q5 3 13.5 9t31 27.5t39.5 46t32 65.5t17 85v8q0 -2 -8 -2q-73 0 -121.5 46.5t-48.5 113.5zM213 803q0 77 59 133.5t140 56.5 q71 0 118.5 -47t47.5 -115q0 -76 -60.5 -132t-142.5 -56q-71 0 -116.5 46t-45.5 114z" />
<glyph unicode="&#x3c;" horiz-adv-x="837" d="M123 401l27 254l684 373l-27 -260l-442 -240l391 -239l-27 -254z" />
<glyph unicode="=" horiz-adv-x="1107" d="M152 217l26 244h848l-27 -244h-847zM201 688l26 244h848l-26 -244h-848z" />
<glyph unicode="&#x3e;" horiz-adv-x="837" d="M117 35l26 254l441 239l-389 240l26 260l606 -373l-26 -254z" />
<glyph unicode="?" horiz-adv-x="1198" d="M193 1294q9 7 26 18t73 39.5t116 50.5t151.5 40t183.5 18q228 0 353 -110t125 -289q0 -77 -26 -147.5t-67 -121.5t-91 -95t-100.5 -72.5t-91.5 -49t-67 -29.5l-26 -9l-13 -117h-258l29 264q9 2 23.5 5.5t57.5 18t82 32t86.5 47.5t81.5 64t57.5 82t23.5 101 q0 75 -55.5 122.5t-151.5 47.5q-69 0 -138 -14t-118.5 -34t-89.5 -40.5t-60 -34.5l-20 -14zM391 129q0 77 59.5 133.5t141.5 56.5q71 0 117.5 -46.5t46.5 -114.5q0 -77 -59.5 -133t-141.5 -56q-71 0 -117.5 46t-46.5 114z" />
<glyph unicode="@" horiz-adv-x="2183" d="M137 403q0 232 83 430t230 337t358 217.5t460 78.5q210 0 382.5 -59.5t289 -166t180 -256.5t63.5 -329q0 -138 -34 -250t-93.5 -188.5t-141.5 -129t-175.5 -76t-198.5 -23.5q-188 0 -197 121v2q-136 -142 -348 -142q-197 0 -301 124.5t-104 326.5q0 253 171 410t451 157 q89 0 169 -17.5t131 -42.5t89.5 -50t54.5 -43l17 -17l-59 -559q-3 -31 7.5 -43t39.5 -12q133 2 198.5 107t65.5 327q0 280 -184 442t-496 162q-246 0 -436 -98t-298 -285t-108 -436q0 -215 85 -381t251 -270l-147 -205q-117 58 -206 149t-142.5 202t-80 233t-26.5 253z M860 438q0 -120 61.5 -180.5t180.5 -60.5q147 0 254 112l41 396q-83 57 -221 57q-139 0 -227.5 -87.5t-88.5 -236.5z" />
<glyph unicode="A" horiz-adv-x="1497" d="M18 0l723 1434h318l420 -1434h-308l-90 319h-602l-153 -319h-308zM594 557h426l-156 557z" />
<glyph unicode="B" horiz-adv-x="1449" d="M168 0l151 1434h666q216 0 321 -87.5t105 -236.5q0 -299 -270 -377q142 -26 206 -99.5t64 -201.5q0 -204 -152.5 -318t-398.5 -114h-692zM483 254h394q121 0 185 49.5t64 145.5q0 165 -231 165h-373zM545 829h356q86 0 148.5 54t62.5 151q0 66 -46 106t-134 40h-350z" />
<glyph unicode="C" horiz-adv-x="1552" d="M158 637q0 184 58.5 335t168 259.5t276.5 168.5t375 60q108 0 204 -14t156 -34t104 -39.5t62 -33.5l19 -14l-139 -246q-5 5 -15 13.5t-47.5 30t-83 38t-122.5 30t-164 13.5q-159 0 -284.5 -65t-197 -187.5t-71.5 -283.5q0 -96 27.5 -175t82 -140t144 -94.5t207.5 -33.5 q90 0 181.5 17.5t157.5 42.5t119 50t80 43l27 17l51 -245q-10 -7 -28 -19.5t-81 -43.5t-133.5 -55t-182 -43.5t-228.5 -19.5q-153 0 -275.5 34.5t-205 94.5t-138 145.5t-80 183t-24.5 210.5z" />
<glyph unicode="D" horiz-adv-x="1599" d="M168 0l151 1434h568q343 0 522.5 -161.5t179.5 -469.5q0 -263 -106.5 -445t-296 -270t-451.5 -88h-567zM483 254h246q283 0 426 125.5t143 396.5q0 207 -120 305.5t-359 98.5h-237z" />
<glyph unicode="E" horiz-adv-x="1406" d="M168 0l151 1434h1147l-26 -254h-858l-37 -351h682l-25 -233h-682l-37 -342h858l-26 -254h-1147z" />
<glyph unicode="F" horiz-adv-x="1351" d="M168 0l151 1434h1147l-26 -254h-858l-39 -371h682l-25 -234h-682l-61 -575h-289z" />
<glyph unicode="G" horiz-adv-x="1595" d="M158 637q0 184 58.5 335t168 259.5t276.5 168.5t375 60q108 0 204 -14t156 -34t104 -39.5t62 -33.5l19 -14l-139 -248q-5 5 -15 13.5t-47.5 30.5t-83 39t-122.5 30.5t-164 13.5q-159 0 -284.5 -65t-197 -187.5t-71.5 -283.5q0 -96 27.5 -175t82 -140t144 -94.5 t207.5 -33.5q161 0 325 62l27 254h-439l25 223h713l-66 -614q-9 -7 -26.5 -19.5t-77.5 -43.5t-127 -55t-173 -43.5t-218 -19.5q-153 0 -275.5 34.5t-205 94.5t-138 145.5t-80 183t-24.5 210.5z" />
<glyph unicode="H" horiz-adv-x="1613" d="M168 0l151 1434h289l-65 -609h700l66 609h288l-151 -1434h-289l60 571h-701l-59 -571h-289z" />
<glyph unicode="I" horiz-adv-x="624" d="M168 0l151 1434h289l-151 -1434h-289z" />
<glyph unicode="J" horiz-adv-x="634" d="M63 47q6 4 16 12.5t35.5 37.5t46.5 62t40.5 86t25.5 109l113 1080h289l-113 -1076q-8 -71 -28 -133.5t-47 -105.5t-57.5 -79t-59.5 -57.5t-52.5 -36.5t-37.5 -20l-15 -6z" />
<glyph unicode="K" horiz-adv-x="1525" d="M168 0l151 1434h289l-69 -660h211q134 0 217 61.5t133.5 204t77.5 394.5h288q-35 -336 -128 -542t-269 -296l160 -305q24 -46 55.5 -62t75.5 -16q27 0 59 7.5t50 15.5l18 8l47 -178q-4 -3 -12.5 -8.5t-36.5 -19t-57.5 -23.5t-75 -18.5t-90.5 -8.5q-121 0 -193.5 56 t-128.5 169l-152 307q-23 -2 -71 -2h-205l-55 -518h-289z" />
<glyph unicode="L" horiz-adv-x="1271" d="M168 0l151 1434h289l-125 -1180h805l-26 -254h-1094z" />
<glyph unicode="M" horiz-adv-x="1802" d="M168 0l151 1434h261l370 -998l576 998h260l-152 -1434h-286l84 801l-443 -801h-176l-272 801l-84 -801h-289z" />
<glyph unicode="N" horiz-adv-x="1593" d="M168 0l151 1434h234l635 -947l100 947h289l-152 -1434h-229l-643 920l-96 -920h-289z" />
<glyph unicode="O" horiz-adv-x="1742" d="M156 637q0 179 61 331t172.5 261t275.5 170t361 61q335 0 524 -181t189 -480q0 -133 -34 -254.5t-105 -227t-172.5 -182.5t-245 -121.5t-314.5 -44.5q-145 0 -264 34.5t-201.5 95.5t-138.5 145.5t-82 183t-26 209.5zM449 659q0 -92 26 -169t78.5 -137t139.5 -94t202 -34 q137 0 244.5 44.5t172.5 121.5t98.5 174t33.5 207q0 197 -118 314.5t-327 117.5q-250 0 -400 -151t-150 -394z" />
<glyph unicode="P" horiz-adv-x="1476" d="M168 0l151 1434h656q261 0 404 -116.5t143 -346.5q0 -285 -174.5 -430.5t-483.5 -145.5h-366l-41 -395h-289zM524 649h367q170 0 253 73t83 224q0 119 -69.5 176.5t-209.5 57.5h-366z" />
<glyph unicode="Q" horiz-adv-x="1746" d="M158 637q0 179 61 331t172.5 261t275.5 170t361 61q335 0 524 -181t189 -480q0 -122 -29 -235t-89.5 -213t-147.5 -177.5t-209 -129t-267 -67.5q-1 -16 -1 -31q0 -133 72 -189q79 -62 257 -62l-27 -260q-150 0 -258 28.5t-184 91.5t-108 169q-24 79 -24 182q0 36 3 74 q-144 18 -255 76.5t-179 147t-102.5 198t-34.5 235.5zM451 659q0 -92 26 -169t78.5 -137t139.5 -94t202 -34q137 0 244.5 44.5t172.5 121.5t98.5 174t33.5 207q0 197 -118 314.5t-327 117.5q-250 0 -400 -151t-150 -394z" />
<glyph unicode="R" horiz-adv-x="1511" d="M168 0l151 1434h580q259 0 390.5 -106t131.5 -308q0 -353 -303 -475l103 -254q18 -44 45.5 -61t70.5 -17q26 0 58 7.5t51 15.5l18 8l58 -178q-4 -3 -12.5 -8.5t-36 -19t-57 -23.5t-75.5 -18.5t-92 -8.5q-93 0 -154 25.5t-96.5 71.5t-66.5 128l-107 274q-36 -4 -63 -4 h-254l-51 -483h-289zM532 729h261q178 0 257.5 65t79.5 197q0 189 -237 189h-311z" />
<glyph unicode="S" horiz-adv-x="1423" d="M82 174l151 227q7 -7 20.5 -19t61 -42.5t102 -53.5t143 -42t183.5 -19q160 0 248 48.5t88 136.5q0 66 -63.5 100t-249.5 68q-72 13 -126.5 25.5t-115.5 31t-104.5 39.5t-85 51.5t-67 67t-41 84.5t-15.5 106q0 97 43 182.5t123.5 151.5t207 104.5t283.5 38.5 q108 0 209 -14.5t168.5 -36t120 -42.5t76.5 -35l24 -15l-129 -248q-7 5 -20 14t-58.5 31.5t-98 40t-138.5 31.5t-178 14q-163 0 -244.5 -47.5t-81.5 -122.5q0 -39 24 -69.5t72 -51.5t101 -35t131 -28q140 -25 235 -55t166.5 -76t105 -112t33.5 -157q0 -214 -175 -346 q-174 -132 -491 -131h-5q-97 0 -184.5 11.5t-150 30t-114.5 40t-85 43.5t-56.5 40t-32.5 29z" />
<glyph unicode="T" horiz-adv-x="1456" d="M139 1184l27 250h1427l-26 -250h-574l-125 -1184h-288l125 1184h-566z" />
<glyph unicode="U" horiz-adv-x="1560" d="M217 606l86 828h287l-88 -838q-5 -48 -6 -89q0 -133 54 -200q70 -88 251 -88t270.5 86.5t110.5 290.5l88 838h289l-86 -828q-18 -174 -68 -295t-137 -196t-207 -109t-287 -35q-326 0 -460 146q-105 115 -105 352q0 64 8 137z" />
<glyph unicode="V" horiz-adv-x="1568" d="M166 1434h346l305 -1102l547 1102h342l-752 -1434h-340z" />
<glyph unicode="W" horiz-adv-x="2328" d="M180 1434h342l211 -1074l436 1074h293l209 -1074l438 1074h342l-649 -1434h-340l-194 956l-402 -956h-340z" />
<glyph unicode="X" horiz-adv-x="1523" d="M10 0l629 715l-477 719h358l344 -531l451 531h352l-633 -727l482 -707h-359l-346 522l-449 -522h-352z" />
<glyph unicode="Y" horiz-adv-x="1536" d="M170 1434h342l342 -625l477 625h338l-702 -910l-56 -524h-288l55 526z" />
<glyph unicode="Z" horiz-adv-x="1345" d="M90 0l25 233l886 947h-786l27 254h1165l-25 -228l-884 -950h784l-27 -256h-1165z" />
<glyph unicode="[" horiz-adv-x="782" d="M90 -608l229 2179h570l-25 -238h-317l-180 -1704h317l-25 -237h-569z" />
<glyph unicode="\" horiz-adv-x="940" d="M209 1434h260l360 -1942h-260z" />
<glyph unicode="]" horiz-adv-x="782" d="M-2 -608l25 237h315l180 1704h-315l24 238h570l-230 -2179h-569z" />
<glyph unicode="^" horiz-adv-x="1103" d="M205 1051l383 542h280l248 -544h-211l-196 370l-293 -368h-211z" />
<glyph unicode="_" horiz-adv-x="1064" d="M109 -195l18 185h809l-18 -185h-809z" />
<glyph unicode="`" horiz-adv-x="608" d="M199 1538h321l142 -418h-248z" />
<glyph unicode="a" d="M82 213q0 140 134 220.5t425 80.5q85 0 139 -12l11 96q1 14 1 26q0 70 -42 102q-50 36 -185 36q-76 0 -156 -14t-123 -28l-42 -15l-25 219q22 7 60.5 17.5t152 28t221.5 17.5q223 0 327 -86q89 -74 89 -204q0 -21 -2 -44l-41 -389q-3 -34 6.5 -47.5t38.5 -13.5 q17 0 43 5.5t43 11.5l17 5l18 -168q-12 -8 -32.5 -19.5t-83.5 -30.5t-124 -19q-89 0 -136.5 29t-59.5 92q-165 -140 -367 -140q-141 0 -224 63t-83 181zM358 256q0 -41 37.5 -62.5t98.5 -21.5q150 0 260 76l12 114q-69 11 -129 11q-279 0 -279 -117z" />
<glyph unicode="b" horiz-adv-x="1247" d="M141 139l140 1325l278 72l-72 -672q137 123 328 123q134 0 228 -59.5t138 -158.5t44 -230q0 -254 -171.5 -412t-451.5 -158q-51 0 -99 6t-87 15.5t-74 22.5t-62 27t-50 28t-39 27t-27.5 22.5t-17.5 15.5zM416 246q90 -56 223 -56q141 0 228 87t87 245q0 244 -241 244 q-147 0 -252 -100z" />
<glyph unicode="c" horiz-adv-x="1093" d="M123 424q0 115 39 215.5t112.5 178.5t190.5 123.5t264 45.5q72 0 136.5 -9.5t105.5 -23t71.5 -27t43.5 -23.5l14 -9l-117 -213q-3 3 -9 7.5t-29 16.5t-50 21.5t-72.5 17t-95.5 7.5q-155 0 -240.5 -85t-85.5 -212q0 -110 69.5 -180t197.5 -70q58 1 113 12.5t92 28.5 t66 33.5t43 28.5l13 11l68 -210q-7 -6 -20 -15.5t-57 -33.5t-93 -42.5t-125.5 -33.5t-155.5 -15q-234 0 -361.5 123t-127.5 332z" />
<glyph unicode="d" horiz-adv-x="1325" d="M125 420q0 254 160 410.5t415 156.5q148 0 252 -65l58 542l278 72l-133 -1272q-3 -34 6.5 -47.5t38.5 -13.5q18 0 44 5.5t42 11.5l17 5l18 -168q-12 -8 -32.5 -19.5t-83.5 -30.5t-124 -19q-90 0 -136.5 29.5t-61.5 93.5q-142 -142 -348 -142q-133 0 -227 59.5t-138.5 160 t-44.5 231.5zM397 442q0 -247 244 -247q138 0 254 106l41 389q-83 72 -221 72q-142 0 -230 -83.5t-88 -236.5z" />
<glyph unicode="e" horiz-adv-x="1159" d="M123 428q0 113 38 213t110 177.5t187 123t259 45.5q94 0 170.5 -26t125 -66.5t81 -94t46 -106t13.5 -104.5q0 -44 -9.5 -87.5t-19.5 -64.5l-10 -22h-727q8 -104 76.5 -165t198.5 -61q58 0 113.5 9.5t93 23t67 26.5t43.5 23l14 9l64 -172q-7 -6 -21 -15.5t-59.5 -33.5 t-93.5 -42.5t-120.5 -33.5t-144.5 -15q-100 0 -182 24t-139.5 65.5t-97 100t-58 126t-18.5 143.5zM401 563h502q2 17 2 32q0 79 -47 129q-56 58 -166 58q-114 0 -188 -58.5t-103 -160.5z" />
<glyph unicode="f" horiz-adv-x="854" d="M119 729l65 229h129l19 166q24 217 138.5 315.5t309.5 98.5q72 0 136 -15t92 -31l28 -15l-100 -213q-54 30 -154 30q-163 0 -180 -176l-16 -160h336l-25 -229h-336l-76 -729h-270l76 729h-172z" />
<glyph unicode="g" horiz-adv-x="1173" d="M33 -287q0 96 62.5 158t160.5 96q-84 46 -84 131q0 105 143 168q-88 44 -134 119.5t-46 171.5q0 85 33 160t99.5 136.5t179.5 97.5t260 36q95 0 180 -20q70 13 110.5 100.5t57.5 255.5h252q-17 -163 -82.5 -273.5t-171.5 -160.5q61 -48 93 -117.5t32 -146.5 q0 -188 -146.5 -304t-402.5 -116h-56q-14 0 -35 -2.5t-50.5 -9.5t-49.5 -24.5t-20 -41.5q0 -33 46.5 -44t141.5 -11q118 0 209 -16t147 -43t91.5 -65t49 -77.5t13.5 -85.5q0 -162 -145.5 -257t-427.5 -95q-250 0 -380 75t-130 205zM307 -256q0 -121 256 -121q279 0 279 137 q0 121 -256 121q-80 0 -154 6q-125 -46 -125 -143zM406 561q0 -79 60.5 -122.5t180.5 -43.5q122 0 189 54t67 149q0 75 -56 123.5t-165 48.5q-137 0 -206.5 -59t-69.5 -150z" />
<glyph unicode="h" horiz-adv-x="1284" d="M135 0l154 1464l278 72l-73 -696q20 19 48 39.5t74.5 47t108.5 43.5t127 17q172 0 251 -95q64 -77 64 -206q0 -31 -4 -65l-37 -357q-3 -35 5.5 -48t37.5 -13q18 0 44.5 5.5t43.5 11.5l17 5l18 -168q-12 -8 -33 -19.5t-84 -30.5t-124 -19q-123 0 -167 58q-35 46 -35 131 q0 23 3 50l33 316q3 27 3 50q0 71 -28 106q-37 46 -127 46q-130 0 -260 -106l-67 -639h-271z" />
<glyph unicode="i" horiz-adv-x="538" d="M135 0l101 958h270l-100 -958h-271zM233 1260q0 76 53.5 126t135.5 50q67 0 109 -40.5t42 -103.5q0 -76 -53.5 -126t-132.5 -50q-70 0 -112 40t-42 104z" />
<glyph unicode="j" horiz-adv-x="540" d="M-43 -428q6 4 16 12.5t36 37.5t47.5 62t41 86t25.5 109l113 1079h270l-113 -1075q-8 -71 -28 -133.5t-47 -105.5t-57.5 -79t-59.5 -57.5t-52.5 -36.5t-38.5 -21l-14 -5zM236 1260q0 77 53 126.5t135 49.5q68 0 109.5 -40t41.5 -104q0 -77 -52 -126.5t-134 -49.5 q-70 0 -111.5 40t-41.5 104z" />
<glyph unicode="k" horiz-adv-x="1265" d="M135 0l154 1464l278 72l-102 -977h153q126 0 198 94t95 305h271q-41 -403 -271 -544l88 -150q22 -37 45 -49t56 -12q25 0 56 7.5t49 15.5l18 7l39 -165q-4 -3 -11.5 -8.5t-32.5 -19.5t-52 -24.5t-68.5 -19t-83.5 -8.5q-58 0 -103 15t-79 46.5t-57 65.5t-50 86l-76 145 q-6 0 -17 -1t-16 -1h-174l-36 -344h-271z" />
<glyph unicode="l" horiz-adv-x="634" d="M156 227l129 1237l278 72l-133 -1266q-4 -38 8.5 -52.5t46.5 -14.5q24 0 60 6t60 12l24 6l18 -172q-14 -8 -38.5 -19t-99 -29.5t-147.5 -18.5q-128 0 -174 58q-35 45 -35 129q0 24 3 52z" />
<glyph unicode="m" horiz-adv-x="1945" d="M131 0l96 907l277 72l-15 -139q20 19 48 39.5t74.5 47t109 43.5t127.5 17q231 0 291 -168q15 17 41.5 39.5t74.5 54.5t116.5 53t141.5 21q171 0 251 -95q64 -77 65 -206q0 -31 -4 -65l-37 -357q-3 -34 6.5 -47.5t38.5 -13.5q17 0 43 5.5t44 11.5l17 5l17 -168 q-12 -8 -32.5 -19.5t-83.5 -30.5t-124 -19q-126 0 -170 58q-34 45 -34 129q0 24 3 52l33 316q3 28 3 51q-1 70 -27 105q-36 46 -125 46q-117 0 -238 -88q0 -29 -2 -45l-63 -612h-271l58 543q3 27 3 50q0 71 -28 106q-37 46 -127 46q-130 0 -260 -106l-68 -639h-270z" />
<glyph unicode="n" horiz-adv-x="1280" d="M131 0l96 907l277 72l-15 -139q20 19 48 39.5t74.5 47t109 43.5t127.5 17q172 0 251 -95q64 -77 64 -206q0 -31 -4 -65l-37 -357q-3 -35 5.5 -48t37.5 -13q18 0 44.5 5.5t43.5 11.5l17 5l18 -168q-12 -8 -33 -19.5t-84 -30.5t-124 -19q-123 0 -167 58q-35 46 -35 131 q0 23 3 50l33 316q2 23 2 43q-1 74 -29 110q-36 46 -125 45q-129 0 -260 -102l-68 -639h-270z" />
<glyph unicode="o" horiz-adv-x="1249" d="M123 426q0 113 39.5 213.5t114 178.5t191.5 123.5t261 45.5q123 0 219 -36t156.5 -99.5t91.5 -146t31 -179.5q0 -112 -40 -212t-114.5 -177t-191 -122.5t-258.5 -45.5q-123 0 -220 36t-157.5 99t-91.5 145t-31 177zM395 444q0 -111 64.5 -180t185.5 -69q144 0 227.5 89 t83.5 226q0 110 -64 180t-187 70q-101 0 -172.5 -44t-104.5 -114t-33 -158z" />
<glyph unicode="p" horiz-adv-x="1257" d="M74 -539l151 1446l279 72l-12 -123q47 53 129 92t202 39q198 0 304 -122.5t106 -325.5q0 -260 -156 -415t-409 -155q-155 0 -265 66l-59 -574h-270zM420 264q87 -69 231 -69q140 0 225 83t85 238q0 246 -244 246q-147 0 -256 -109z" />
<glyph unicode="q" horiz-adv-x="1245" d="M123 420q0 253 171 410t451 157q89 0 169 -17.5t131.5 -42.5t88.5 -50t54.5 -42.5t15.5 -17.5l-141 -1356h-270l65 627q-133 -119 -323 -119q-199 0 -305.5 125t-106.5 326zM393 434q0 -244 242 -244q139 0 252 99l45 420q-77 57 -221 57q-142 0 -230 -87t-88 -245z" />
<glyph unicode="r" horiz-adv-x="884" d="M131 0l96 907l277 72l-19 -184q19 25 45.5 52t70 61.5t102 56.5t118.5 22q50 0 89.5 -10.5t53.5 -20.5l15 -10l-98 -233q-40 28 -142 28q-136 0 -276 -157l-62 -584h-270z" />
<glyph unicode="s" horiz-adv-x="1089" d="M72 94l104 191l16.5 -11t47 -25t77 -31.5t105.5 -24.5t133 -11q92 0 144.5 25t52.5 69q0 24 -14.5 41.5t-41 27t-60.5 17t-76 14.5l-21 3q-47 8 -74 13.5t-72 17.5t-72 24t-60.5 33t-52 45.5t-31.5 60t-13 78.5q0 63 29.5 120.5t88.5 107t162.5 79t237.5 29.5 q73 0 142 -8.5t114.5 -20.5t80.5 -24t51 -20l17 -9l-94 -219q-4 3 -12.5 8.5t-38.5 19.5t-64 24.5t-89 19t-115 8.5q-106 0 -160.5 -30t-54.5 -81q0 -23 11.5 -39t45 -27t52 -15t75.5 -13q7 -1 11.5 -2t11 -2t12.5 -2q37 -6 63.5 -11t63.5 -14t63 -19.5t56.5 -25t51 -33 t38.5 -42.5t26.5 -54.5t8.5 -66.5q0 -144 -130 -232t-372 -88q-92 0 -175 13t-135.5 31.5t-91.5 36.5t-56 31z" />
<glyph unicode="t" horiz-adv-x="915" d="M117 729l65 232h131l23 217l278 71l-30 -288h342l-25 -232h-342l-39 -369q-2 -16 -2 -31q0 -55 24 -81q30 -34 107 -35q53 0 101 12.5t70 25.5l22 13l53 -213q-5 -3 -15 -8.5t-42.5 -20t-67.5 -25t-88.5 -19.5t-106.5 -9q-333 0 -333 290q0 30 4 63l43 407h-172z" />
<glyph unicode="u" horiz-adv-x="1282" d="M156 336l61 592l277 45l-60 -561q-3 -27 -3 -50q-1 -70 27 -104q36 -46 126 -47q140 0 260 92l63 604l279 72l-76 -715q-3 -34 6.5 -47.5t38.5 -13.5q18 0 43.5 5.5t41.5 11.5l17 5l21 -168q-12 -8 -33 -19.5t-84.5 -30.5t-124.5 -19q-92 0 -139 31t-59 98 q-170 -148 -371 -148q-172 -1 -251 95q-64 77 -64 207q0 31 4 65z" />
<glyph unicode="v" horiz-adv-x="1198" d="M125 958h313l189 -686l331 686h316l-524 -958h-301z" />
<glyph unicode="w" horiz-adv-x="1716" d="M135 958h293l135 -694l264 694h254l123 -698l285 698h293l-453 -958h-311l-105 563l-215 -563h-313z" />
<glyph unicode="x" d="M29 0l426 469l-326 489h330l196 -325l273 325h332l-437 -475l336 -483h-330l-202 315l-269 -315h-329z" />
<glyph unicode="y" horiz-adv-x="1169" d="M127 958h297l194 -677l328 677h299l-801 -1497h-270l295 539h-35z" />
<glyph unicode="z" horiz-adv-x="1132" d="M92 0l23 205l635 524h-582l25 229h950l-21 -194l-635 -533h580l-25 -231h-950z" />
<glyph unicode="{" horiz-adv-x="749" d="M102 369l25 233h31q51 0 90.5 30.5t46.5 98.5l37 363q13 127 58 216t116 137t151.5 68.5t182.5 20.5l-25 -238q-99 0 -159 -53.5t-72 -159.5l-45 -417q-5 -46 -22 -81.5t-39.5 -54t-39 -27t-30.5 -11.5q13 -3 27.5 -12t34 -27.5t29.5 -54t5 -81.5l-49 -448 q-11 -115 37.5 -164t150.5 -49l-27 -238q-80 0 -144 12t-120.5 42.5t-92 79.5t-51 126t-5.5 179l39 383q7 67 -25.5 97t-83.5 30h-31z" />
<glyph unicode="|" horiz-adv-x="557" d="M90 -608l229 2173h250l-229 -2173h-250z" />
<glyph unicode="}" horiz-adv-x="749" d="M12 -580l25 238q102 0 161 49t70 164l47 448q5 46 22 81.5t39 54t38.5 27.5t29.5 12q-14 3 -28.5 11.5t-32.5 27t-27 54t-4 81.5l43 417q10 107 -38.5 160t-147.5 53l27 238q102 0 178 -20.5t136.5 -68.5t86 -137t12.5 -216l-39 -363q-7 -67 26 -98t83 -31h31l-25 -233 h-31q-50 0 -89 -30t-46 -97l-41 -383q-11 -102 -43 -179t-77.5 -126t-108.5 -79.5t-130 -42.5t-147 -12z" />
<glyph unicode="~" horiz-adv-x="1089" d="M170 672q4 7 12 19t37.5 42.5t63 53.5t88 42t114.5 19q51 0 97 -17.5t74.5 -39t62 -39t61.5 -17.5q39 0 76.5 26.5t55.5 52.5l18 26l141 -88q-4 -8 -12.5 -22t-37.5 -49.5t-62.5 -62.5t-87.5 -49t-113 -22q-49 0 -91.5 17.5t-68.5 38.5t-61.5 38.5t-71.5 17.5 q-27 0 -54.5 -10.5t-47 -25.5t-36 -30t-24.5 -25l-8 -11z" />
<glyph unicode="&#xa1;" horiz-adv-x="569" d="M70 -479l151 987h232l-58 -987h-325zM188 797q0 76 59.5 132t141.5 56q71 0 117.5 -46t46.5 -114q0 -77 -59 -132.5t-142 -55.5q-71 0 -117.5 46t-46.5 114z" />
<glyph unicode="&#xa2;" horiz-adv-x="1101" d="M111 422q0 115 39 216t112.5 179.5t190.5 124t264 45.5q71 0 135.5 -9.5t105.5 -23t71.5 -27t44.5 -23.5l13 -9l-116 -213q-3 3 -9 7.5t-29 16.5t-50 21.5t-72.5 17t-95.5 7.5q-155 0 -240.5 -85t-85.5 -212q0 -110 69.5 -180t196.5 -70q58 1 113 12.5t92.5 28.5 t66.5 33.5t43 28.5l13 11l68 -210q-7 -6 -20 -15.5t-57 -33.5t-93 -42.5t-125.5 -33.5t-155.5 -15q-235 0 -362 122.5t-127 330.5zM457 -541l80 404h172l-7 -404h-245zM664 1075l6 404h245l-79 -404h-172z" />
<glyph unicode="&#xa3;" horiz-adv-x="1306" d="M137 496l23 217h157q-21 46 -33.5 78.5t-24 86t-11.5 107.5q0 99 40 185t114.5 150.5t188.5 102t253 37.5q92 0 177.5 -14.5t142.5 -36t100.5 -42.5t63.5 -35l20 -15l-140 -236q-5 5 -14.5 13.5t-44 29.5t-74.5 37t-104.5 29.5t-134.5 13.5q-144 0 -215.5 -66.5 t-71.5 -170.5q0 -46 11 -95.5t22 -79t32 -79.5h461l-22 -217h-363v-13q0 -127 -129 -229h686l-26 -254h-1028l26 254l21 12t44.5 30t54.5 46.5t43 60t19 70.5q0 3 -1 11.5t-1 11.5h-262z" />
<glyph unicode="&#xa5;" horiz-adv-x="1597" d="M201 1434h342l342 -625l477 625h338l-541 -701h303l-18 -170h-418l-29 -39l-8 -84h344l-18 -170h-344l-29 -270h-287l29 270h-365l19 170h364l9 86l-21 37h-418l19 170h303z" />
<glyph unicode="&#xa6;" horiz-adv-x="565" d="M94 -608l99 942h249l-98 -942h-250zM231 688l93 877h249l-92 -877h-250z" />
<glyph unicode="&#xa7;" horiz-adv-x="1454" d="M37 -406l151 228q7 -7 20.5 -19t61 -42.5t101.5 -53.5t142 -42t183 -19q161 0 249.5 48t88.5 136q0 66 -63.5 100t-249.5 68q-72 13 -127.5 25.5t-116 31t-104.5 40t-85.5 52t-67 67.5t-41 85.5t-15.5 106.5q0 197 170 329q-109 89 -109 248q0 97 42.5 182t123 151.5 t208 105t286.5 38.5q107 0 208 -14.5t168.5 -36t119.5 -42.5t76 -35l24 -15l-127 -248q-7 5 -20 14t-59.5 31.5t-99.5 40t-139 31.5t-178 14q-164 0 -243.5 -47t-79.5 -123q0 -32 17 -58t44 -44.5t71 -34t89 -26t106 -21.5q111 -20 192.5 -42.5t149.5 -54.5t110 -74 t64.5 -99t22.5 -130q0 -206 -166 -335q104 -82 104 -244q0 -213 -174.5 -345t-496.5 -132q-133 0 -247 21t-181.5 51t-116 60t-67.5 51zM473 449q0 -71 79.5 -112t231.5 -69q72 -10 105 -22q207 36 207 164q0 64 -62 97.5t-243 67.5q-46 7 -117 25q-103 -14 -152 -54 t-49 -97z" />
<glyph unicode="&#xa8;" horiz-adv-x="835" d="M172 1235q0 66 52 116t124 50q61 0 103.5 -41.5t42.5 -99.5q0 -67 -53.5 -116.5t-123.5 -49.5q-63 0 -104 41t-41 100zM602 1235q0 66 53 116t123 50q61 0 103.5 -41.5t42.5 -99.5q0 -67 -53 -116.5t-123 -49.5q-62 0 -104 41t-42 100z" />
<glyph unicode="&#xa9;" horiz-adv-x="1495" d="M188 805q0 146 46.5 272.5t135 222.5t228 151.5t313.5 55.5q145 0 258 -43t182.5 -119.5t105.5 -177t36 -219.5q0 -113 -28 -218.5t-86.5 -197.5t-142 -160t-202 -107.5t-258.5 -39.5q-148 0 -262.5 46t-184.5 127t-105.5 184t-35.5 223zM342 815q0 -96 27.5 -176 t81.5 -141t141 -95t199 -34q108 0 198.5 30.5t154 83t107.5 123.5t65 153t21 171q0 192 -115.5 311t-326.5 119q-251 0 -402 -151.5t-151 -393.5zM469 825q0 185 110.5 298.5t305.5 113.5q49 0 94.5 -8.5t75.5 -21t52.5 -25t32.5 -20.5l11 -9l-86 -125q-3 3 -8.5 7t-24.5 15 t-40 19.5t-54.5 15.5t-69.5 7q-120 0 -178.5 -65t-58.5 -185q0 -89 46.5 -147t143.5 -58q71 0 134 21t91 42l27 21l64 -119q-6 -4 -16.5 -11.5t-45 -26.5t-70.5 -33.5t-90.5 -26.5t-107.5 -12q-169 0 -253.5 93t-84.5 240z" />
<glyph unicode="&#xaa;" horiz-adv-x="815" d="M207 750l14 127h553l-14 -127h-553zM250 1075q0 82 67 122t218 40q43 0 83 -4l5 37q5 39 -19.5 55t-93.5 16q-46 0 -87.5 -6.5t-60.5 -12.5l-18 -7l-25 106q80 39 205 39q122 0 177.5 -44t46.5 -134l-19 -184q-5 -35 25 -35q11 0 23.5 2.5t18.5 4.5l7 3l2 -90 q-48 -22 -105 -22q-44 0 -70 15t-28 40v2q-72 -68 -180 -68q-85 0 -128.5 34.5t-43.5 90.5zM373 1094q0 -41 71 -41q84 0 160 49l4 45q-30 6 -80 6q-88 0 -121.5 -14t-33.5 -45z" />
<glyph unicode="&#xab;" horiz-adv-x="1222" d="M123 354l18 181l471 391l127 -140l-358 -342l289 -340l-158 -139zM602 354l19 181l473 391l127 -140l-359 -342l289 -340l-158 -139z" />
<glyph unicode="&#xac;" horiz-adv-x="1161" d="M178 465l21 203h893l-50 -478h-215l29 275h-678z" />
<glyph unicode="&#xad;" horiz-adv-x="864" d="M176 455l27 243h608l-27 -243h-608z" />
<glyph unicode="&#xae;" horiz-adv-x="1495" d="M188 805q0 146 46.5 272.5t135 222.5t228 151.5t313.5 55.5q145 0 258 -43t182.5 -119.5t105.5 -177t36 -219.5q0 -113 -28 -218.5t-86.5 -197.5t-142 -160t-202 -107.5t-258.5 -39.5q-148 0 -262.5 46t-184.5 127t-105.5 184t-35.5 223zM342 815q0 -96 27.5 -176 t81.5 -141t141 -95t199 -34q108 0 198.5 30.5t154 83t107.5 123.5t65 153t21 171q0 192 -115.5 311t-326.5 119q-251 0 -402 -151.5t-151 -393.5zM526 510l76 717h281q252 0 252 -195q0 -174 -148 -235l55 -131q17 -41 62 -41q17 0 32 4t21 8l6 4l23 -104q-49 -33 -115 -33 q-64 0 -104 20.5t-62 71.5l-71 172h-123l-29 -258h-156zM725 905h100q79 0 113.5 25t34.5 84q0 76 -105 76h-125z" />
<glyph unicode="&#xaf;" horiz-adv-x="563" d="M182 1122l21 203h452l-20 -203h-453z" />
<glyph unicode="&#xb0;" horiz-adv-x="831" d="M225 1229q0 155 96.5 249.5t262.5 94.5q138 0 213 -74.5t75 -200.5q0 -155 -95.5 -252.5t-258.5 -97.5q-138 0 -215.5 77t-77.5 204zM395 1243q0 -64 36.5 -101.5t103.5 -37.5q77 0 123.5 49t46.5 127q0 60 -37 94.5t-101 34.5q-78 0 -125 -45t-47 -121z" />
<glyph unicode="&#xb1;" horiz-adv-x="1007" d="M143 119l21 203h743l-20 -203h-744zM199 643l20 205h277l32 276l205 -2l-33 -274h263l-21 -205h-262l-27 -250l-204 2l26 248h-276z" />
<glyph unicode="&#xb2;" horiz-adv-x="823" d="M213 729l12 125l230 156q10 7 43 28t44.5 29.5t35 28t33 33t18 34t8.5 41.5q0 37 -31 59.5t-90 22.5q-62 0 -119 -17t-83 -33l-27 -17l-43 149q5 4 14.5 10t41 22t64.5 28t82.5 22t98.5 10q131 0 204.5 -60.5t73.5 -158.5q0 -53 -14.5 -95.5t-48 -79.5t-62.5 -60.5 t-84 -61.5l-75 -53h245l-16 -162h-555z" />
<glyph unicode="&#xb3;" horiz-adv-x="802" d="M176 823l80 133q3 -3 8.5 -9t25.5 -20.5t43 -25.5t61.5 -20t80.5 -9q150 0 150 70q0 45 -56.5 61.5t-152.5 16.5l16 149q45 0 73 2t61 9t49 24t16 43q0 53 -117 53q-55 0 -107.5 -17t-78.5 -33l-25 -17l-45 135q5 4 14 10t38.5 22t60.5 28t77 22t91 10q126 0 200 -48.5 t74 -125.5q0 -158 -170 -188q160 -23 160 -156q0 -104 -93.5 -166.5t-246.5 -62.5q-52 0 -101 11.5t-81 27.5t-57 32t-36 28z" />
<glyph unicode="&#xb4;" horiz-adv-x="667" d="M197 1120l227 418h321l-301 -418h-247z" />
<glyph unicode="&#xb5;" horiz-adv-x="1196" d="M82 -539l158 1504h270l-57 -551q-12 -111 23 -157t124 -46q79 0 148 29t114 63l64 604l278 72l-102 -979h-271l11 98q-158 -129 -336 -129q-66 0 -98 19l-56 -527h-270z" />
<glyph unicode="&#xb6;" horiz-adv-x="1615" d="M164 891q0 273 158.5 408t445.5 135h322l-152 -1434h-289l49 467h-32q-240 0 -371 106t-131 318zM1155 0l152 1434h286l-151 -1434h-287z" />
<glyph unicode="&#xb7;" horiz-adv-x="602" d="M176 625q0 83 62 141.5t149 58.5q74 0 123 -48.5t49 -119.5q0 -81 -63 -139.5t-148 -58.5q-75 0 -123.5 48t-48.5 118z" />
<glyph unicode="&#xb8;" horiz-adv-x="509" d="M29 -340l53 100q39 -32 123 -32q78 0 78 45q0 55 -172 55l82 174h139l-45 -84q58 -3 96.5 -35t38.5 -96q0 -80 -59.5 -130t-161.5 -50q-47 0 -90 13.5t-63 26.5z" />
<glyph unicode="&#xb9;" horiz-adv-x="702" d="M172 1243q361 203 363 203h178l-74 -717h-178l55 537l-280 -154z" />
<glyph unicode="&#xba;" horiz-adv-x="821" d="M211 750l14 127h553l-14 -127h-553zM266 1178q0 76 30.5 138t99 103t165.5 41q123 0 184.5 -64.5t61.5 -164.5q0 -120 -80 -200.5t-217 -80.5q-116 0 -180 64.5t-64 163.5zM393 1188q0 -53 33 -85t98 -32q75 0 115.5 41t40.5 107q0 55 -32 87.5t-99 32.5q-78 0 -117 -43 t-39 -108z" />
<glyph unicode="&#xbb;" horiz-adv-x="1222" d="M94 104l361 340l-287 342l156 140l389 -391l-19 -181l-471 -389zM573 104l361 340l-287 342l156 140l391 -391l-18 -181l-474 -389z" />
<glyph unicode="&#xbc;" horiz-adv-x="1581" d="M162 -31l1181 1491h232l-1182 -1491h-231zM186 1243q363 203 365 203h178l-76 -717h-178l57 537l-280 -154zM901 150l14 133l283 422h170l-262 -404h180l17 152h167l-16 -152h80l-16 -151h-80l-17 -156h-168l17 156h-369z" />
<glyph unicode="&#xbd;" horiz-adv-x="1648" d="M162 -31l1181 1491h232l-1182 -1491h-231zM186 1243q363 203 365 203h178l-76 -717h-178l57 537l-280 -154zM995 0l13 125l229 156q12 8 43.5 28t44.5 29.5t36 28t33 32.5t18.5 34.5t8.5 41.5q0 37 -32 59.5t-93 22.5q-62 0 -118.5 -17t-82.5 -34l-26 -17l-45 150 q5 4 14.5 10t41 22t64.5 28t82.5 22t98.5 10q132 0 205.5 -60.5t73.5 -158.5q0 -53 -14.5 -95t-48 -79.5t-61.5 -60.5t-83 -62l-78 -53h248l-17 -162h-555z" />
<glyph unicode="&#xbe;" horiz-adv-x="1597" d="M154 823l79 133q3 -3 8.5 -9t25.5 -20.5t43.5 -25.5t62 -20t80.5 -9q149 0 149 70q0 78 -207 78l17 149q43 0 71 2t60 9t48.5 24t16.5 43q0 53 -116 53q-55 0 -107.5 -17t-78.5 -33l-25 -17l-45 135q5 4 14 10t38.5 22t60 28t76.5 22t91 10q127 0 201 -48.5t74 -125.5 q0 -158 -170 -188q73 -10 116 -45.5t43 -110.5q0 -104 -93.5 -166.5t-246.5 -62.5q-52 0 -100.5 11.5t-81 27.5t-57 32t-35.5 28zM217 -31l1182 1491h233l-1181 -1491h-234zM913 150l15 133l282 422h170l-262 -404h180l17 152h168l-17 -152h82l-16 -151h-82l-16 -156h-168 l16 156h-369z" />
<glyph unicode="&#xbf;" horiz-adv-x="1175" d="M61 -104q0 77 26 147.5t67.5 121.5t92 95t100.5 72.5t91.5 49t67.5 29.5l26 9l13 117h256l-27 -265q-9 -2 -23.5 -5.5t-57.5 -18t-82 -32t-86.5 -47.5t-81.5 -64t-57.5 -82t-23.5 -101q0 -75 55.5 -122.5t151.5 -47.5q69 0 138 14t118.5 34t89.5 40.5t60 34.5l20 14 l97 -227q-9 -7 -26 -18t-72.5 -39.5t-115.5 -50.5t-151.5 -40t-183.5 -18q-229 0 -355.5 110.5t-126.5 289.5zM528 799q0 76 59.5 132t141.5 56q71 0 117.5 -46t46.5 -114q0 -77 -59.5 -133.5t-141.5 -56.5q-71 0 -117.5 47t-46.5 115z" />
<glyph unicode="&#xc0;" horiz-adv-x="1497" d="M18 0l723 1434h318l420 -1434h-308l-90 319h-602l-153 -319h-308zM563 1962h322l139 -418h-248zM594 557h426l-156 557z" />
<glyph unicode="&#xc1;" horiz-adv-x="1497" d="M18 0l723 1434h318l420 -1434h-308l-90 319h-602l-153 -319h-308zM594 557h426l-156 557zM793 1544l227 416h321l-301 -416h-247z" />
<glyph unicode="&#xc2;" horiz-adv-x="1497" d="M18 0l723 1434h318l420 -1434h-308l-90 319h-602l-153 -319h-308zM545 1544l264 418h291l174 -418h-215l-125 230l-172 -230h-217zM594 557h426l-156 557z" />
<glyph unicode="&#xc3;" horiz-adv-x="1497" d="M18 0l723 1434h318l420 -1434h-308l-90 319h-602l-153 -319h-308zM475 1667q4 7 12.5 19t38 43t63.5 54.5t89 42.5t115 19q51 0 97 -18t74 -39t61 -39t60 -18q25 0 49.5 10.5t41.5 26t31 31t21 25.5l7 11l141 -88q-4 -8 -12.5 -22t-38 -49.5t-63 -62.5t-88 -49 t-113.5 -22q-48 0 -90 17.5t-67.5 39t-60.5 39t-71 17.5q-44 0 -86.5 -25.5t-63.5 -50.5l-20 -25zM594 557h426l-156 557z" />
<glyph unicode="&#xc4;" horiz-adv-x="1497" d="M18 0l723 1434h318l420 -1434h-308l-90 319h-602l-153 -319h-308zM549 1683q0 66 52 116t124 50q61 0 102 -41.5t41 -99.5q0 -67 -52.5 -116.5t-123.5 -49.5q-62 0 -102.5 41t-40.5 100zM594 557h426l-156 557zM979 1683q0 66 53 116t123 50q61 0 102 -41.5t41 -99.5 q0 -67 -52.5 -116.5t-123.5 -49.5q-61 0 -102 41t-41 100z" />
<glyph unicode="&#xc5;" horiz-adv-x="1497" d="M18 0l723 1434h318l420 -1434h-308l-90 319h-602l-153 -319h-308zM594 557h426l-156 557zM750 1683q0 86 54 139.5t138 53.5q72 0 115 -42.5t43 -113.5q0 -84 -55 -138t-140 -54q-70 0 -112.5 43t-42.5 112zM868 1696q0 -49 52 -49q29 0 46 16.5t17 44.5q0 23 -14 37 t-39 14q-29 0 -45.5 -17.5t-16.5 -45.5z" />
<glyph unicode="&#xc6;" horiz-adv-x="2281" d="M8 0l1049 1434h1282l-27 -254h-858l-37 -351h682l-24 -233h-684l-35 -342h858l-27 -254h-1145l33 319h-528l-234 -319h-305zM725 557h377l61 598z" />
<glyph unicode="&#xc7;" horiz-adv-x="1554" d="M160 637q0 184 58.5 335t168 259.5t276.5 168.5t375 60q108 0 204 -14t156 -34t104 -39.5t62 -33.5l19 -14l-139 -246q-5 5 -15 13.5t-47.5 30t-83 38t-122.5 30t-164 13.5q-159 0 -284.5 -65t-197 -187.5t-71.5 -283.5q0 -96 27.5 -175t82 -140t144 -94.5t207.5 -33.5 q90 0 181.5 17.5t157.5 42.5t119 50t80 43l27 17l51 -245q-9 -7 -25.5 -18t-74 -40t-121.5 -52t-165.5 -44t-207.5 -25l-29 -53q59 -3 98.5 -35t39.5 -96q0 -80 -60 -130t-162 -50q-47 0 -90.5 13.5t-63.5 26.5l-20 13l54 100q41 -32 127 -32q75 0 75 45q0 55 -174 55 l68 145q-136 8 -245 46.5t-183 98.5t-123.5 142.5t-71.5 176t-22 200.5z" />
<glyph unicode="&#xc8;" horiz-adv-x="1406" d="M168 0l151 1434h1147l-26 -254h-858l-37 -351h682l-25 -233h-682l-37 -342h858l-26 -254h-1147zM586 1962h321l137 -418h-245z" />
<glyph unicode="&#xc9;" horiz-adv-x="1406" d="M168 0l151 1434h1147l-26 -254h-858l-37 -351h682l-25 -233h-682l-37 -342h858l-26 -254h-1147zM756 1544l227 416h324l-303 -416h-248z" />
<glyph unicode="&#xca;" horiz-adv-x="1406" d="M168 0l151 1434h1147l-26 -254h-858l-37 -351h682l-25 -233h-682l-37 -342h858l-26 -254h-1147zM551 1544l264 416h291l174 -416h-217l-125 230l-172 -230h-215z" />
<glyph unicode="&#xcb;" horiz-adv-x="1406" d="M168 0l151 1434h1147l-26 -254h-858l-37 -351h682l-25 -233h-682l-37 -342h858l-26 -254h-1147zM559 1683q0 66 52 116t124 50q61 0 102.5 -41.5t41.5 -99.5q0 -66 -53.5 -116t-123.5 -50q-62 0 -102.5 41.5t-40.5 99.5zM989 1683q0 66 53 116t123 50q61 0 102.5 -41.5 t41.5 -99.5q0 -66 -53 -116t-123 -50q-61 0 -102.5 41.5t-41.5 99.5z" />
<glyph unicode="&#xcc;" horiz-adv-x="624" d="M139 1962h322l141 -418h-248zM168 0l151 1434h289l-151 -1434h-289z" />
<glyph unicode="&#xcd;" horiz-adv-x="624" d="M168 0l151 1434h289l-151 -1434h-289zM348 1544l230 418h321l-303 -418h-248z" />
<glyph unicode="&#xce;" horiz-adv-x="624" d="M109 1546l262 416h291l176 -416h-217l-125 230l-172 -230h-215zM168 0l149 1434h289l-149 -1434h-289z" />
<glyph unicode="&#xcf;" horiz-adv-x="624" d="M115 1683q0 66 52 116t124 50q61 0 103 -41.5t42 -99.5q0 -66 -53 -116t-123 -50q-62 0 -103.5 41.5t-41.5 99.5zM168 0l151 1434h289l-151 -1434h-289zM545 1683q0 66 53 116t123 50q61 0 103 -41.5t42 -99.5q0 -66 -53.5 -116t-122.5 -50q-62 0 -103.5 41.5t-41.5 99.5 z" />
<glyph unicode="&#xd0;" horiz-adv-x="1611" d="M109 590l22 213h133l66 631h567q344 0 524.5 -161.5t180.5 -469.5q0 -197 -60.5 -350.5t-173 -252t-269 -149.5t-351.5 -51h-568l62 590h-133zM496 254h245q283 0 425.5 125.5t142.5 396.5q0 207 -120.5 305.5t-359.5 98.5h-237l-39 -377h215l-23 -213h-215z" />
<glyph unicode="&#xd1;" horiz-adv-x="1593" d="M168 0l151 1434h234l635 -947l100 947h289l-152 -1434h-229l-643 920l-96 -920h-289zM526 1667q4 7 12.5 19t37.5 43t62.5 54.5t88.5 42.5t115 19q51 0 97.5 -18t75 -39t62 -39t60.5 -18q25 0 49 10.5t41 26t30.5 31t20.5 25.5l6 11l143 -88q-4 -8 -12.5 -22t-38 -49.5 t-63 -62.5t-88 -49t-113.5 -22q-40 0 -74.5 11.5t-59.5 28t-48.5 33.5t-51 28.5t-57.5 11.5q-43 0 -85.5 -25.5t-63.5 -50.5l-21 -25z" />
<glyph unicode="&#xd2;" horiz-adv-x="1742" d="M156 637q0 179 61 331t172.5 261t275.5 170t361 61q335 0 524 -181t189 -480q0 -133 -34 -254.5t-105 -227t-172.5 -182.5t-245 -121.5t-314.5 -44.5q-145 0 -264 34.5t-201.5 95.5t-138.5 145.5t-82 183t-26 209.5zM449 659q0 -92 26 -169t78.5 -137t139.5 -94t202 -34 q137 0 244.5 44.5t172.5 121.5t98.5 174t33.5 207q0 197 -118 314.5t-327 117.5q-250 0 -400 -151t-150 -394zM711 1962h321l142 -418h-248z" />
<glyph unicode="&#xd3;" horiz-adv-x="1742" d="M156 637q0 179 61 331t172.5 261t275.5 170t361 61q335 0 524 -181t189 -480q0 -133 -34 -254.5t-105 -227t-172.5 -182.5t-245 -121.5t-314.5 -44.5q-145 0 -264 34.5t-201.5 95.5t-138.5 145.5t-82 183t-26 209.5zM449 659q0 -92 26 -169t78.5 -137t139.5 -94t202 -34 q137 0 244.5 44.5t172.5 121.5t98.5 174t33.5 207q0 197 -118 314.5t-327 117.5q-250 0 -400 -151t-150 -394zM897 1544l227 418h322l-301 -418h-248z" />
<glyph unicode="&#xd4;" horiz-adv-x="1742" d="M156 637q0 179 61 331t172.5 261t275.5 170t361 61q335 0 524 -181t189 -480q0 -133 -34 -254.5t-105 -227t-172.5 -182.5t-245 -121.5t-314.5 -44.5q-145 0 -264 34.5t-201.5 95.5t-138.5 145.5t-82 183t-26 209.5zM449 659q0 -92 26 -169t78.5 -137t139.5 -94t202 -34 q137 0 244.5 44.5t172.5 121.5t98.5 174t33.5 207q0 197 -118 314.5t-327 117.5q-250 0 -400 -151t-150 -394zM670 1544l262 418h291l176 -418h-217l-123 230l-174 -230h-215z" />
<glyph unicode="&#xd5;" horiz-adv-x="1742" d="M156 637q0 179 61 331t172.5 261t275.5 170t361 61q335 0 524 -181t189 -480q0 -133 -34 -254.5t-105 -227t-172.5 -182.5t-245 -121.5t-314.5 -44.5q-145 0 -264 34.5t-201.5 95.5t-138.5 145.5t-82 183t-26 209.5zM449 659q0 -92 26 -169t78.5 -137t139.5 -94t202 -34 q137 0 244.5 44.5t172.5 121.5t98.5 174t33.5 207q0 197 -118 314.5t-327 117.5q-250 0 -400 -151t-150 -394zM598 1669q4 7 12.5 19t38.5 43t64 54.5t89.5 42.5t115.5 19q51 0 97 -18t74 -39t61 -39t60 -18q25 0 49.5 10.5t41.5 26t31 31t21 25.5l7 11l141 -88 q-4 -8 -12.5 -22t-37.5 -49t-63 -61.5t-88.5 -48.5t-113.5 -22q-48 0 -90 17.5t-67.5 38t-60.5 38t-71 17.5q-43 0 -85.5 -25.5t-63.5 -50.5l-21 -25z" />
<glyph unicode="&#xd6;" horiz-adv-x="1742" d="M156 637q0 179 61 331t172.5 261t275.5 170t361 61q335 0 524 -181t189 -480q0 -133 -34 -254.5t-105 -227t-172.5 -182.5t-245 -121.5t-314.5 -44.5q-145 0 -264 34.5t-201.5 95.5t-138.5 145.5t-82 183t-26 209.5zM449 659q0 -92 26 -169t78.5 -137t139.5 -94t202 -34 q137 0 244.5 44.5t172.5 121.5t98.5 174t33.5 207q0 197 -118 314.5t-327 117.5q-250 0 -400 -151t-150 -394zM674 1683q0 66 53.5 116t124.5 50q61 0 102 -41.5t41 -99.5q0 -66 -53.5 -116t-122.5 -50q-62 0 -103.5 41.5t-41.5 99.5zM1106 1683q0 66 53 116t123 50 q62 0 103.5 -41.5t41.5 -99.5q0 -66 -53 -116t-125 -50q-61 0 -102 41.5t-41 99.5z" />
<glyph unicode="&#xd7;" horiz-adv-x="1075" d="M152 342l276 250l-223 250l190 172l226 -250l274 250l156 -172l-277 -250l223 -250l-190 -174l-223 250l-277 -250z" />
<glyph unicode="&#xd8;" horiz-adv-x="1742" d="M156 637q0 179 61 331t172.5 261t275.5 170t361 61q45 0 135 -8l74 184h160l-86 -217q206 -66 318 -229.5t112 -390.5q0 -133 -34 -254.5t-105 -227t-172.5 -182.5t-245 -121.5t-314.5 -44.5q-49 0 -131 8l-112 -282h-160l125 311q-145 43 -244.5 138.5t-144.5 220 t-45 272.5zM449 659q0 -140 59.5 -246.5t179.5 -154.5l373 942q-40 4 -62 4q-250 0 -400 -151t-150 -394zM836 227q5 0 27.5 -1t31.5 -1q137 0 244.5 44.5t172.5 122t98.5 174.5t33.5 208q0 139 -61.5 242.5t-174.5 148.5z" />
<glyph unicode="&#xd9;" horiz-adv-x="1560" d="M217 606l86 828h287l-88 -838q-22 -201 48.5 -289t250.5 -88q181 0 270.5 86.5t110.5 290.5l88 838h289l-86 -828q-18 -174 -68 -295t-137 -196t-207 -109t-287 -35q-326 0 -459.5 146t-97.5 489zM596 1962h322l141 -416h-248z" />
<glyph unicode="&#xda;" horiz-adv-x="1560" d="M217 606l86 828h287l-88 -838q-22 -201 48.5 -289t250.5 -88q181 0 270.5 86.5t110.5 290.5l88 838h289l-86 -828q-18 -174 -68 -295t-137 -196t-207 -109t-287 -35q-326 0 -459.5 146t-97.5 489zM784 1544l228 418h321l-301 -418h-248z" />
<glyph unicode="&#xdb;" horiz-adv-x="1560" d="M217 606l86 828h287l-88 -838q-22 -201 48.5 -289t250.5 -88q181 0 270.5 86.5t110.5 290.5l88 838h289l-86 -828q-18 -174 -68 -295t-137 -196t-207 -109t-287 -35q-326 0 -459.5 146t-97.5 489zM573 1544l263 418h290l177 -418h-216l-124 230l-172 -230h-218z" />
<glyph unicode="&#xdc;" horiz-adv-x="1560" d="M217 606l86 828h287l-88 -838q-22 -201 48.5 -289t250.5 -88q181 0 270.5 86.5t110.5 290.5l88 838h289l-86 -828q-18 -174 -68 -295t-137 -196t-207 -109t-287 -35q-326 0 -459.5 146t-97.5 489zM582 1683q0 66 53 116t123 50q62 0 103.5 -41.5t41.5 -99.5 q0 -66 -53 -116t-125 -50q-61 0 -102 41.5t-41 99.5zM1012 1683q0 66 53 116t125 50q61 0 102 -41.5t41 -99.5q0 -66 -53.5 -116t-122.5 -50q-62 0 -103.5 41.5t-41.5 99.5z" />
<glyph unicode="&#xdd;" horiz-adv-x="1536" d="M170 1434h342l342 -625l477 625h338l-702 -910l-56 -524h-288l55 526zM780 1503l226 416h323l-301 -416h-248z" />
<glyph unicode="&#xde;" horiz-adv-x="1484" d="M168 0l151 1434h289l-20 -189h366q260 0 403.5 -116t143.5 -345q0 -286 -173.5 -431.5t-481.5 -145.5h-367l-22 -207h-289zM506 461h366q169 0 251.5 73t82.5 224q0 120 -68 176.5t-210 56.5h-367z" />
<glyph unicode="&#xdf;" horiz-adv-x="1499" d="M119 729l65 229h127l19 170q15 141 85 234t176.5 134.5t248.5 41.5q205 0 323.5 -87.5t118.5 -256.5q0 -82 -27 -147.5t-65.5 -105t-77 -72t-65.5 -66.5t-27 -70q0 -32 25.5 -57t66.5 -43.5t90.5 -37.5t98.5 -45.5t90 -60t66.5 -87.5t25.5 -123q0 -146 -124.5 -228 t-342.5 -82q-79 0 -149 14t-113 34t-75 40.5t-45 34.5l-13 14l100 191q4 -4 12 -10t36 -21.5t60 -27.5t83 -21.5t106 -9.5q80 0 125 30t45 76q0 35 -24 62.5t-62 46.5t-84.5 36.5t-93 39.5t-84.5 49t-62 70.5t-24 99.5q0 37 13.5 69.5t35 57.5t47.5 49.5t52.5 50.5t48 55 t35 68t13.5 84q0 68 -50.5 104.5t-135.5 36.5q-91 0 -148.5 -44.5t-64.5 -125.5l-119 -1122h-268l76 729h-170z" />
<glyph unicode="&#xe0;" d="M82 213q0 140 134 220.5t425 80.5q85 0 139 -12l11 96q9 91 -41.5 127.5t-184.5 36.5q-76 0 -156 -14t-123 -28l-42 -15l-25 219q22 7 60.5 17.5t152 28t221.5 17.5q224 0 327.5 -86t86.5 -248l-41 -389q-3 -34 6.5 -47.5t38.5 -13.5q17 0 43 5.5t43 11.5l17 5l18 -168 q-12 -8 -32.5 -19.5t-83.5 -30.5t-124 -19q-89 0 -136.5 29t-59.5 92q-165 -140 -367 -140q-141 0 -224 63t-83 181zM358 256q0 -41 37.5 -62.5t98.5 -21.5q150 0 260 76l12 114q-69 11 -129 11q-279 0 -279 -117zM377 1538h321l142 -418h-248z" />
<glyph unicode="&#xe1;" d="M82 213q0 140 134 220.5t425 80.5q85 0 139 -12l11 96q9 91 -41.5 127.5t-184.5 36.5q-76 0 -156 -14t-123 -28l-42 -15l-25 219q22 7 60.5 17.5t152 28t221.5 17.5q224 0 327.5 -86t86.5 -248l-41 -389q-3 -34 6.5 -47.5t38.5 -13.5q17 0 43 5.5t43 11.5l17 5l18 -168 q-12 -8 -32.5 -19.5t-83.5 -30.5t-124 -19q-89 0 -136.5 29t-59.5 92q-165 -140 -367 -140q-141 0 -224 63t-83 181zM358 256q0 -41 37.5 -62.5t98.5 -21.5q150 0 260 76l12 114q-69 11 -129 11q-279 0 -279 -117zM524 1120l226 418h323l-301 -418h-248z" />
<glyph unicode="&#xe2;" d="M82 213q0 140 134 220.5t425 80.5q85 0 139 -12l11 96q9 91 -41.5 127.5t-184.5 36.5q-76 0 -156 -14t-123 -28l-42 -15l-25 219q22 7 60.5 17.5t152 28t221.5 17.5q224 0 327.5 -86t86.5 -248l-41 -389q-3 -34 6.5 -47.5t38.5 -13.5q17 0 43 5.5t43 11.5l17 5l18 -168 q-12 -8 -32.5 -19.5t-83.5 -30.5t-124 -19q-89 0 -136.5 29t-59.5 92q-165 -140 -367 -140q-141 0 -224 63t-83 181zM336 1120l262 416h289l176 -416h-215l-125 230l-172 -230h-215zM358 256q0 -41 37.5 -62.5t98.5 -21.5q150 0 260 76l12 114q-69 11 -129 11 q-279 0 -279 -117z" />
<glyph unicode="&#xe3;" d="M82 213q0 140 134 220.5t425 80.5q85 0 139 -12l11 96q9 91 -41.5 127.5t-184.5 36.5q-76 0 -156 -14t-123 -28l-42 -15l-25 219q22 7 60.5 17.5t152 28t221.5 17.5q224 0 327.5 -86t86.5 -248l-41 -389q-3 -34 6.5 -47.5t38.5 -13.5q17 0 43 5.5t43 11.5l17 5l18 -168 q-12 -8 -32.5 -19.5t-83.5 -30.5t-124 -19q-89 0 -136.5 29t-59.5 92q-165 -140 -367 -140q-141 0 -224 63t-83 181zM254 1208q4 7 12.5 19t38 43t63 54.5t88.5 42.5t115 19q51 0 97 -18t74.5 -39t61.5 -39t60 -18q25 0 49.5 10.5t41.5 26t31 31t21 26.5l7 10l143 -88 q-4 -8 -12.5 -22t-38 -49t-63.5 -61.5t-89 -48.5t-114 -22q-48 0 -90 17.5t-67.5 39t-60.5 39t-71 17.5q-27 0 -54.5 -10.5t-47 -25.5t-36 -30t-24.5 -26l-8 -10zM358 256q0 -41 37.5 -62.5t98.5 -21.5q150 0 260 76l12 114q-69 11 -129 11q-279 0 -279 -117z" />
<glyph unicode="&#xe4;" d="M82 213q0 140 134 220.5t425 80.5q85 0 139 -12l11 96q9 91 -41.5 127.5t-184.5 36.5q-76 0 -156 -14t-123 -28l-42 -15l-25 219q22 7 60.5 17.5t152 28t221.5 17.5q224 0 327.5 -86t86.5 -248l-41 -389q-3 -34 6.5 -47.5t38.5 -13.5q17 0 43 5.5t43 11.5l17 5l18 -168 q-12 -8 -32.5 -19.5t-83.5 -30.5t-124 -19q-89 0 -136.5 29t-59.5 92q-165 -140 -367 -140q-141 0 -224 63t-83 181zM322 1235q0 66 53.5 116t122.5 50q63 0 104 -41.5t41 -99.5q0 -67 -52.5 -116.5t-123.5 -49.5q-62 0 -103.5 41t-41.5 100zM358 256q0 -41 37.5 -62.5 t98.5 -21.5q150 0 260 76l12 114q-69 11 -129 11q-279 0 -279 -117zM754 1235q0 66 52 116t122 50q62 0 104.5 -41.5t42.5 -99.5q0 -67 -53.5 -116.5t-124.5 -49.5q-62 0 -102.5 41t-40.5 100z" />
<glyph unicode="&#xe5;" d="M82 213q0 140 134 220.5t425 80.5q85 0 139 -12l11 96q9 91 -41.5 127.5t-184.5 36.5q-76 0 -156 -14t-123 -28l-42 -15l-25 219q22 7 60.5 17.5t152 28t221.5 17.5q224 0 327.5 -86t86.5 -248l-41 -389q-3 -34 6.5 -47.5t38.5 -13.5q17 0 43 5.5t43 11.5l17 5l18 -168 q-12 -8 -32.5 -19.5t-83.5 -30.5t-124 -19q-89 0 -136.5 29t-59.5 92q-165 -140 -367 -140q-141 0 -224 63t-83 181zM358 256q0 -41 37.5 -62.5t98.5 -21.5q150 0 260 76l12 114q-69 11 -129 11q-279 0 -279 -117zM510 1225q0 84 54 138t138 54q70 0 114 -43t44 -112 q0 -84 -55 -138.5t-139 -54.5q-70 0 -113 43.5t-43 112.5zM629 1237q0 -49 49 -49q30 0 47.5 16.5t17.5 44.5q0 49 -53 49q-28 0 -44.5 -16.5t-16.5 -44.5z" />
<glyph unicode="&#xe6;" horiz-adv-x="1820" d="M82 213q0 140 134 220.5t425 80.5q85 0 139 -12l11 96q-2 7 -6.5 18t-22 39t-40.5 50t-65 39.5t-92 17.5q-76 0 -156 -14t-123 -28l-42 -15l-25 219q22 7 60.5 17.5t152 28t221.5 17.5q254 0 348 -117q153 117 377 117q94 0 171 -26t125 -67t81 -94.5t46.5 -106 t13.5 -103.5q0 -44 -9.5 -87.5t-18.5 -64.5l-9 -22h-729q8 -105 75.5 -165.5t198.5 -60.5q58 0 113.5 9.5t93.5 23t67.5 26.5t43.5 23l14 9l63 -172q-7 -6 -21 -15.5t-58.5 -33.5t-92.5 -42.5t-120 -33.5t-144 -15q-284 0 -414 170q-197 -170 -479 -170q-141 0 -224 63 t-83 181zM358 256q0 -41 37.5 -62.5t98.5 -21.5q167 0 309 96q-16 78 -17 92q-78 13 -149 13q-279 0 -279 -117zM1061 563h504q11 101 -45.5 160t-165.5 59q-114 0 -189 -59t-104 -160z" />
<glyph unicode="&#xe7;" horiz-adv-x="1095" d="M125 422q0 115 39 216t112.5 179.5t190.5 124t264 45.5q72 0 136.5 -9.5t105.5 -23t71.5 -27t43.5 -23.5l14 -9l-117 -213q-3 3 -9 7.5t-29 16.5t-50 21.5t-72.5 17t-95.5 7.5q-155 0 -240.5 -85t-85.5 -212q0 -110 69.5 -180t197.5 -70q58 0 113 11.5t92 28.5t66 34 t43 29l13 11l68 -210q-6 -5 -17 -13t-48.5 -29t-79 -38t-106.5 -33.5t-132 -22.5l-29 -55q58 -3 98 -35t40 -96q0 -79 -60.5 -129.5t-161.5 -50.5q-47 0 -90.5 13.5t-63.5 26.5l-20 13l54 100q38 -32 124 -32q78 0 78 45q0 55 -176 55l70 145q-202 17 -311 137t-109 312z " />
<glyph unicode="&#xe8;" horiz-adv-x="1159" d="M123 428q0 113 38 213t110 177.5t187 123t259 45.5q94 0 170.5 -26t125 -66.5t81 -94t46 -106t13.5 -104.5q0 -44 -9.5 -87.5t-19.5 -64.5l-10 -22h-727q8 -104 76.5 -165t198.5 -61q58 0 113.5 9.5t93 23t67 26.5t43.5 23l14 9l64 -172q-7 -6 -21 -15.5t-59.5 -33.5 t-93.5 -42.5t-120.5 -33.5t-144.5 -15q-100 0 -182 24t-139.5 65.5t-97 100t-58 126t-18.5 143.5zM401 563h502q11 102 -45 160.5t-166 58.5q-114 0 -188 -58.5t-103 -160.5zM406 1538h321l139 -418h-248z" />
<glyph unicode="&#xe9;" horiz-adv-x="1159" d="M123 428q0 113 38 213t110 177.5t187 123t259 45.5q94 0 170.5 -26t125 -66.5t81 -94t46 -106t13.5 -104.5q0 -44 -9.5 -87.5t-19.5 -64.5l-10 -22h-727q8 -104 76.5 -165t198.5 -61q58 0 113.5 9.5t93 23t67 26.5t43.5 23l14 9l64 -172q-7 -6 -21 -15.5t-59.5 -33.5 t-93.5 -42.5t-120.5 -33.5t-144.5 -15q-100 0 -182 24t-139.5 65.5t-97 100t-58 126t-18.5 143.5zM401 563h502q11 102 -45 160.5t-166 58.5q-114 0 -188 -58.5t-103 -160.5zM580 1120l227 418h321l-301 -418h-247z" />
<glyph unicode="&#xea;" horiz-adv-x="1159" d="M123 428q0 113 38 213t110 177.5t187 123t259 45.5q94 0 170.5 -26t125 -66.5t81 -94t46 -106t13.5 -104.5q0 -44 -9.5 -87.5t-19.5 -64.5l-10 -22h-727q8 -104 76.5 -165t198.5 -61q58 0 113.5 9.5t93 23t67 26.5t43.5 23l14 9l64 -172q-7 -6 -21 -15.5t-59.5 -33.5 t-93.5 -42.5t-120.5 -33.5t-144.5 -15q-100 0 -182 24t-139.5 65.5t-97 100t-58 126t-18.5 143.5zM356 1120l265 418h290l174 -418h-217l-125 230l-172 -230h-215zM401 563h502q11 102 -45 160.5t-166 58.5q-114 0 -188 -58.5t-103 -160.5z" />
<glyph unicode="&#xeb;" horiz-adv-x="1159" d="M123 428q0 113 38 213t110 177.5t187 123t259 45.5q94 0 170.5 -26t125 -66.5t81 -94t46 -106t13.5 -104.5q0 -44 -9.5 -87.5t-19.5 -64.5l-10 -22h-727q8 -104 76.5 -165t198.5 -61q58 0 113.5 9.5t93 23t67 26.5t43.5 23l14 9l64 -172q-7 -6 -21 -15.5t-59.5 -33.5 t-93.5 -42.5t-120.5 -33.5t-144.5 -15q-100 0 -182 24t-139.5 65.5t-97 100t-58 126t-18.5 143.5zM371 1235q0 66 52 116t124 50q61 0 102 -41.5t41 -99.5q0 -67 -52.5 -116.5t-123.5 -49.5q-62 0 -102.5 41t-40.5 100zM401 563h502q11 102 -45 160.5t-166 58.5 q-114 0 -188 -58.5t-103 -160.5zM801 1235q0 66 53 116t123 50q61 0 102 -41.5t41 -99.5q0 -67 -52.5 -116.5t-123.5 -49.5q-61 0 -102 41t-41 100z" />
<glyph unicode="&#xec;" horiz-adv-x="538" d="M53 1538h324l139 -418h-248zM135 0l101 958h270l-100 -958h-271z" />
<glyph unicode="&#xed;" horiz-adv-x="538" d="M135 0l101 958h270l-100 -958h-271zM268 1120l230 418h321l-303 -418h-248z" />
<glyph unicode="&#xee;" horiz-adv-x="538" d="M29 1120l262 418h291l176 -418h-217l-125 230l-172 -230h-215zM135 0l101 958h270l-100 -958h-271z" />
<glyph unicode="&#xef;" horiz-adv-x="538" d="M27 1235q0 66 52 116t124 50q61 0 103 -41.5t42 -99.5q0 -67 -53 -116.5t-123 -49.5q-64 0 -104.5 41t-40.5 100zM135 0l103 958h270l-102 -958h-271zM457 1235q0 66 53.5 116t122.5 50q63 0 104 -41.5t41 -99.5q0 -67 -52.5 -116.5t-123.5 -49.5q-62 0 -103.5 41 t-41.5 100z" />
<glyph unicode="&#xf0;" horiz-adv-x="1359" d="M123 389q0 243 160 378.5t448 135.5q184 0 330 -102q3 128 -43.5 218.5t-136.5 135.5l-168 -162l-80 86l121 117q-50 4 -76 4q-54 0 -106 -10t-87.5 -24t-63 -28t-41.5 -24l-13 -10l-101 237q7 5 20.5 13t59 28.5t95 36t126.5 28.5t156 13q147 0 262 -41l154 148l80 -82 l-121 -117q128 -77 195 -220.5t67 -328.5q0 -133 -25 -254t-81.5 -231t-140.5 -190t-209.5 -127.5t-280.5 -47.5q-225 0 -362.5 117.5t-137.5 302.5zM422 428q0 -86 62.5 -142.5t164.5 -56.5q147 0 245 90.5t140 255.5q-160 99 -327 99q-131 0 -208 -66t-77 -180z" />
<glyph unicode="&#xf1;" horiz-adv-x="1280" d="M131 0l96 907l277 72l-15 -139q20 19 48 39.5t74.5 47t109 43.5t127.5 17q172 0 251 -95t60 -271l-37 -357q-3 -35 5.5 -48t37.5 -13q18 0 44.5 5.5t43.5 11.5l17 5l18 -168q-12 -8 -33 -19.5t-84 -30.5t-124 -19q-123 0 -167 58t-32 181l33 316q10 107 -26.5 152.5 t-125.5 45.5q-129 0 -260 -102l-68 -639h-270zM293 1208q4 7 12.5 19t38 43t63 54.5t88.5 42.5t115 19q51 0 97 -18t74.5 -39t61.5 -39t60 -18q25 0 50 10.5t42.5 26t31.5 31t21 26.5l7 10l141 -88q-4 -8 -12.5 -22t-37.5 -49t-63 -61.5t-88.5 -48.5t-113.5 -22 q-48 0 -90.5 17.5t-68 39t-61 39t-71.5 17.5q-27 0 -54.5 -10.5t-47 -25.5t-36 -30t-24.5 -26l-8 -10z" />
<glyph unicode="&#xf2;" horiz-adv-x="1249" d="M123 426q0 113 39.5 213.5t114 178.5t191.5 123.5t261 45.5q123 0 219 -36t156.5 -99.5t91.5 -146t31 -179.5q0 -112 -40 -212t-114.5 -177t-191 -122.5t-258.5 -45.5q-123 0 -220 36t-157.5 99t-91.5 145t-31 177zM395 444q0 -111 64.5 -180t185.5 -69q144 0 227.5 89 t83.5 226q0 110 -64 180t-187 70q-101 0 -172.5 -44t-104.5 -114t-33 -158zM414 1538h321l139 -418h-247z" />
<glyph unicode="&#xf3;" horiz-adv-x="1249" d="M123 426q0 113 39.5 213.5t114 178.5t191.5 123.5t261 45.5q123 0 219 -36t156.5 -99.5t91.5 -146t31 -179.5q0 -112 -40 -212t-114.5 -177t-191 -122.5t-258.5 -45.5q-123 0 -220 36t-157.5 99t-91.5 145t-31 177zM395 444q0 -111 64.5 -180t185.5 -69q144 0 227.5 89 t83.5 226q0 110 -64 180t-187 70q-101 0 -172.5 -44t-104.5 -114t-33 -158zM600 1120l227 418h322l-301 -418h-248z" />
<glyph unicode="&#xf4;" horiz-adv-x="1249" d="M123 426q0 113 39.5 213.5t114 178.5t191.5 123.5t261 45.5q123 0 219 -36t156.5 -99.5t91.5 -146t31 -179.5q0 -112 -40 -212t-114.5 -177t-191 -122.5t-258.5 -45.5q-123 0 -220 36t-157.5 99t-91.5 145t-31 177zM377 1120l262 418h291l176 -418h-217l-127 230 l-170 -230h-215zM395 444q0 -111 64.5 -180t185.5 -69q144 0 227.5 89t83.5 226q0 110 -64 180t-187 70q-101 0 -172.5 -44t-104.5 -114t-33 -158z" />
<glyph unicode="&#xf5;" horiz-adv-x="1249" d="M123 426q0 113 39.5 213.5t114 178.5t191.5 123.5t261 45.5q123 0 219 -36t156.5 -99.5t91.5 -146t31 -179.5q0 -112 -40 -212t-114.5 -177t-191 -122.5t-258.5 -45.5q-123 0 -220 36t-157.5 99t-91.5 145t-31 177zM307 1208q4 7 12.5 19t38 43t63.5 54.5t89 42.5t115 19 q51 0 97 -18t74.5 -39t61.5 -39t60 -18q25 0 49.5 10.5t42 26t31.5 31t21 26.5l7 10l141 -88q-4 -8 -12.5 -22t-38 -49t-63 -61.5t-88 -48.5t-113.5 -22q-48 0 -90 17.5t-67.5 39t-60.5 39t-71 17.5q-27 0 -54.5 -10.5t-47.5 -25.5t-36.5 -30t-25.5 -26l-8 -10zM395 444 q0 -111 64.5 -180t185.5 -69q144 0 227.5 89t83.5 226q0 110 -64 180t-187 70q-101 0 -172.5 -44t-104.5 -114t-33 -158z" />
<glyph unicode="&#xf6;" horiz-adv-x="1249" d="M123 426q0 113 39.5 213.5t114 178.5t191.5 123.5t261 45.5q123 0 219 -36t156.5 -99.5t91.5 -146t31 -179.5q0 -112 -40 -212t-114.5 -177t-191 -122.5t-258.5 -45.5q-123 0 -220 36t-157.5 99t-91.5 145t-31 177zM383 1235q0 66 52 116t124 50q61 0 103.5 -41.5 t42.5 -99.5q0 -67 -54 -116.5t-125 -49.5q-62 0 -102.5 41t-40.5 100zM395 444q0 -111 64.5 -180t185.5 -69q144 0 227.5 89t83.5 226q0 110 -64 180t-187 70q-101 0 -172.5 -44t-104.5 -114t-33 -158zM813 1235q0 66 53 116t123 50q61 0 103.5 -41.5t42.5 -99.5 q0 -67 -54 -116.5t-125 -49.5q-61 0 -102 41t-41 100z" />
<glyph unicode="&#xf7;" horiz-adv-x="948" d="M147 426l27 244h744l-27 -244h-744zM301 129q0 77 59 133.5t142 56.5q70 0 117 -46.5t47 -114.5q0 -77 -59.5 -133t-141.5 -56q-71 0 -117.5 46t-46.5 114zM387 952q0 77 60 134t141 57q71 0 117.5 -47t46.5 -115q0 -76 -59.5 -132t-141.5 -56q-71 0 -117.5 45.5 t-46.5 113.5z" />
<glyph unicode="&#xf8;" horiz-adv-x="1249" d="M123 424q0 113 39.5 214t114 179.5t191.5 124t261 45.5q37 0 53 -2l39 94h160l-51 -123q146 -46 221.5 -161t75.5 -269q0 -112 -40 -212t-114.5 -177t-191 -122.5t-258.5 -45.5q-41 0 -78 6l-47 -122h-160l59 153q-135 49 -204.5 161.5t-69.5 256.5zM395 444 q0 -143 97 -200l200 514h-12q-91 0 -157.5 -45t-97 -114.5t-30.5 -154.5zM631 195h14q144 0 227.5 88.5t83.5 224.5q0 74 -29 132.5t-85 88.5z" />
<glyph unicode="&#xf9;" horiz-adv-x="1282" d="M156 336l61 592l277 45l-60 -561q-12 -108 24.5 -154.5t125.5 -46.5q140 0 260 92l63 604l279 72l-76 -715q-3 -34 6.5 -47.5t38.5 -13.5q18 0 43.5 5.5t41.5 11.5l17 5l21 -168q-12 -8 -33 -19.5t-84.5 -30.5t-124.5 -19q-92 0 -139 31t-59 98q-170 -148 -371 -148 q-172 0 -251 95.5t-60 271.5zM418 1538h321l140 -418h-248z" />
<glyph unicode="&#xfa;" horiz-adv-x="1282" d="M156 336l61 592l277 45l-60 -561q-12 -108 24.5 -154.5t125.5 -46.5q140 0 260 92l63 604l279 72l-76 -715q-3 -34 6.5 -47.5t38.5 -13.5q18 0 43.5 5.5t41.5 11.5l17 5l21 -168q-12 -8 -33 -19.5t-84.5 -30.5t-124.5 -19q-92 0 -139 31t-59 98q-170 -148 -371 -148 q-172 0 -251 95.5t-60 271.5zM592 1120l229 418h322l-303 -418h-248z" />
<glyph unicode="&#xfb;" horiz-adv-x="1282" d="M156 336l61 592l277 45l-60 -561q-12 -108 24.5 -154.5t125.5 -46.5q140 0 260 92l63 604l279 72l-76 -715q-3 -34 6.5 -47.5t38.5 -13.5q18 0 43.5 5.5t41.5 11.5l17 5l21 -168q-12 -8 -33 -19.5t-84.5 -30.5t-124.5 -19q-92 0 -139 31t-59 98q-170 -148 -371 -148 q-172 0 -251 95.5t-60 271.5zM362 1120l265 418h291l174 -418h-215l-125 230l-172 -230h-218z" />
<glyph unicode="&#xfc;" horiz-adv-x="1282" d="M156 336l61 592l277 45l-60 -561q-12 -108 24.5 -154.5t125.5 -46.5q140 0 260 92l63 604l279 72l-76 -715q-3 -34 6.5 -47.5t38.5 -13.5q18 0 43.5 5.5t41.5 11.5l17 5l21 -168q-12 -8 -33 -19.5t-84.5 -30.5t-124.5 -19q-92 0 -139 31t-59 98q-170 -148 -371 -148 q-172 0 -251 95.5t-60 271.5zM371 1235q0 66 53 116t125 50q61 0 102 -41.5t41 -99.5q0 -67 -52.5 -116.5t-123.5 -49.5q-62 0 -103.5 41t-41.5 100zM801 1235q0 66 53 116t125 50q61 0 102 -41.5t41 -99.5q0 -67 -52.5 -116.5t-123.5 -49.5q-62 0 -103.5 41t-41.5 100z" />
<glyph unicode="&#xfd;" horiz-adv-x="1169" d="M127 958h297l194 -677l328 677h299l-801 -1497h-270l295 539h-35zM547 1120l227 418h324l-303 -418h-248z" />
<glyph unicode="&#xfe;" horiz-adv-x="1261" d="M78 -539l211 2003l276 72l-69 -680q47 53 129 92t202 39q133 0 227 -59.5t138.5 -159.5t44.5 -231q0 -253 -157.5 -410.5t-407.5 -157.5q-154 0 -264 66l-60 -574h-270zM424 264q87 -69 231 -69q137 0 223.5 85.5t86.5 231.5q0 121 -62 185.5t-182 64.5q-147 0 -256 -109 z" />
<glyph unicode="&#xff;" horiz-adv-x="1169" d="M127 958h297l194 -677l328 677h299l-801 -1497h-270l295 539h-35zM344 1235q0 66 53 116t125 50q61 0 102.5 -41.5t41.5 -99.5q0 -67 -53 -116.5t-124 -49.5q-62 0 -103.5 41t-41.5 100zM774 1235q0 66 53.5 116t124.5 50q61 0 102.5 -41.5t41.5 -99.5 q0 -67 -52.5 -116.5t-123.5 -49.5q-61 0 -103.5 41t-42.5 100z" />
<glyph unicode="&#x152;" horiz-adv-x="2609" d="M156 637q0 179 61 331t172.5 261t275.5 170t361 61q300 0 481 -157l13 131h1146l-26 -254h-858l-37 -351h684l-25 -233h-682l-36 -342h858l-27 -254h-1147l12 125q-210 -156 -514 -156q-145 0 -264 34.5t-201.5 95.5t-138.5 145.5t-82 183t-26 209.5zM449 659 q0 -92 26 -169t78.5 -137t139.5 -94t202 -34q137 0 244.5 44.5t172.5 121.5t98.5 174t33.5 207q0 197 -118 314.5t-327 117.5q-250 0 -400 -151t-150 -394z" />
<glyph unicode="&#x153;" horiz-adv-x="2002" d="M123 426q0 113 39.5 213.5t114 178.5t191.5 123.5t261 45.5q269 0 399 -170q157 170 433 170q94 0 170.5 -26t125 -66.5t81 -94t46 -106t13.5 -104.5q0 -44 -9.5 -87.5t-18.5 -64.5l-9 -22h-727q6 -104 74 -165t198 -61q58 0 113.5 9.5t94 23t68 26.5t43.5 23l15 9 l62 -172q-7 -6 -21 -15.5t-59 -33.5t-93 -42.5t-120 -33.5t-144 -15q-281 0 -405 170q-163 -170 -436 -170q-123 0 -220 36t-157.5 99t-91.5 145t-31 177zM395 444q0 -111 64.5 -180t185.5 -69q144 0 227.5 89t83.5 226q0 110 -64 180t-187 70q-101 0 -172.5 -44 t-104.5 -114t-33 -158zM1245 563h502q11 102 -45 160.5t-166 58.5q-114 0 -188 -58.5t-103 -160.5z" />
<glyph unicode="&#x178;" horiz-adv-x="1536" d="M170 1434h342l342 -625l477 625h338l-702 -910l-56 -524h-288l55 526zM578 1683q0 66 52 116t124 50q61 0 103 -41.5t42 -99.5q0 -66 -53.5 -116t-122.5 -50q-63 0 -104 41.5t-41 99.5zM1008 1683q0 66 53 116t123 50q62 0 104.5 -41.5t42.5 -99.5q0 -66 -53 -116 t-125 -50q-61 0 -103 41.5t-42 99.5z" />
<glyph unicode="&#x2c6;" horiz-adv-x="860" d="M180 1120l262 418h291l176 -418h-217l-123 230l-172 -230h-217z" />
<glyph unicode="&#x2dc;" horiz-adv-x="987" d="M174 1208q4 7 12.5 19t38 43t63.5 54.5t89 42.5t115 19q51 0 97 -18t74 -39t61 -39t60 -18q25 0 49.5 10.5t41.5 26t31 31t21 26.5l7 10l141 -88q-4 -8 -12.5 -22t-37.5 -49t-62.5 -61.5t-87.5 -48.5t-113 -22q-48 0 -90.5 17.5t-68 39t-61 39t-71.5 17.5 q-27 0 -55 -10.5t-47.5 -25.5t-35.5 -30t-24 -26l-8 -10z" />
<glyph unicode="&#x2000;" horiz-adv-x="998" />
<glyph unicode="&#x2001;" horiz-adv-x="1997" />
<glyph unicode="&#x2002;" horiz-adv-x="998" />
<glyph unicode="&#x2003;" horiz-adv-x="1997" />
<glyph unicode="&#x2004;" horiz-adv-x="665" />
<glyph unicode="&#x2005;" horiz-adv-x="499" />
<glyph unicode="&#x2006;" horiz-adv-x="332" />
<glyph unicode="&#x2007;" horiz-adv-x="332" />
<glyph unicode="&#x2008;" horiz-adv-x="249" />
<glyph unicode="&#x2009;" horiz-adv-x="399" />
<glyph unicode="&#x200a;" horiz-adv-x="110" />
<glyph unicode="&#x2010;" horiz-adv-x="864" d="M176 455l27 243h608l-27 -243h-608z" />
<glyph unicode="&#x2011;" horiz-adv-x="864" d="M176 455l27 243h608l-27 -243h-608z" />
<glyph unicode="&#x2012;" horiz-adv-x="864" d="M176 455l27 243h608l-27 -243h-608z" />
<glyph unicode="&#x2013;" horiz-adv-x="1198" d="M182 467l23 223h932l-23 -223h-932z" />
<glyph unicode="&#x2014;" horiz-adv-x="1933" d="M182 467l23 223h1667l-23 -223h-1667z" />
<glyph unicode="&#x2018;" horiz-adv-x="587" d="M236 1335q0 82 15 153.5t39.5 120.5t53.5 88.5t58 63t53.5 39t39.5 21.5l15 6l72 -92q-5 -3 -13.5 -9t-31 -27.5t-39.5 -46.5t-32 -65t-17 -84v-8h10q74 0 123 -48t49 -118q0 -83 -62 -142t-149 -59q-92 0 -138 56.5t-46 150.5z" />
<glyph unicode="&#x2019;" horiz-adv-x="522" d="M201 1495q0 83 61.5 142t149.5 59q92 0 138 -56.5t46 -150.5q0 -82 -15 -153.5t-39 -120.5t-53 -88.5t-58 -63t-53 -39t-39 -21.5l-15 -6l-74 93q5 3 14 9t31.5 27.5t40 46t32.5 64.5t17 84v8h-12q-74 0 -123 48t-49 118z" />
<glyph unicode="&#x201a;" horiz-adv-x="610" d="M119 137q0 81 63 140t148 59q92 0 138 -56.5t46 -150.5q0 -82 -15 -153.5t-39 -120t-53 -88.5t-58 -63t-53 -39t-39 -21l-15 -6l-74 92q5 3 14 9t31.5 27.5t40 46t32.5 64.5t17 84v8h-12q-74 0 -123 48.5t-49 119.5z" />
<glyph unicode="&#x201c;" horiz-adv-x="1097" d="M236 1335q0 82 15 153.5t39.5 120.5t53.5 88.5t58 63t53.5 39t39.5 21.5l15 6l72 -92q-5 -3 -13.5 -9t-31 -27.5t-39.5 -46.5t-32 -65t-17 -84v-8h10q74 0 123 -48t49 -118q0 -83 -62 -142t-149 -59q-92 0 -138 56.5t-46 150.5zM748 1335q0 82 15 153.5t39 120.5t53 88.5 t58 63t53 39t39 21.5l15 6l74 -92q-5 -3 -14 -9t-31.5 -27.5t-40.5 -46.5t-33 -65t-17 -84v-8h13q73 0 122.5 -48.5t49.5 -119.5q0 -81 -63 -140t-148 -59q-92 0 -138 56.5t-46 150.5z" />
<glyph unicode="&#x201d;" horiz-adv-x="1011" d="M201 1495q0 83 61.5 142t149.5 59q92 0 138 -56.5t46 -150.5q0 -82 -15 -153.5t-39 -120.5t-53 -88.5t-58 -63t-53 -39t-39 -21.5l-15 -6l-74 93q5 3 14 9t31.5 27.5t40 46t32.5 64.5t17 84v8h-12q-74 0 -123 48t-49 118zM690 1497q0 81 63 140t148 59q93 0 139.5 -56.5 t46.5 -150.5q0 -82 -15 -153.5t-39.5 -120.5t-53.5 -88.5t-58 -63t-53.5 -39t-39.5 -21.5l-15 -6l-74 93q5 3 14 9t31.5 27.5t40 46t32.5 64.5t17 84v8h-12q-74 0 -123 48.5t-49 119.5z" />
<glyph unicode="&#x201e;" horiz-adv-x="1095" d="M119 137q0 81 63 140t148 59q92 0 138 -56.5t46 -150.5q0 -82 -15 -153.5t-39 -120t-53 -88.5t-58 -63t-53 -39t-39 -21l-15 -6l-74 92q5 3 14 9t31.5 27.5t40 46t32.5 64.5t17 84v8h-12q-74 0 -123 48.5t-49 119.5zM604 135q0 83 61.5 142t149.5 59q92 0 138 -56.5 t46 -150.5q0 -82 -15 -153.5t-39 -120t-53 -88.5t-58 -63t-53 -39t-39 -21l-15 -6l-74 92q5 3 14 9t31.5 27.5t40 46t32.5 64.5t17 84v8h-12q-74 0 -123 48t-49 118z" />
<glyph unicode="&#x2022;" horiz-adv-x="987" d="M215 621q0 154 114.5 265t268.5 111q134 0 222.5 -91t88.5 -224q0 -154 -114 -264.5t-269 -110.5q-133 0 -222 90.5t-89 223.5z" />
<glyph unicode="&#x2026;" horiz-adv-x="1572" d="M119 137q0 81 63 140t148 59q76 0 125 -48.5t49 -119.5q0 -81 -63 -140t-150 -59q-74 0 -123 48.5t-49 119.5zM616 135q0 83 61.5 142t149.5 59q76 0 125 -48.5t49 -119.5q0 -81 -63 -140t-150 -59q-75 0 -123.5 48t-48.5 118zM1100 137q0 81 63 140t148 59 q76 0 125 -48.5t49 -119.5q0 -81 -63 -140t-150 -59q-74 0 -123 48.5t-49 119.5z" />
<glyph unicode="&#x202f;" horiz-adv-x="399" />
<glyph unicode="&#x2039;" horiz-adv-x="743" d="M123 354l18 181l471 391l127 -140l-358 -342l289 -340l-158 -139z" />
<glyph unicode="&#x203a;" horiz-adv-x="743" d="M94 104l361 340l-287 342l156 140l389 -391l-19 -181l-471 -389z" />
<glyph unicode="&#x205f;" horiz-adv-x="499" />
<glyph unicode="&#x20ac;" horiz-adv-x="1736" d="M143 430l21 193h1040l-20 -193h-508q102 -205 389 -205q90 0 181.5 18.5t157.5 44.5t119 52t80 44l27 19l53 -247q-10 -8 -28.5 -20.5t-81.5 -44.5t-134 -57t-182.5 -45t-228.5 -20q-157 0 -281 34t-208.5 96.5t-137 145t-75.5 185.5h-183zM180 774l21 193h166 q90 232 300 362.5t519 130.5q108 0 203.5 -14.5t154.5 -36t102.5 -42.5t61.5 -35l18 -15l-137 -240q-5 5 -15 13.5t-47 30.5t-82 39t-122 30.5t-164 13.5q-151 0 -268.5 -62t-185.5 -175h536l-20 -193h-1041z" />
<glyph unicode="&#x2122;" horiz-adv-x="2007" d="M240 1206l18 176h737l-18 -176h-270l-58 -540h-188l57 540h-278zM993 666l76 716h238l176 -516l276 516h244l-76 -716h-184l47 442l-244 -442h-178l-145 442l-47 -442h-183z" />
<glyph unicode="&#x25fc;" horiz-adv-x="962" d="M0 0v963h963v-963h-963z" />
</font>
</defs>
</svg>
